<svg width="64" height="64" viewBox="0 0 64 64" fill="none" xmlns="http://www.w3.org/2000/svg">
<path d="M-8.7738e-05 32C-8.7738e-05 49.6731 14.3268 64 31.9999 64C49.673 64 63.9999 49.6731 63.9999 32C63.9999 14.3269 49.673 -1.52588e-05 31.9999 -1.52588e-05C14.3268 -1.52588e-05 -8.7738e-05 14.3269 -8.7738e-05 32Z" fill="#FA114F"/>
<g opacity="0.2">
<path d="M33.9999 47.8V40H45.9999C48.1999 40 49.9999 38.2 49.9999 36V28C49.9999 25.8 48.1999 24 45.9999 24H33.9999V16.2C33.9999 13.5 32.0999 12.7 29.8999 14.5L11.7999 28.8C9.49991 30.6 9.49991 33.5 11.7999 35.3L29.8999 49.6C32.0999 51.3 33.9999 50.6 33.9999 47.8Z" fill="#1C1C1E"/>
</g>
<path d="M47.9999 24C50.1999 24 51.9999 25.8 51.9999 28V36C51.9999 38.2 50.1999 40 47.9999 40H23.9999C21.7999 40 19.9999 38.2 19.9999 36V28C19.9999 25.8 21.7999 24 23.9999 24L47.9999 24Z" fill="#F2F2F7"/>
<path d="M35.9999 47.8C35.9999 50.5 34.0999 51.3 31.8999 49.5L13.6999 35.3C11.3999 33.5 11.3999 30.6 13.6999 28.8L31.8999 14.5C34.1999 12.7 35.9999 13.5 35.9999 16.2V47.8Z" fill="#F2F2F7"/>
</svg>
