<svg width="64" height="64" viewBox="0 0 64 64" fill="none" xmlns="http://www.w3.org/2000/svg">
<mask id="mask0_121_49" style="mask-type:luminance" maskUnits="userSpaceOnUse" x="0" y="0" width="64" height="64">
<path d="M64 0V64H0V0H64Z" fill="white"/>
</mask>
<g mask="url(#mask0_121_49)">
<path d="M8 32C8 18.7452 18.7452 8 32 8C45.2548 8 56 18.7452 56 32C56 45.2548 45.2548 56 32 56C18.7452 56 8 45.2548 8 32Z" stroke="#F2F2F7" stroke-width="6.66667" stroke-linecap="round" stroke-linejoin="round"/>
<path d="M31.93 20.9179C31.7548 22.4572 32.8644 23.8524 34.4042 24.0276C39.1222 24.5646 42.5246 28.8393 41.9874 33.5588C41.4504 38.277 37.1741 41.6792 32.4562 41.1422C28.7441 40.7197 25.8044 37.998 25.0301 34.4568L26.0505 34.5729C26.9677 34.6773 27.8779 34.3237 28.4866 33.6265C28.8634 33.1944 29.0962 32.6657 29.1608 32.0983C29.1989 31.7636 29.1775 31.4276 29.0956 31.0999L29.0668 31.0038L29.0012 30.8152L28.9656 30.7238L25.5576 23.0271C25.1961 22.027 24.2904 21.3071 23.231 21.1866C22.172 21.066 21.1266 21.5638 20.5506 22.4572L15.5002 29.1913L15.445 29.2709L15.3412 29.4372L15.2928 29.523C15.1377 29.8246 15.0401 30.1494 15.0017 30.4873C14.9364 31.0609 15.0452 31.6302 15.3151 32.1289C15.75 32.9438 16.5576 33.4931 17.4763 33.5976L19.2486 33.7993C19.808 40.4842 25.0503 45.9558 31.8211 46.7265C39.6188 47.614 46.6838 41.9927 47.5713 34.1951C48.4589 26.3972 42.8378 19.3317 35.0402 18.4442C33.4999 18.2689 32.1052 19.3786 31.93 20.9179Z" fill="#F2F2F7"/>
</g>
</svg>
