<svg width="46" height="39" viewBox="0 0 46 39" fill="none" xmlns="http://www.w3.org/2000/svg">
<path d="M45.6694 30.4798C45.2629 32.9312 42.9655 33.6841 40.9882 34.6293C37.2472 36.0252 30.6924 39.1858 26.858 38.1977C25.5286 37.9983 24.5901 35.6749 23.7002 34.6899C22.8373 33.4558 22.2707 31.9088 22.8909 30.4448C23.1669 29.9406 23.0662 29.8448 22.5697 29.6459C20.1138 28.2489 17.6626 26.8448 15.1532 25.5429C12.547 24.1908 9.99553 22.733 7.3499 21.4569C5.59578 20.6108 4.21287 19.372 3.24878 17.6815C1.9259 15.1689 0.156679 12.3714 1.45166 9.50218C2.5234 6.7489 3.4706 3.29341 5.89172 1.45699C8.08295 0.243172 10.3169 1.73117 12.3423 2.61616C18.2304 5.40899 23.7152 8.96906 29.637 11.6923C30.0504 11.8094 30.5692 12.2986 30.9733 11.9725C31.9382 10.9912 32.5916 9.75037 33.3897 8.63728C34.2286 7.38749 35.7395 4.62231 37.0232 7.07889C37.84 8.56509 38.5674 10.0974 39.3013 11.6238C40.8335 14.2349 41.7941 17.1527 43.0886 19.8878C44.3863 23.2686 46.3058 26.7223 45.6694 30.4798Z" fill="#1C1C1E" stroke="black" stroke-width="0.128"/>
<path d="M23.7638 33.6098C27.0747 34.1499 40.7365 29.3704 42.9509 27.5844C44.0675 26.0154 42.1013 20.3228 41.8545 18.9366L42.2215 18.83C43.3923 20.5177 47.4124 29.6507 44.0513 32.6114C42.1862 34.0827 29.1967 39.1336 26.1637 37.4876C25.4112 37.0544 23.2224 33.6485 23.7638 33.6098Z" fill="#6E021F" stroke="black" stroke-width="0.128"/>
<path d="M1.72656 13.4751C1.72656 13.4751 3.90256 19.2565 5.75856 20.1311C7.61456 21.0057 22.6227 29.9024 23.3952 29.6245C24.1677 29.3465 24.7412 26.5689 24.6926 26.0977C23.1442 24.8172 4.05245 14.1782 1.72656 13.4751Z" fill="#6E021F" stroke="black" stroke-width="0.128"/>
<path d="M1.42782 12.2271C1.20049 11.1287 4.02981 0.636948 7.95608 1.57122C14.4078 3.06255 25.2783 10.7306 30.8358 12.5792C37.2781 4.74664 35.074 3.47765 40.7456 16.0351C41.4628 18.9616 44.7164 26.635 42.6228 27.8363C40.9881 28.805 25.83 34.9585 23.34 33.1217C22.645 32.334 23.5727 29.8194 24.0362 28.5913C24.4998 27.3631 24.8518 26.4185 24.4358 25.8508C24.0198 25.2831 1.25873 13.4574 1.42782 12.2271Z" fill="#FA114F" stroke="black" stroke-width="0.128"/>
<path d="M1.42676 11.434C4.40481 4.97733 8.18964 1.02213 15.7425 7.0965C17.2357 8.48286 20.7649 8.42193 23.3949 10.0098C26.0249 11.5976 29.7797 14.707 31.2517 13.555C32.7237 12.403 33.4277 9.65099 34.7397 10.643C39.1432 14.359 42.0204 21.0417 43.3349 25.7803C43.6561 24.7372 38.2698 7.61643 35.9391 6.53112C35.2065 6.27614 31.7423 12.4084 30.8037 12.4724C29.865 12.5364 10.9957 1.85899 7.95565 1.57099C2.99399 1.73278 2.45319 8.9411 1.42676 11.434Z" fill="#FA114F" stroke="black" stroke-width="0.128"/>
<path d="M20.0464 27.388C22.5284 28.59 23.3689 30.9936 24.4511 27.0196C25.1472 25.7094 20.5421 23.7445 19.5633 23.1216C19.4239 24.4908 19.7754 26.0171 20.0464 27.388Z" fill="#6E021F" stroke="black" stroke-width="0.128"/>
<path d="M24.661 25.7803C23.4609 23.2669 18.6545 21.7232 16.3449 20.0603C13.4878 18.5739 10.6654 17.0296 7.82444 15.5179C5.64857 14.3893 3.443 13.1238 1.65228 11.434C1.32281 13.4728 7.29465 15.6093 8.85254 16.7947C14.1092 19.7748 19.897 22.0248 24.661 25.7803Z" fill="#FA114F" stroke="black" stroke-width="0.128"/>
<path d="M42.9188 27.3173C41.5981 27.5442 40.2985 28.3314 39.0089 28.8037C36.8775 29.6237 34.6983 30.3117 32.5082 30.9575C30.2796 31.6894 27.9912 32.2199 25.6994 32.7049C24.9748 32.7573 23.7172 33.0506 23.454 32.1322C23.3983 32.0464 23.3662 31.6662 23.2328 31.7792C22.5259 35.0902 30.1288 32.107 31.6767 31.7977C35.4443 30.4403 39.4884 29.3956 42.9188 27.3173Z" fill="#6E021F" stroke="black" stroke-width="0.128"/>
<path d="M26.517 33.7089C25.595 33.7946 24.7127 33.9171 23.7788 33.7859C25.2307 35.5353 26.3959 38.3112 29.1115 37.7598C29.4107 37.7285 29.4263 37.6998 29.2541 37.4387C28.3479 36.2268 27.6649 34.6625 26.517 33.7089Z" fill="#FA114F" stroke="black" stroke-width="0.128"/>
<path d="M44.7061 30.9941C45.7292 26.9696 43.5651 22.9223 42.1099 19.2595C42.6833 21.5426 44.5408 25.5246 43.1934 27.6253C43.6383 28.77 44.2681 29.8496 44.7061 30.9941Z" fill="#6E021F" stroke="black" stroke-width="0.128"/>
<path d="M7.91595 20.8535C5.70373 19.1155 3.72139 16.6944 2.55903 14.0526C2.45919 13.9649 2.35935 13.8774 2.22559 13.76C3.26456 16.6748 4.91935 19.6342 7.91595 20.8535Z" fill="#FA114F" stroke="black" stroke-width="0.128"/>
<path d="M18.0429 26.1738C17.8984 24.805 17.6701 23.4441 17.5709 22.0701C17.2916 21.8907 16.9915 21.7503 16.6948 21.6036C17.1117 22.9926 17.2011 24.5333 17.57 25.9159C17.7223 26.0119 17.876 26.1048 18.0429 26.1738Z" fill="#6E021F" stroke="black" stroke-width="0.128"/>
<path d="M27.3306 33.5643C28.0794 35.005 29.1059 36.4002 30.1935 37.6172C30.2958 37.5997 30.3982 37.5821 30.5005 37.5646C29.7184 36.2258 28.6423 34.8246 27.7541 33.4789C27.6131 33.5074 27.4719 33.5358 27.3306 33.5643Z" fill="#FA114F" stroke="black" stroke-width="0.128"/>
<path d="M29.6094 33.0203C30.1909 34.1323 30.9582 35.1666 31.6137 36.2463C31.8917 36.526 32.095 37.3215 32.5837 37.034C31.73 35.7428 30.8338 34.4776 30.1152 33.1009C30.0478 32.8386 29.7934 32.9807 29.6094 33.0203Z" fill="#FA114F" stroke="black" stroke-width="0.128"/>
<path d="M19.2193 27.0986C19.0894 25.639 18.8918 24.1792 18.9066 22.713C18.7747 22.6399 18.6427 22.5668 18.5107 22.4937C18.5927 23.9352 18.7655 25.4314 18.7929 26.8562C18.9248 26.9551 19.0711 27.0285 19.2193 27.0986Z" fill="#6E021F" stroke="black" stroke-width="0.128"/>
<path d="M44.5837 31.3586C43.8715 30.3036 43.57 29.0264 42.9564 27.9125C42.8855 27.9762 42.8146 28.0398 42.7437 28.1034C43.5091 29.1028 43.7351 30.5168 44.4778 31.5791C44.513 31.5056 44.5483 31.4322 44.5837 31.3586Z" fill="#FA114F" stroke="black" stroke-width="0.128"/>
<path d="M19.8839 8.9982C17.7693 9.17113 21.0917 11.2945 21.6191 10.1003C21.5909 9.36517 20.4976 9.05119 19.8839 8.9982Z" fill="#FA114F" stroke="black" stroke-width="0.128"/>
<path d="M43.3082 30.7046C43.2827 30.3629 43.1025 30.8533 43.1815 30.9687C43.2989 30.9859 43.2888 30.7808 43.3082 30.7046Z" fill="#1C1C1E" stroke="black" stroke-width="0.128"/>
<path d="M43.0533 30.4735C43.0256 30.3078 42.838 30.4867 42.8496 30.5872C42.8662 30.8036 43.0405 30.5618 43.0533 30.4735Z" fill="#1C1C1E" stroke="black" stroke-width="0.128"/>
<path d="M23.0854 27.5691C23.0497 27.8487 23.2751 27.868 23.2693 27.5768C23.2476 27.3203 23.4315 26.9364 23.283 26.7374C23.1009 26.9094 23.1445 27.3148 23.0854 27.5691Z" fill="#1C1C1E" stroke="black" stroke-width="0.128"/>
<path d="M45.6694 30.4798C45.2629 32.9312 42.9655 33.6841 40.9882 34.6293C37.2472 36.0252 30.6924 39.1858 26.858 38.1977C25.5286 37.9983 24.5901 35.6749 23.7002 34.6899C22.8373 33.4558 22.2707 31.9088 22.8909 30.4448C23.1669 29.9406 23.0662 29.8448 22.5697 29.6459C20.1138 28.2489 17.6626 26.8448 15.1532 25.5429C12.547 24.1908 9.99553 22.733 7.3499 21.4569C5.59578 20.6108 4.21287 19.372 3.24878 17.6815C1.9259 15.1689 0.156679 12.3714 1.45166 9.50218C2.5234 6.7489 3.4706 3.29341 5.89172 1.45699C8.08295 0.243172 10.3169 1.73117 12.3423 2.61616C18.2304 5.40899 23.7152 8.96906 29.637 11.6923C30.0504 11.8094 30.5692 12.2986 30.9733 11.9725C31.9382 10.9912 32.5916 9.75037 33.3897 8.63728C34.2286 7.38749 35.7395 4.62231 37.0232 7.07889C37.84 8.56509 38.5674 10.0974 39.3013 11.6238C40.8335 14.2349 41.7941 17.1527 43.0886 19.8878C44.3863 23.2686 46.3058 26.7223 45.6694 30.4798ZM2.73255 14.8855C3.82426 17.7661 5.82606 19.9888 8.71028 21.1288C12.289 22.9677 19.1701 26.5495 22.1943 28.6447C22.6133 29.078 23.4213 29.2179 23.667 28.5221C23.8474 27.6592 24.8673 26.4782 23.8519 25.8118C20.1097 23.0391 4.69159 15.9161 2.33204 13.8455C2.45466 14.2267 2.59034 14.5575 2.73255 14.8855ZM38.3966 11.6094C38.0325 11.0133 36.2309 6.50314 35.6295 7.00631C34.234 8.61821 33.2444 10.544 31.8844 12.1775C31.0071 13.2412 30.1526 12.9085 29.1013 12.3378C24.8198 10.4174 14.9275 4.55831 10.2176 2.64676C8.7739 1.9736 6.75636 1.31901 5.69332 2.94115C3.88903 5.46173 2.6825 8.43069 1.97556 11.4341C1.81018 12.6542 3.27015 13.3801 4.13889 13.9483C8.35124 16.3614 12.6371 18.6324 16.9604 20.8399C19.5834 22.3382 22.4156 23.622 24.7093 25.6085C25.8053 27.5605 23.4697 29.6219 23.4624 31.6505C22.4783 35.7909 36.2253 29.9625 38.0168 29.4094C39.4765 28.6633 42.8493 28.165 43.068 26.3009C42.5502 21.2266 40.2323 16.3553 38.3966 11.6094ZM44.6335 26.2113C44.0766 23.9502 43.2236 21.7798 42.2693 19.6596C42.8143 21.8599 44.566 25.5178 43.2933 27.565C41.5501 29.6747 30.5139 32.9052 27.6847 33.6092C26.4952 33.8477 25.302 34.0289 24.0841 33.8877C25.399 35.472 26.4545 37.9865 28.9141 37.4871C30.826 37.4364 43.2323 33.869 44.507 31.301C45.2607 29.7084 45.0415 27.8672 44.6335 26.2113Z" fill="#1C1C1E" stroke="black" stroke-width="0.128"/>
</svg>
