<svg width="46" height="39" viewBox="0 0 46 39" fill="none" xmlns="http://www.w3.org/2000/svg">
<path d="M45.6694 30.4802C45.2629 32.9315 42.9655 33.6844 40.9882 34.6297C37.2472 36.0256 30.6924 39.1861 26.858 38.1981C25.5286 37.9987 24.5901 35.6752 23.7002 34.6903C22.8373 33.4562 22.2707 31.9092 22.8909 30.4451C23.1669 29.941 23.0662 29.8452 22.5697 29.6463C20.1138 28.2493 17.6626 26.8451 15.1532 25.5433C12.547 24.1912 9.99553 22.7334 7.3499 21.4572C5.59578 20.6112 4.21287 19.3724 3.24878 17.6819C1.9259 15.1692 0.156679 12.3718 1.45166 9.50255C2.5234 6.74927 3.4706 3.29378 5.89172 1.45737C8.08295 0.243544 10.3169 1.73154 12.3423 2.61654C18.2304 5.40937 23.7152 8.96943 29.637 11.6926C30.0504 11.8098 30.5692 12.299 30.9733 11.9728C31.9382 10.9916 32.5916 9.75075 33.3897 8.63766C34.2286 7.38787 35.7395 4.62268 37.0232 7.07926C37.84 8.56547 38.5674 10.0978 39.3013 11.6242C40.8335 14.2352 41.7941 17.1531 43.0887 19.8882C44.3863 23.269 46.3058 26.7227 45.6694 30.4802Z" fill="#1C1C1E" stroke="black" stroke-width="0.128"/>
<path d="M23.7637 33.6097C27.0746 34.1499 40.7364 29.3703 42.9508 27.5843C44.0673 26.0153 42.1011 20.3228 41.8544 18.9365L42.2213 18.8299C43.3921 20.5176 47.4122 29.6507 44.0512 32.6113C42.1861 34.0827 29.1966 39.1335 26.1636 37.4876C25.4111 37.0543 23.2223 33.6485 23.7637 33.6097Z" fill="#0B7570" stroke="black" stroke-width="0.128"/>
<path d="M1.72635 13.4753C1.72635 13.4753 3.90235 19.2567 5.75835 20.1313C7.61435 21.0059 22.6225 29.9026 23.395 29.6247C24.1674 29.3466 24.741 26.569 24.6924 26.0979C23.1439 24.8174 4.05224 14.1784 1.72635 13.4753Z" fill="#0B7570" stroke="black" stroke-width="0.128"/>
<path d="M1.42771 12.2273C1.20039 11.1289 4.0297 0.637147 7.95597 1.57142C14.4077 3.06275 25.2782 10.7308 30.8357 12.5794C37.278 4.74684 35.0739 3.47785 40.7455 16.0353C41.4627 18.9618 44.7163 26.6352 42.6227 27.8365C40.988 28.8052 25.8299 34.9587 23.3399 33.1219C22.6449 32.3342 23.5726 29.8196 24.0361 28.5915C24.4997 27.3633 24.8517 26.4187 24.4357 25.851C24.0197 25.2833 1.25863 13.4576 1.42771 12.2273Z" fill="#229F99" stroke="black" stroke-width="0.128"/>
<path d="M1.42682 11.4345C4.40487 4.97776 8.1897 1.02256 15.7426 7.09692C17.2357 8.48329 20.7649 8.42236 23.3949 10.0102C26.025 11.598 29.7797 14.7074 31.2517 13.5554C32.7237 12.4034 33.4277 9.65142 34.7397 10.6434C39.1433 14.3594 42.0205 21.0421 43.3349 25.7807C43.6562 24.7376 38.2698 7.61686 35.9392 6.53155C35.2065 6.27657 31.7423 12.4088 30.8037 12.4728C29.8651 12.5368 10.9957 1.85942 7.95572 1.57142C2.99405 1.73321 2.45325 8.94153 1.42682 11.4345Z" fill="#229F99" stroke="black" stroke-width="0.128"/>
<path d="M20.0466 27.3886C22.5287 28.5907 23.3691 30.9943 24.4513 27.0203C25.1474 25.71 20.5423 23.7451 19.5635 23.1223C19.4241 24.4915 19.7756 26.0178 20.0466 27.3886Z" fill="#0B7570" stroke="black" stroke-width="0.128"/>
<path d="M24.6609 25.7806C23.4608 23.2672 18.6544 21.7235 16.3447 20.0606C13.4876 18.5742 10.6652 17.0299 7.82427 15.5182C5.6484 14.3896 3.44283 13.1241 1.65211 11.4343C1.32264 13.4731 7.29448 15.6096 8.85237 16.795C14.1091 19.7751 19.8968 22.0251 24.6609 25.7806Z" fill="#229F99" stroke="black" stroke-width="0.128"/>
<path d="M42.9187 27.3177C41.598 27.5447 40.2984 28.3319 39.0088 28.8042C36.8773 29.6242 34.6981 30.3122 32.508 30.9579C30.2794 31.6898 27.991 32.2204 25.6992 32.7054C24.9746 32.7577 23.717 33.0511 23.4538 32.1327C23.3982 32.0468 23.366 31.6667 23.2326 31.7797C22.5257 35.0907 30.1286 32.1075 31.6766 31.7981C35.4441 30.4408 39.4883 29.3961 42.9187 27.3177Z" fill="#0B7570" stroke="black" stroke-width="0.128"/>
<path d="M26.5169 33.7091C25.5949 33.7949 24.7126 33.9174 23.7787 33.7862C25.2306 35.5356 26.3958 38.3115 29.1114 37.7601C29.4106 37.7287 29.4262 37.7001 29.254 37.4389C28.3478 36.227 27.6648 34.6627 26.5169 33.7091Z" fill="#229F99" stroke="black" stroke-width="0.128"/>
<path d="M44.7061 30.9948C45.7292 26.9702 43.5651 22.923 42.1098 19.2601C42.6833 21.5433 44.5408 25.5252 43.1934 27.6259C43.6383 28.7707 44.268 29.8502 44.7061 30.9948Z" fill="#0B7570" stroke="black" stroke-width="0.128"/>
<path d="M7.91579 20.854C5.70356 19.116 3.72123 16.6949 2.55886 14.0531C2.45902 13.9654 2.35918 13.8778 2.22542 13.7605C3.26439 16.6753 4.91918 19.6346 7.91579 20.854Z" fill="#229F99" stroke="black" stroke-width="0.128"/>
<path d="M18.0429 26.1747C17.8984 24.8059 17.67 23.445 17.5708 22.071C17.2915 21.8915 16.9915 21.7511 16.6948 21.6044C17.1117 22.9935 17.201 24.5341 17.5699 25.9168C17.7222 26.0128 17.876 26.1057 18.0429 26.1747Z" fill="#0B7570" stroke="black" stroke-width="0.128"/>
<path d="M27.3304 33.5643C28.0792 35.0049 29.1058 36.4001 30.1934 37.6171C30.2957 37.5996 30.3981 37.582 30.5004 37.5645C29.7183 36.2258 28.6422 34.8245 27.754 33.4789C27.6129 33.5073 27.4718 33.5357 27.3304 33.5643Z" fill="#229F99" stroke="black" stroke-width="0.128"/>
<path d="M29.6092 33.0205C30.1907 34.1324 30.9581 35.1668 31.6136 36.2465C31.8916 36.5262 32.0949 37.3217 32.5836 37.0342C31.7298 35.7429 30.8337 34.4778 30.1151 33.101C30.0476 32.8387 29.7933 32.9808 29.6092 33.0205Z" fill="#229F99" stroke="black" stroke-width="0.128"/>
<path d="M19.2192 27.0986C19.0893 25.639 18.8917 24.1792 18.9065 22.7129C18.7745 22.6398 18.6426 22.5667 18.5106 22.4937C18.5925 23.9352 18.7653 25.4314 18.7927 26.8562C18.9247 26.9551 19.071 27.0284 19.2192 27.0986Z" fill="#0B7570" stroke="black" stroke-width="0.128"/>
<path d="M44.5837 31.3587C43.8715 30.3037 43.5701 29.0265 42.9564 27.9127C42.8855 27.9763 42.8146 28.0399 42.7437 28.1035C43.5091 29.1029 43.7352 30.517 44.4778 31.5792C44.513 31.5058 44.5484 31.4323 44.5837 31.3587Z" fill="#229F99" stroke="black" stroke-width="0.128"/>
<path d="M19.8842 8.99862C17.7695 9.17155 21.092 11.2949 21.6193 10.1007C21.5912 9.36559 20.4978 9.05161 19.8842 8.99862Z" fill="#229F99" stroke="black" stroke-width="0.128"/>
<path d="M43.3084 30.7047C43.283 30.363 43.1027 30.8533 43.1817 30.9688C43.2991 30.9859 43.289 30.7809 43.3084 30.7047Z" fill="#1C1C1E" stroke="black" stroke-width="0.128"/>
<path d="M43.0531 30.4737C43.0254 30.3079 42.8378 30.4869 42.8494 30.5874C42.8659 30.8038 43.0403 30.562 43.0531 30.4737Z" fill="#1C1C1E" stroke="black" stroke-width="0.128"/>
<path d="M23.0852 27.5698C23.0495 27.8493 23.2749 27.8686 23.2691 27.5774C23.2474 27.3209 23.4313 26.9371 23.2828 26.738C23.1007 26.91 23.1443 27.3154 23.0852 27.5698Z" fill="#1C1C1E" stroke="black" stroke-width="0.128"/>
<path d="M45.6694 30.4802C45.2629 32.9315 42.9655 33.6844 40.9882 34.6297C37.2472 36.0256 30.6924 39.1861 26.858 38.1981C25.5286 37.9987 24.5901 35.6752 23.7002 34.6903C22.8373 33.4562 22.2707 31.9092 22.8909 30.4451C23.1669 29.941 23.0662 29.8452 22.5697 29.6463C20.1138 28.2493 17.6626 26.8451 15.1532 25.5433C12.547 24.1912 9.99553 22.7334 7.3499 21.4572C5.59578 20.6112 4.21287 19.3724 3.24878 17.6819C1.9259 15.1692 0.156679 12.3718 1.45166 9.50255C2.5234 6.74927 3.4706 3.29378 5.89172 1.45737C8.08295 0.243544 10.3169 1.73154 12.3423 2.61654C18.2304 5.40937 23.7152 8.96943 29.637 11.6926C30.0504 11.8098 30.5692 12.299 30.9733 11.9728C31.9382 10.9916 32.5916 9.75075 33.3897 8.63766C34.2286 7.38787 35.7395 4.62268 37.0232 7.07926C37.84 8.56547 38.5674 10.0978 39.3013 11.6242C40.8335 14.2352 41.7941 17.1531 43.0887 19.8882C44.3863 23.269 46.3058 26.7227 45.6694 30.4802ZM2.73255 14.8858C3.82426 17.7665 5.82606 19.9892 8.71028 21.1292C12.289 22.968 19.1701 26.5499 22.1943 28.6451C22.6133 29.0784 23.4213 29.2183 23.667 28.5225C23.8474 27.6596 24.8673 26.4786 23.8519 25.8122C20.1097 23.0394 4.69159 15.9165 2.33204 13.8458C2.45466 14.227 2.59034 14.5579 2.73255 14.8858ZM38.3966 11.6098C38.0325 11.0137 36.2309 6.50351 35.6295 7.00668C34.234 8.61859 33.2444 10.5443 31.8844 12.1779C31.0071 13.2416 30.1526 12.9089 29.1013 12.3381C24.8198 10.4178 14.9275 4.55868 10.2176 2.64713C8.7739 1.97398 6.75636 1.31938 5.69332 2.94153C3.88903 5.4621 2.6825 8.43107 1.97556 11.4345C1.81018 12.6546 3.27015 13.3804 4.13889 13.9486C8.35124 16.3618 12.6371 18.6328 16.9604 20.8403C19.5834 22.3385 22.4156 23.6224 24.7093 25.6089C25.8053 27.5609 23.4697 29.6222 23.4624 31.6509C22.4783 35.7913 36.2253 29.9628 38.0168 29.4098C39.4765 28.6636 42.8493 28.1653 43.068 26.3013C42.5502 21.227 40.2323 16.3557 38.3966 11.6098ZM44.6335 26.2117C44.0766 23.9506 43.2236 21.7802 42.2693 19.66C42.8143 21.8603 44.566 25.5182 43.2933 27.5654C41.5501 29.6751 30.5139 32.9056 27.6847 33.6096C26.4952 33.848 25.302 34.0293 24.0841 33.8881C25.3991 35.4723 26.4545 37.9869 28.9141 37.4875C30.826 37.4368 43.2323 33.8694 44.507 31.3013C45.2607 29.7088 45.0415 27.8676 44.6335 26.2117Z" fill="#1C1C1E" stroke="black" stroke-width="0.128"/>
</svg>
