<svg width="100" height="100" viewBox="0 0 100 100" fill="none" xmlns="http://www.w3.org/2000/svg">
<path d="M53.8497 80.8111C53.8497 81.2395 53.4872 81.602 53.0588 81.602C52.6303 81.602 52.2678 81.2395 52.2678 80.8111C52.2678 80.3827 52.6303 80.0201 53.0588 80.0201C53.5202 80.0531 53.8497 80.3827 53.8497 80.8111Z" fill="#2E2A49"/>
<path d="M54.9372 79.7565C54.9372 80.185 54.5747 80.5475 54.1463 80.5475C53.7179 80.5475 53.3553 80.185 53.3553 79.7565C53.3553 79.3281 53.7179 78.9656 54.1463 78.9656C54.5747 78.9656 54.9372 79.3281 54.9372 79.7565Z" fill="#2E2A49"/>
<path d="M55.3326 78.2736C55.3326 78.702 54.9701 79.0646 54.5417 79.0316C54.1133 78.9987 53.7507 78.6691 53.7837 78.2407C53.7837 77.8122 54.1462 77.4827 54.5747 77.4827C55.0031 77.4827 55.3326 77.8452 55.3326 78.2736Z" fill="#2E2A49"/>
<path d="M54.0804 79.8885C53.1906 81.2397 51.378 81.6352 50.0268 80.7454C48.6756 79.8555 44.4572 75.5383 45.347 74.1871C46.2368 72.8359 51.8723 74.9451 53.2235 75.8349C54.5747 76.7247 54.9702 78.5373 54.0804 79.8885Z" fill="#1496DB"/>
<path d="M53.0258 88.6548C53.0258 89.0833 52.6962 89.4458 52.2678 89.4458C51.8393 89.4458 51.4768 89.1162 51.4768 88.6878C51.4768 88.2594 51.8064 87.8969 52.2348 87.8969C52.6632 87.8969 53.0258 88.2264 53.0258 88.6548Z" fill="#2E2A49"/>
<path d="M54.1134 87.6002C54.1134 88.0286 53.7509 88.3911 53.3224 88.3911C52.894 88.3911 52.5315 88.0286 52.5315 87.6002C52.5315 87.1717 52.894 86.8092 53.3224 86.8092C53.7509 86.8092 54.1134 87.1717 54.1134 87.6002Z" fill="#2E2A49"/>
<path d="M54.5089 86.1171C54.5089 86.5456 54.1464 86.9081 53.7179 86.9081C53.2895 86.9081 52.927 86.5456 52.927 86.1171C52.927 85.6887 53.2895 85.3262 53.7179 85.3262C54.1793 85.3262 54.5089 85.6887 54.5089 86.1171Z" fill="#2E2A49"/>
<path d="M53.2564 87.732C52.3666 89.0832 50.554 89.4787 49.2028 88.5889C47.8516 87.699 43.6332 83.3818 44.523 82.0306C45.4128 80.6794 51.0483 82.7886 52.3996 83.6784C53.7508 84.5682 54.1462 86.3808 53.2564 87.732Z" fill="#1496DB"/>
<path d="M2.07544 80.8112C2.07544 81.2396 2.43796 81.6022 2.86639 81.6022C3.29482 81.6022 3.65734 81.2396 3.65734 80.8112C3.65734 80.3828 3.29482 80.0203 2.86639 80.0203C2.43796 80.0532 2.07544 80.3828 2.07544 80.8112Z" fill="#2E2A49"/>
<path d="M0.987915 79.7566C0.987915 80.1851 1.35043 80.5476 1.77886 80.5476C2.20729 80.5476 2.56981 80.1851 2.56981 79.7566C2.56981 79.3282 2.20729 78.9657 1.77886 78.9657C1.35043 78.9657 0.987915 79.3282 0.987915 79.7566Z" fill="#2E2A49"/>
<path d="M0.592407 78.2736C0.592407 78.702 0.954926 79.0646 1.38336 79.0316C1.81179 79.0316 2.17431 78.6691 2.14135 78.2407C2.14135 77.8122 1.77883 77.4827 1.3504 77.4827C0.954925 77.4827 0.592407 77.8452 0.592407 78.2736Z" fill="#2E2A49"/>
<path d="M1.84473 79.8884C2.73455 81.2396 4.54714 81.635 5.89834 80.7452C7.24955 79.8554 11.4679 75.5381 10.5781 74.1869C9.68831 72.8357 4.0528 74.9449 2.70159 75.8348C1.35039 76.7246 0.954914 78.5372 1.84473 79.8884Z" fill="#1496DB"/>
<path d="M2.89941 88.6548C2.89941 89.0833 3.22898 89.4458 3.65741 89.4458C4.08584 89.4458 4.44836 89.1162 4.44836 88.6878C4.44836 88.2594 4.11879 87.8969 3.69036 87.8969C3.26193 87.8969 2.89941 88.2264 2.89941 88.6548Z" fill="#2E2A49"/>
<path d="M1.81189 87.6002C1.81189 88.0286 2.17441 88.3911 2.60284 88.3911C3.03127 88.3911 3.39379 88.0286 3.39379 87.6002C3.39379 87.1717 3.03127 86.8092 2.60284 86.8092C2.17441 86.8092 1.81189 87.1717 1.81189 87.6002Z" fill="#2E2A49"/>
<path d="M1.41638 86.1171C1.41638 86.5456 1.7789 86.9081 2.20733 86.8751C2.63576 86.8751 2.99828 86.5126 2.96532 86.0842C2.96532 85.6557 2.6028 85.3262 2.17437 85.3262C1.7789 85.3262 1.41638 85.6887 1.41638 86.1171Z" fill="#2E2A49"/>
<path d="M2.66867 87.732C3.55849 89.0832 5.37108 89.4787 6.72228 88.5889C8.07349 87.699 12.2919 83.3818 11.4021 82.0306C10.5122 80.6794 4.87674 82.7886 3.52553 83.6784C2.17433 84.5682 1.81181 86.3808 2.66867 87.732Z" fill="#1496DB"/>
<path d="M48.9721 59.5544C50.0267 61.4659 49.3676 63.8717 47.4561 64.9263C45.5447 65.9809 42.4468 66.2445 41.3922 64.3331C40.3376 62.4216 41.6888 59.093 43.6003 58.0055C45.4788 56.9509 47.9175 57.643 48.9721 59.5544Z" fill="#0076AA"/>
<path d="M7.08482 59.5544C5.99726 61.4659 6.68934 63.8717 8.6008 64.9592C10.5123 66.0138 13.6101 66.2775 14.6647 64.366C15.7193 62.4546 14.3681 59.126 12.4567 58.0384C10.5452 56.9838 8.13941 57.643 7.08482 59.5544Z" fill="#0076AA"/>
<path d="M46.5004 77.2189C46.5004 88.8525 39.6126 98.3109 27.979 98.3109C16.3455 98.3109 9.45764 88.8854 9.45764 77.2189C9.45764 65.5524 16.3455 56.127 27.979 56.127C39.6126 56.127 46.5004 65.5524 46.5004 77.2189Z" fill="#1496DB"/>
<path d="M35.9215 74.912C35.9215 77.8781 32.4282 79.46 28.078 79.46C23.7277 79.46 20.3333 77.911 20.3333 74.912C20.3333 72.8687 23.7937 75.1427 28.1439 75.1427C32.4941 75.1427 35.9215 72.8687 35.9215 74.912Z" fill="#1D1D1B" stroke="#F99BDA" stroke-width="0.988686" stroke-miterlimit="10"/>
<path d="M28.1109 79.0646C29.3632 79.0975 30.5826 78.9327 31.769 78.5373C30.9781 76.494 28.6711 75.5053 26.6279 76.2962C25.6062 76.6917 24.8153 77.5156 24.3868 78.5373C25.6062 78.9327 26.8586 79.0975 28.1109 79.0646Z" fill="#F7E38F"/>
<path d="M24.7163 67.5298C24.7163 69.9685 22.7389 71.9459 20.3002 71.913C17.8614 71.88 15.917 69.9685 15.917 67.5298C15.917 65.091 17.8944 63.1466 20.3331 63.1136C22.7719 63.1466 24.7163 65.124 24.7163 67.5298Z" fill="#1496DB"/>
<path d="M40.2717 67.6617C40.2717 70.1005 38.2943 72.0779 35.8556 72.0779C33.4168 72.0779 31.4395 70.1005 31.4395 67.6617C31.4395 65.223 33.4168 63.2456 35.8556 63.2456C38.2943 63.2786 40.2388 65.223 40.2717 67.6617Z" fill="#1496DB"/>
<path d="M33.4168 63.1137C33.4168 66.0468 31.0769 68.4196 28.1438 68.4526C25.2107 68.4526 22.8379 66.1127 22.8049 63.1796C22.7719 60.2465 25.1448 57.8737 28.0779 57.8407C28.0779 57.8407 28.0779 57.8407 28.1109 57.8407C31.044 57.8407 33.4168 60.1806 33.4168 63.1137Z" fill="#1496DB"/>
<path d="M24.1233 67.5298C24.1233 69.639 22.4095 71.3527 20.3003 71.3527C18.1911 71.3527 16.4774 69.639 16.4774 67.5298C16.4774 65.4206 18.2241 63.7399 20.3333 63.7399C22.4425 63.7399 24.1233 65.4536 24.1233 67.5298Z" fill="#1496DB"/>
<path d="M23.8926 67.5299C23.8926 69.5072 22.3107 71.0891 20.3333 71.0891C18.3559 71.0891 16.774 69.5072 16.774 67.5299C16.774 65.5525 18.3559 63.9706 20.3333 63.9706C22.3107 63.9706 23.8926 65.5854 23.8926 67.5299Z" fill="white"/>
<path d="M21.223 67.53C21.223 68.0243 20.8275 68.4198 20.3332 68.4198C19.8388 68.4198 19.4434 68.0243 19.4434 67.53C19.4434 67.0356 19.8388 66.6401 20.3332 66.6401C20.8275 66.6401 21.223 67.0356 21.223 67.53Z" fill="#2E2A49"/>
<path d="M39.6456 67.6617C39.6456 69.7709 37.9319 71.4846 35.8227 71.4846C33.7135 71.4846 31.9998 69.7709 31.9998 67.6617C31.9998 65.5525 33.7135 63.8387 35.8227 63.8387C37.9319 63.8717 39.6456 65.5525 39.6456 67.6617Z" fill="#1496DB"/>
<path d="M36.0203 71.2869C37.9861 71.2869 39.5796 69.6933 39.5796 67.7276C39.5796 65.7619 37.9861 64.1683 36.0203 64.1683C34.0546 64.1683 32.4611 65.7619 32.4611 67.7276C32.4611 69.6933 34.0546 71.2869 36.0203 71.2869Z" fill="white"/>
<path d="M36.7455 67.6617C36.7455 68.156 36.35 68.5515 35.8556 68.5515C35.3613 68.5515 34.9658 68.156 34.9658 67.6617C34.9658 67.1673 35.3613 66.7719 35.8556 66.7719C36.35 66.7719 36.7455 67.1673 36.7455 67.6617Z" fill="#2E2A49"/>
<path d="M32.8235 63.1137C32.8235 65.7173 30.7143 67.8265 28.0778 67.8265C25.4743 67.8265 23.3651 65.7173 23.3651 63.0808C23.3651 60.4772 25.4743 58.368 28.1108 58.368C30.7143 58.401 32.8235 60.5102 32.8235 63.1137Z" fill="#1496DB"/>
<path d="M32.527 63.1138C32.527 65.5525 30.5496 67.5299 28.1108 67.5299C25.6721 67.5299 23.6947 65.5525 23.6947 63.1138C23.6947 60.675 25.6721 58.6976 28.1108 58.6976C30.5166 58.6976 32.527 60.675 32.527 63.1138Z" fill="white"/>
<path d="M29.9235 63.0808C29.9235 64.1683 29.0666 65.0252 27.9791 65.0252C26.8915 65.0252 26.0347 64.1683 26.0347 63.0808C26.0347 61.9932 26.8915 61.1364 27.9791 61.1364C29.0666 61.1364 29.9235 61.9932 29.9235 63.0808Z" fill="#2E2A49"/>
<path opacity="0.3" d="M37.5257 69.49C38.2373 70.5874 39.1976 71.5016 40.3287 72.1584C41.4598 72.8151 42.7298 73.196 44.0357 73.27H75.2357C76.5392 73.1958 77.8072 72.8171 78.9378 72.1641C80.0684 71.5111 81.0301 70.602 81.7457 69.51L97.3457 42.5C97.9322 41.3351 98.2376 40.0491 98.2376 38.745C98.2376 37.4408 97.9322 36.1548 97.3457 34.99L81.7657 7.98998C81.0501 6.89793 80.0884 5.9889 78.9578 5.33589C77.8272 4.68289 76.5592 4.30411 75.2557 4.22998H44.0557C42.7516 4.30177 41.4827 4.67955 40.3518 5.33277C39.2208 5.98598 38.2595 6.89627 37.5457 7.98998L21.9357 34.99C21.3437 36.155 21.0352 37.4432 21.0352 38.75C21.0352 40.0567 21.3437 41.345 21.9357 42.51L37.5257 69.49Z" fill="#4B3457"/>
<path d="M35.4757 66.21C36.1895 67.3037 37.1508 68.214 38.2818 68.8672C39.4127 69.5204 40.6816 69.8982 41.9857 69.97H73.1757C74.4744 69.9049 75.7399 69.5363 76.8704 68.8938C78.001 68.2512 78.9652 67.3526 79.6857 66.27L95.3457 39.27C95.9352 38.1061 96.2424 36.8197 96.2424 35.515C96.2424 34.2103 95.9352 32.9239 95.3457 31.76L79.7557 4.76C79.0418 3.66629 78.0805 2.756 76.9496 2.10279C75.8186 1.44957 74.5498 1.07179 73.2457 1H42.0157C40.7119 1.06831 39.4428 1.44356 38.3115 2.09521C37.1802 2.74686 36.2189 3.65648 35.5057 4.75L19.8957 31.75C19.3068 32.9159 19 34.2038 19 35.51C19 36.8162 19.3068 38.1041 19.8957 39.27L35.4757 66.21Z" fill="url(#paint0_linear_354_3711)"/>
<path d="M38.7356 63.33C39.3732 64.3069 40.2309 65.1206 41.2399 65.7059C42.249 66.2911 43.3812 66.6316 44.5456 66.7H72.4256C73.5898 66.6351 74.7223 66.2971 75.7317 65.7134C76.741 65.1297 77.5988 64.3166 78.2356 63.34L92.1856 39.27C92.7129 38.2284 92.9876 37.0774 92.9876 35.91C92.9876 34.7426 92.7129 33.5916 92.1856 32.55L78.2656 8.36C77.6272 7.38259 76.7677 6.56915 75.7566 5.98544C74.7456 5.40174 73.6113 5.06416 72.4456 5H44.5756C43.4103 5.06572 42.2767 5.40397 41.2659 5.98753C40.2551 6.57109 39.3953 7.38369 38.7556 8.36L24.8056 32.47C24.2807 33.5123 24.0073 34.663 24.0073 35.83C24.0073 36.997 24.2807 38.1477 24.8056 39.19L38.7356 63.33Z" fill="#231D81"/>
<path d="M38.7456 60.78C39.3514 61.7132 40.1688 62.4903 41.1314 63.048C42.0941 63.6058 43.1748 63.9285 44.2856 63.99H70.8956C72.0064 63.9273 73.0871 63.6052 74.0509 63.0494C75.0147 62.4937 75.8349 61.7199 76.4456 60.79L89.7556 37.79C90.2583 36.7964 90.5202 35.6985 90.5202 34.585C90.5202 33.4715 90.2583 32.3736 89.7556 31.38L76.4656 8.37997C75.8599 7.44675 75.0425 6.66966 74.0799 6.11188C73.1172 5.5541 72.0365 5.23138 70.9256 5.16997L44.3456 5.08997C43.2313 5.14503 42.1455 5.46157 41.1761 6.01401C40.2068 6.56645 39.381 7.33927 38.7656 8.26997L25.4556 31.27C24.9553 32.2643 24.6947 33.3619 24.6947 34.475C24.6947 35.5881 24.9553 36.6857 25.4556 37.68L38.7456 60.78Z" fill="#5046B1"/>
<path d="M39.3457 58.63C39.9025 59.4841 40.6525 60.1953 41.535 60.706C42.4174 61.2168 43.4077 61.5127 44.4257 61.57H68.7957C69.814 61.513 70.8048 61.2183 71.6887 60.7095C72.5726 60.2007 73.325 59.492 73.8857 58.64L86.0757 37.54C86.5346 36.6297 86.7737 35.6244 86.7737 34.605C86.7737 33.5856 86.5346 32.5803 86.0757 31.67L73.9057 10.57C73.346 9.7186 72.5953 9.00952 71.7134 8.49914C70.8316 7.98877 69.8428 7.69117 68.8257 7.63H44.4557C43.4338 7.68312 42.4387 7.97603 41.551 8.48505C40.6632 8.99406 39.9078 9.70488 39.3457 10.56L27.1757 31.65C26.7145 32.5596 26.4741 33.5651 26.4741 34.585C26.4741 35.6049 26.7145 36.6104 27.1757 37.52L39.3457 58.63Z" fill="url(#paint1_linear_354_3711)"/>
<g style="mix-blend-mode:screen" opacity="0.7">
<path d="M46.3457 12.8C42.9957 11.2 38.5057 18.15 40.0357 20.8C41.7857 23.9 47.3457 17.27 47.4057 15.27C47.4557 13.91 47.0057 13.13 46.3457 12.8Z" fill="white"/>
</g>
<g style="mix-blend-mode:screen" opacity="0.7">
<path d="M38.4856 22.27C36.4856 23.17 36.3956 26.88 38.8956 26.05C41.1256 25.27 41.8356 20.71 38.4856 22.27Z" fill="white"/>
</g>
<path d="M52.072 38.272C52.072 37.488 52.128 36.704 52.184 36.032C53.64 35.584 55.712 35.416 56.496 35.416C64.336 35.416 65.344 38.664 65.344 41.128C65.344 44.712 62.488 46.952 59.296 46.952C54.816 46.952 52.072 43.704 52.072 38.272ZM57.896 29.312C55.824 29.312 54.424 29.536 53.696 29.704C55.376 24.944 60.248 20.912 66.52 20.912C67.136 20.912 68.536 21.024 68.592 21.024C68.648 21.024 68.704 20.856 68.704 20.688C68.704 19.68 68.48 16.6 67.248 14.976C67.136 14.864 66.24 14.864 66.24 14.864C51.288 14.864 44.68 27.856 44.68 37.768C44.68 42.584 46.92 53.28 58.96 53.28C65.064 53.28 72.624 49.64 72.624 40.232C72.624 33.848 67.248 29.312 57.896 29.312Z" fill="#F2F2F7"/>
<defs>
<linearGradient id="paint0_linear_354_3711" x1="26.6357" y1="18.98" x2="88.5557" y2="51.91" gradientUnits="userSpaceOnUse">
<stop stop-color="#FEFEFE"/>
<stop offset="0.31" stop-color="#FEFEFE" stop-opacity="0.99"/>
<stop offset="0.42" stop-color="#F6F7F8" stop-opacity="0.94"/>
<stop offset="0.64" stop-color="#E0E4E8" stop-opacity="0.83"/>
<stop offset="0.94" stop-color="#BEC5CF" stop-opacity="0.64"/>
<stop offset="1" stop-color="#B6BEC9" stop-opacity="0.6"/>
</linearGradient>
<linearGradient id="paint1_linear_354_3711" x1="35.0657" y1="15.19" x2="78.1857" y2="54.02" gradientUnits="userSpaceOnUse">
<stop stop-color="white" stop-opacity="0.96"/>
<stop offset="0.04" stop-color="#EBEBFB" stop-opacity="0.97"/>
<stop offset="0.13" stop-color="#C5C4F5" stop-opacity="0.98"/>
<stop offset="0.23" stop-color="#A5A4EF" stop-opacity="0.98"/>
<stop offset="0.33" stop-color="#8D8BEB" stop-opacity="0.99"/>
<stop offset="0.44" stop-color="#7C7AE7"/>
<stop offset="0.56" stop-color="#716FE6"/>
<stop offset="0.72" stop-color="#6E6CE5"/>
<stop offset="0.79" stop-color="#7674E6" stop-opacity="0.98"/>
<stop offset="0.85" stop-color="#8D8CEB" stop-opacity="0.94"/>
<stop offset="0.92" stop-color="#B5B4F2" stop-opacity="0.85"/>
<stop offset="0.98" stop-color="#EBEBFB" stop-opacity="0.74"/>
<stop offset="1" stop-color="white" stop-opacity="0.7"/>
</linearGradient>
</defs>
</svg>
