<svg width="100" height="100" viewBox="0 0 100 100" fill="none" xmlns="http://www.w3.org/2000/svg">
<path d="M13.4967 26.9234C12.8916 26.9234 3.39037 26.8024 1.48408 35.9102C-0.422208 45.018 3.90477 48.1347 6.41623 45.5627C8.92769 42.9907 7.5358 29.2533 13.5573 29.8282C19.5787 30.4032 16.6739 26.9234 13.4967 26.9234Z" fill="#FD5644"/>
<path d="M46.3576 29.102C46.9628 29.1928 56.3127 30.857 59.6714 22.203C63.0301 13.5491 59.3083 9.73649 56.3732 11.8546C53.4381 13.9727 52.5909 27.7706 46.751 26.2274C40.9111 24.6842 43.2107 28.5876 46.3576 29.102Z" fill="#FD5644"/>
<path d="M29.5339 1.38525C23.1796 1.38525 6.90047 1.38525 10.471 26.0762C14.0415 50.7672 21.2733 56.2138 23.3309 54.1865C25.3885 52.1591 21.6364 45.7746 23.2401 46.1377C26.9619 46.9849 27.9604 47.1967 29.5641 47.1967C31.1678 47.1967 32.1664 46.9849 35.8882 46.1377C37.4919 45.7746 33.7701 52.1591 35.7974 54.1865C37.8247 56.2138 45.0868 50.7672 48.627 26.0762C52.1673 1.38525 35.9184 1.38525 29.5339 1.38525Z" fill="#FD5644"/>
<path d="M29.5336 1.38513C23.4819 1.38513 8.41311 1.38513 10.0773 22.7779C10.4102 23.2621 10.9246 23.6857 11.2272 22.7174C11.5903 21.5373 10.8943 13.1557 12.5283 15.5461C15.1608 19.3285 16.4921 21.0532 16.3106 16.817C16.0988 11.5823 16.4921 5.62133 19.5483 12.0664C20.6376 14.3661 22.9372 17.5735 22.4531 11.5823C22.09 6.92245 22.8767 3.95711 25.2369 8.13279C27.597 12.3085 28.8679 14.7292 29.5033 8.28409C30.048 2.65599 32.862 4.28996 33.0738 8.04202C33.3159 12.8229 34.6473 15.2738 36.1602 11.7033C37.6731 8.13279 40.578 4.1084 39.4584 12.7624C38.4599 20.4178 40.9713 18.3299 42.0304 15.0317C42.7566 12.7624 44.7537 11.9756 44.1787 16.8775C43.6038 21.7794 45.268 23.2016 46.1758 20.3875C48.2031 14.003 47.6282 21.961 48.536 22.0517C48.7478 22.0517 48.9596 21.9307 49.0504 21.7491C50.1699 1.41539 35.4945 1.38513 29.5336 1.38513Z" fill="#C2003D"/>
<path d="M37.4918 24.6241C37.4918 29.0116 33.9213 32.5821 29.5338 32.5821C25.1463 32.5821 21.5758 29.0116 21.5758 24.6241C21.5758 20.2366 25.1463 16.6661 29.5338 16.6661C33.9213 16.6661 37.4918 20.2366 37.4918 24.6241Z" fill="#EA3232"/>
<path d="M36.4025 24.6236C36.4025 28.4059 33.3162 31.4923 29.5338 31.462C25.7515 31.462 22.6652 28.3756 22.6954 24.5933C22.6954 20.811 25.7818 17.7549 29.5641 17.7549C33.3464 17.7549 36.4025 20.8413 36.4025 24.6236Z" fill="#F9F9F9"/>
<path d="M31.3493 24.6239C31.3493 25.6224 30.5323 26.4394 29.5338 26.4394C28.5352 26.4394 27.7183 25.6224 27.7183 24.6239C27.7183 23.6253 28.5352 22.8083 29.5338 22.8083C30.5323 22.8083 31.3493 23.6253 31.3493 24.6239Z" fill="#2C003D"/>
<path d="M38.914 35.063C36.7656 35.6379 22.302 35.6379 20.1537 35.063C17.7935 34.4276 17.3699 35.5472 17.3094 36.3036C17.2186 37.6955 18.792 38.5125 22.06 38.452C24.8135 38.4217 34.3147 38.4217 37.0682 38.452C40.3059 38.5125 41.8793 37.6955 41.7886 36.3036C41.728 35.5774 41.3044 34.4276 38.914 35.063Z" fill="black" stroke="#FFA38A" stroke-width="3.14159" stroke-miterlimit="10"/>
<path d="M37.522 34.609L37.8851 31.7042C37.9153 31.6134 37.9759 31.5529 38.0666 31.5832C38.1271 31.5832 38.1574 31.6437 38.1877 31.674L39.0349 34.488L40.094 37.998C40.094 38.0888 39.4283 38.2401 38.581 38.3006C37.7338 38.3611 37.0378 38.3611 37.0378 38.2401L37.522 34.609Z" fill="#F2F2F2"/>
<path d="M21.5758 34.6093L21.2127 31.7045C21.1824 31.6137 21.1219 31.5532 21.0311 31.5834C20.9706 31.5834 20.9403 31.644 20.9101 31.6742L20.0628 34.4883L19.0038 37.9982C19.0038 38.089 19.6695 38.2403 20.5167 38.3008C21.364 38.3614 22.0599 38.3614 22.0599 38.2403L21.5758 34.6093Z" fill="#F2F2F2"/>
<path d="M19.7601 26.288C19.7601 27.9522 18.3985 29.2836 16.7645 29.2836C15.1003 29.2836 13.7689 27.9219 13.7689 26.288C13.7689 24.6237 15.1003 23.2924 16.7645 23.2924C18.3985 23.2924 19.7601 24.6237 19.7601 26.288Z" fill="#FF847B"/>
<path d="M45.3287 26.2881C45.3287 27.9523 43.9973 29.2837 42.3331 29.2837C40.6689 29.2837 39.3375 27.9523 39.3375 26.2881C39.3375 24.6239 40.6689 23.2925 42.3331 23.2925C43.9973 23.2925 45.3287 24.6239 45.3287 26.2881Z" fill="#FF847B"/>
<path d="M29.5338 39.7532C25.7817 39.7532 22.7256 41.5989 22.7256 45.0787C22.7256 45.472 22.7558 45.8957 22.8466 46.289C22.9071 46.1377 23.0282 46.047 23.24 46.1075C26.9618 46.9547 27.9603 47.1665 29.564 47.1665C31.1677 47.1665 32.1663 46.9547 35.8881 46.1075C36.0696 46.0772 36.1906 46.1075 36.2512 46.2588C36.3419 45.8654 36.3722 45.472 36.3722 45.0787C36.3419 41.5989 33.3161 39.7532 29.5338 39.7532Z" fill="#FFA57D"/>
<path opacity="0.3" d="M37.5257 94.49C38.2373 95.5874 39.1976 96.5016 40.3287 97.1584C41.4598 97.8151 42.7298 98.196 44.0357 98.27H75.2357C76.5392 98.1958 77.8072 97.8171 78.9378 97.1641C80.0684 96.5111 81.0301 95.602 81.7457 94.51L97.3457 67.5C97.9322 66.3351 98.2376 65.0491 98.2376 63.745C98.2376 62.4408 97.9322 61.1548 97.3457 59.99L81.7657 32.99C81.0501 31.8979 80.0884 30.9889 78.9578 30.3359C77.8272 29.6829 76.5592 29.3041 75.2557 29.23H44.0557C42.7516 29.3018 41.4827 29.6796 40.3518 30.3328C39.2208 30.986 38.2595 31.8963 37.5457 32.99L21.9357 59.99C21.3437 61.155 21.0352 62.4432 21.0352 63.75C21.0352 65.0567 21.3437 66.345 21.9357 67.51L37.5257 94.49Z" fill="#4B3457"/>
<path d="M35.4757 91.21C36.1895 92.3037 37.1508 93.214 38.2818 93.8672C39.4127 94.5204 40.6816 94.8982 41.9857 94.97H73.1757C74.4744 94.9049 75.7399 94.5363 76.8704 93.8938C78.001 93.2512 78.9652 92.3526 79.6857 91.27L95.3457 64.27C95.9352 63.1061 96.2424 61.8197 96.2424 60.515C96.2424 59.2103 95.9352 57.9239 95.3457 56.76L79.7557 29.76C79.0418 28.6663 78.0805 27.756 76.9496 27.1028C75.8186 26.4496 74.5498 26.0718 73.2457 26H42.0157C40.7119 26.0683 39.4428 26.4436 38.3115 27.0952C37.1802 27.7469 36.2189 28.6565 35.5057 29.75L19.8957 56.75C19.3068 57.9159 19 59.2038 19 60.51C19 61.8162 19.3068 63.1041 19.8957 64.27L35.4757 91.21Z" fill="url(#paint0_linear_354_3707)"/>
<path d="M38.7356 88.33C39.3732 89.3069 40.2309 90.1206 41.2399 90.7059C42.249 91.2911 43.3812 91.6316 44.5456 91.7H72.4256C73.5898 91.6351 74.7223 91.2971 75.7317 90.7134C76.741 90.1297 77.5988 89.3166 78.2356 88.34L92.1856 64.27C92.7129 63.2284 92.9876 62.0774 92.9876 60.91C92.9876 59.7426 92.7129 58.5916 92.1856 57.55L78.2656 33.36C77.6272 32.3826 76.7677 31.5691 75.7566 30.9854C74.7456 30.4017 73.6113 30.0642 72.4456 30H44.5756C43.4103 30.0657 42.2767 30.404 41.2659 30.9875C40.2551 31.5711 39.3953 32.3837 38.7556 33.36L24.8056 57.47C24.2807 58.5123 24.0073 59.663 24.0073 60.83C24.0073 61.997 24.2807 63.1477 24.8056 64.19L38.7356 88.33Z" fill="#231D81"/>
<path d="M38.7456 85.78C39.3514 86.7132 40.1688 87.4903 41.1314 88.048C42.0941 88.6058 43.1748 88.9285 44.2856 88.99H70.8956C72.0064 88.9273 73.0871 88.6052 74.0509 88.0494C75.0147 87.4937 75.8349 86.7199 76.4456 85.79L89.7556 62.79C90.2583 61.7964 90.5202 60.6985 90.5202 59.585C90.5202 58.4715 90.2583 57.3736 89.7556 56.38L76.4656 33.38C75.8599 32.4467 75.0425 31.6697 74.0799 31.1119C73.1172 30.5541 72.0365 30.2314 70.9256 30.17L44.3456 30.09C43.2313 30.145 42.1455 30.4616 41.1761 31.014C40.2068 31.5664 39.381 32.3393 38.7656 33.27L25.4556 56.27C24.9553 57.2643 24.6947 58.3619 24.6947 59.475C24.6947 60.5881 24.9553 61.6857 25.4556 62.68L38.7456 85.78Z" fill="#5046B1"/>
<path d="M39.3457 83.63C39.9025 84.4841 40.6525 85.1953 41.535 85.706C42.4174 86.2168 43.4077 86.5127 44.4257 86.57H68.7957C69.814 86.513 70.8048 86.2183 71.6887 85.7095C72.5726 85.2007 73.325 84.492 73.8857 83.64L86.0757 62.54C86.5346 61.6297 86.7737 60.6244 86.7737 59.605C86.7737 58.5856 86.5346 57.5803 86.0757 56.67L73.9057 35.57C73.346 34.7186 72.5953 34.0095 71.7134 33.4991C70.8316 32.9888 69.8428 32.6912 68.8257 32.63H44.4557C43.4338 32.6831 42.4387 32.976 41.551 33.485C40.6632 33.9941 39.9078 34.7049 39.3457 35.56L27.1757 56.65C26.7145 57.5596 26.4741 58.5651 26.4741 59.585C26.4741 60.6049 26.7145 61.6104 27.1757 62.52L39.3457 83.63Z" fill="url(#paint1_linear_354_3707)"/>
<g style="mix-blend-mode:screen" opacity="0.7">
<path d="M46.3457 37.8C42.9957 36.2 38.5057 43.15 40.0357 45.8C41.7857 48.9 47.3457 42.27 47.4057 40.27C47.4557 38.91 47.0057 38.13 46.3457 37.8Z" fill="white"/>
</g>
<g style="mix-blend-mode:screen" opacity="0.7">
<path d="M38.4856 47.27C36.4856 48.17 36.3956 51.88 38.8956 51.05C41.1256 50.27 41.8356 45.71 38.4856 47.27Z" fill="white"/>
</g>
<path d="M62.424 78.448C66.008 78.448 69.76 78.168 70.04 77.888C71.104 76.824 71.832 72.848 71.832 71.168C71.832 71.056 71.72 71.056 71.664 71.056C69.368 71.784 63.544 72.232 58.784 72.232C57.16 72.232 55.872 72.064 55.76 72.008C55.536 71.952 55.592 71.84 55.592 71.84L57.16 70.104C62.424 64.392 71.44 54.536 71.44 49.048C71.44 44.456 67.184 40.76 58.28 40.76C52.96 40.76 47.192 42.328 46.744 42.72C46.52 42.944 46.128 48.376 46.128 51.288C46.128 52.296 46.184 53.024 46.296 53.136C46.688 53.528 49.04 53.976 50.272 53.976C50.608 53.976 50.832 53.976 50.944 53.864C51.336 51.568 52.288 46.304 58.336 46.304C60.688 46.304 63.6 46.92 63.6 49.832C63.6 54.928 49.544 68.704 46.128 72.008C45.848 72.4 45.68 74.248 45.68 75.872C45.68 77.048 45.736 78.112 45.96 78.28C46.52 78.28 48.144 78.056 52.288 78.056C55.032 78.056 60.576 78.448 62.424 78.448Z" fill="#F2F2F7"/>
<defs>
<linearGradient id="paint0_linear_354_3707" x1="26.6357" y1="43.98" x2="88.5557" y2="76.91" gradientUnits="userSpaceOnUse">
<stop stop-color="#FEFEFE"/>
<stop offset="0.31" stop-color="#FEFEFE" stop-opacity="0.99"/>
<stop offset="0.42" stop-color="#F6F7F8" stop-opacity="0.94"/>
<stop offset="0.64" stop-color="#E0E4E8" stop-opacity="0.83"/>
<stop offset="0.94" stop-color="#BEC5CF" stop-opacity="0.64"/>
<stop offset="1" stop-color="#B6BEC9" stop-opacity="0.6"/>
</linearGradient>
<linearGradient id="paint1_linear_354_3707" x1="35.0657" y1="40.19" x2="78.1857" y2="79.02" gradientUnits="userSpaceOnUse">
<stop stop-color="white" stop-opacity="0.96"/>
<stop offset="0.04" stop-color="#EBEBFB" stop-opacity="0.97"/>
<stop offset="0.13" stop-color="#C5C4F5" stop-opacity="0.98"/>
<stop offset="0.23" stop-color="#A5A4EF" stop-opacity="0.98"/>
<stop offset="0.33" stop-color="#8D8BEB" stop-opacity="0.99"/>
<stop offset="0.44" stop-color="#7C7AE7"/>
<stop offset="0.56" stop-color="#716FE6"/>
<stop offset="0.72" stop-color="#6E6CE5"/>
<stop offset="0.79" stop-color="#7674E6" stop-opacity="0.98"/>
<stop offset="0.85" stop-color="#8D8CEB" stop-opacity="0.94"/>
<stop offset="0.92" stop-color="#B5B4F2" stop-opacity="0.85"/>
<stop offset="0.98" stop-color="#EBEBFB" stop-opacity="0.74"/>
<stop offset="1" stop-color="white" stop-opacity="0.7"/>
</linearGradient>
</defs>
</svg>
