<svg width="100" height="100" viewBox="0 0 100 100" fill="none" xmlns="http://www.w3.org/2000/svg">
<path d="M32.1968 70.5817C34.399 80.068 43.6311 77.8376 44.9581 72.2757C46.0874 67.5608 49.1083 63.3823 48.3461 68.549C47.5838 73.7156 39.6221 83.1172 32.592 75.3249L32.1968 70.5817Z" fill="#8B33A0"/>
<g opacity="0.5">
<path d="M32.8461 71.7111C32.592 71.344 32.3944 70.977 32.1968 70.61L32.592 75.3531C32.7897 75.579 32.9873 75.8049 33.2132 75.9743L32.8461 71.7111Z" fill="#D576EA"/>
</g>
<path d="M6.19411 72.5864C3.39904 77.8942 -0.948839 85.263 2.80615 90.2885C4.0484 91.9543 3.06025 81.5645 3.06025 81.5645L6.19411 72.5864Z" fill="#8B33A0"/>
<path d="M38.8032 84.6702C39.3114 80.04 37.0246 73.5746 35.4717 69.3397C34.3989 66.714 33.5237 64.1448 33.2413 61.6038C32.3943 54.1503 23.9244 53.2186 21.2988 53.2186C18.8425 53.2186 9.9491 54.1221 9.3562 61.6038C9.18681 63.5519 8.73508 65.4718 8.02925 67.3069C6.64583 71.1748 3.34257 79.2212 3.93547 84.7267C4.35896 88.7358 6.22234 90.5144 6.7023 90.9097L6.81523 90.9944C8.56568 92.406 9.7797 93.5636 9.6103 94.947C9.3562 96.9516 5.57298 96.2457 5.57298 97.6009C5.57298 98.9561 15.9345 99.3796 15.7933 97.6009C15.7369 96.8951 15.6522 95.9069 15.6522 94.947C15.6522 94.8341 15.9345 93.0836 21.2988 93.0836C26.7195 93.0836 27.0301 94.8623 27.0583 94.947C27.0583 95.9069 26.9736 96.8669 26.9171 97.6009C26.776 99.3796 37.1375 98.9279 37.1375 97.6009C37.1375 96.274 33.3543 96.9516 33.1002 94.947C32.9308 93.5354 34.2012 92.3213 36.0082 90.8815L35.9235 90.9097C35.8952 90.9097 38.3233 89.2722 38.8032 84.6702Z" fill="#D576EA"/>
<path d="M21.2988 53.2186C18.8425 53.2186 9.94911 54.1221 9.35621 61.6038C9.18682 63.326 8.81979 65.0483 8.25513 66.6858C9.86441 65.5565 11.5302 64.5965 12.7442 64.3424C17.1485 63.4672 15.6804 71.0619 19.4354 71.0619C24.5738 71.0619 23.4727 62.9308 26.0419 62.6485C28.47 62.3661 27.3124 69.142 30.2769 69.7067C33.2413 70.2714 31.1239 63.9754 32.6767 63.6648C33.1002 63.5801 33.439 63.806 33.7213 64.1448C33.4954 63.2978 33.3543 62.4508 33.2413 61.6038C32.3943 54.1221 23.9527 53.2186 21.2988 53.2186Z" fill="#8F3DA3"/>
<path d="M24.0656 59.7121C23.9527 59.2886 24.2068 58.8933 24.6303 58.7804C25.0538 58.6674 25.4491 58.9215 25.562 59.345C25.6749 59.7685 25.4208 60.1638 24.9973 60.2767C24.5738 60.3897 24.1786 60.1356 24.0656 59.7121Z" fill="#422649"/>
<path d="M26.6914 58.5829C26.6067 58.2159 26.8325 57.8488 27.1996 57.7924C27.5666 57.7359 27.9336 57.9335 27.9901 58.3006C28.0748 58.6676 27.8489 59.0346 27.4819 59.0911C27.1431 59.1758 26.7761 58.9499 26.6914 58.5829Z" fill="#422649"/>
<path d="M16.0475 63.0154C15.9628 62.5919 16.2169 62.1966 16.6404 62.1119C17.0639 62.0272 17.4591 62.2813 17.5438 62.7048C17.6285 63.1283 17.3744 63.5236 16.9509 63.6083C16.5557 63.693 16.1322 63.4389 16.0475 63.0154Z" fill="#422649"/>
<path d="M13.7606 61.1239C13.7606 61.378 13.5629 61.6038 13.2806 61.6038C13.0265 61.6038 12.8007 61.4062 12.8007 61.1239C12.8007 60.8698 12.9983 60.6439 13.2806 60.6439C13.5629 60.6722 13.7606 60.8698 13.7606 61.1239Z" fill="#422649"/>
<path d="M21.3553 89.3569C18.1932 89.3569 15.6522 91.7003 15.6522 94.6083C15.6522 94.7212 15.6522 94.8059 15.6805 94.9188C15.7934 94.5518 16.4992 93.1402 21.3271 93.1402C26.2114 93.1402 26.9454 94.58 27.0584 94.9188C27.0584 94.8059 27.0866 94.693 27.0866 94.6083C27.0584 91.7003 24.5174 89.3569 21.3553 89.3569Z" fill="#8F3DA3"/>
<path d="M10.6267 80.2376C10.6267 80.2376 24.6867 81.1411 31.9709 79.5883C31.9709 79.5883 32.1967 87.4088 21.6658 88.1146C11.1349 88.8205 10.6267 80.2376 10.6267 80.2376Z" fill="#422649" stroke="#FFD664" stroke-width="0.84699" stroke-miterlimit="10"/>
<path d="M20.339 74.0263C20.339 76.6802 18.1933 78.8259 15.5394 78.8259C12.8855 78.8259 10.7397 76.6802 10.7397 74.0263C10.7397 71.3724 12.8855 69.2267 15.5394 69.2267C18.1933 69.2267 20.339 71.3724 20.339 74.0263Z" fill="#F9F9F9"/>
<path d="M16.951 74.0263C16.951 74.8168 16.3017 75.438 15.5111 75.438C14.7206 75.438 14.0995 74.7886 14.0995 73.9981C14.0995 73.2076 14.7488 72.5864 15.5394 72.5864C16.3017 72.5864 16.951 73.2358 16.951 74.0263Z" fill="#223738"/>
<path d="M32.1967 74.0263C32.1967 76.3979 30.2768 78.346 27.877 78.346C25.5054 78.346 23.5574 76.4261 23.5574 74.0263C23.5574 71.6265 25.4772 69.7067 27.877 69.7067C30.2486 69.7067 32.1967 71.6265 32.1967 74.0263Z" fill="#F9F9F9"/>
<path d="M29.1476 74.0264C29.1476 74.7322 28.5829 75.2969 27.8489 75.2969C27.1148 75.2969 26.5784 74.7322 26.5784 73.9981C26.5784 73.2923 27.143 72.7277 27.8489 72.7277C28.5829 72.7277 29.1476 73.3206 29.1476 74.0264Z" fill="#223738"/>
<path d="M31.9991 79.5883C24.7149 81.1411 10.6549 80.2376 10.6549 80.2376C10.6831 80.6893 10.7678 81.1411 10.909 81.5646C11.5019 82.1292 12.4336 82.101 12.9982 81.5081C13.1112 81.3952 13.2241 81.2258 13.2806 81.0846C13.5911 81.8469 14.4664 82.1857 15.2287 81.8469C15.5675 81.7057 15.8498 81.4234 15.9909 81.0846C16.3015 81.8469 17.1767 82.1857 17.939 81.8469C18.2778 81.7057 18.5601 81.4234 18.7013 81.0846C19.0401 81.8469 19.8871 82.1857 20.6494 81.8469C20.9882 81.7057 21.2705 81.4234 21.4117 81.0846C21.7222 81.8469 22.5975 82.1857 23.3598 81.8469C23.6986 81.7057 23.9809 81.4234 24.1221 81.0846C24.4326 81.8469 25.3078 82.1857 26.0701 81.8469C26.4089 81.7057 26.6913 81.4234 26.8324 81.0846C27.143 81.8469 28.0182 82.1857 28.7805 81.8469C29.1193 81.7057 29.4016 81.4234 29.5428 81.0846C29.7687 81.621 30.3051 81.9881 30.898 81.9881C31.1521 81.9881 31.3779 81.9316 31.6038 81.7904C31.8579 81.0846 31.9708 80.3505 31.9991 79.5883Z" fill="white"/>
<path d="M14.3817 85.9407C16.0192 87.0135 18.3343 87.7193 21.6658 87.4935C24.2068 87.3241 26.1266 86.7312 27.5665 85.9407C26.4654 84.1902 23.9245 82.9762 20.96 82.9762C17.9955 82.9762 15.4828 84.1902 14.3817 85.9407Z" fill="#FD5644"/>
<path d="M29.0345 55.7878C30.5309 55.5337 34.8505 54.4043 35.4152 50C35.4152 50 37.5044 56.3524 31.7166 59.9098C29.091 60.1357 28.611 57.5947 28.5263 56.4089C28.4981 56.1266 28.7239 55.8442 29.0345 55.7878Z" fill="#8F3DA3"/>
<path d="M12.9419 55.7878C11.4455 55.5337 7.15411 54.4044 6.56122 50C6.56122 50 4.47198 56.3524 10.2597 59.9098C12.8854 60.1639 13.3654 57.6229 13.4501 56.4371C13.4783 56.1266 13.2524 55.8442 12.9419 55.7878Z" fill="#8F3DA3"/>
<path opacity="0.3" d="M37.5257 69.22C38.2373 70.3174 39.1976 71.2316 40.3287 71.8883C41.4598 72.5451 42.7298 72.9259 44.0357 73H75.2357C76.5392 72.9258 77.8072 72.5471 78.9378 71.8941C80.0684 71.2411 81.0301 70.332 81.7457 69.24L97.3457 42.23C97.9322 41.0651 98.2376 39.7791 98.2376 38.475C98.2376 37.1708 97.9322 35.8848 97.3457 34.72L81.7657 7.71996C81.0501 6.62791 80.0884 5.71888 78.9578 5.06588C77.8272 4.41287 76.5592 4.0341 75.2557 3.95996H44.0557C42.7516 4.03175 41.4827 4.40953 40.3518 5.06275C39.2208 5.71596 38.2595 6.62625 37.5457 7.71996L21.9357 34.72C21.3437 35.8849 21.0352 37.1732 21.0352 38.48C21.0352 39.7867 21.3437 41.075 21.9357 42.24L37.5257 69.22Z" fill="#4B3457"/>
<path d="M35.4757 65.94C36.1895 67.0337 37.1508 67.944 38.2818 68.5972C39.4127 69.2504 40.6816 69.6282 41.9857 69.7H73.1757C74.4744 69.6349 75.7399 69.2663 76.8704 68.6237C78.001 67.9812 78.9652 67.0826 79.6857 66L95.3457 39C95.9352 37.8361 96.2424 36.5497 96.2424 35.245C96.2424 33.9403 95.9352 32.6539 95.3457 31.49L79.7557 4.48998C79.0418 3.39627 78.0805 2.48598 76.9496 1.83277C75.8186 1.17955 74.5498 0.801767 73.2457 0.72998H42.0157C40.7119 0.798286 39.4428 1.17354 38.3115 1.82519C37.1802 2.47684 36.2189 3.38646 35.5057 4.47998L19.8957 31.48C19.3068 32.6459 19 33.9338 19 35.24C19 36.5462 19.3068 37.8341 19.8957 39L35.4757 65.94Z" fill="url(#paint0_linear_354_3709)"/>
<path d="M38.7356 63.06C39.3732 64.0368 40.2309 64.8506 41.2399 65.4358C42.249 66.0211 43.3812 66.3616 44.5456 66.43H72.4256C73.5898 66.3651 74.7223 66.0271 75.7317 65.4434C76.741 64.8597 77.5988 64.0466 78.2356 63.07L92.1856 39C92.7129 37.9584 92.9876 36.8074 92.9876 35.64C92.9876 34.4726 92.7129 33.3216 92.1856 32.28L78.2656 8.08998C77.6272 7.11257 76.7677 6.29913 75.7566 5.71542C74.7456 5.13172 73.6113 4.79414 72.4456 4.72998H44.5756C43.4103 4.7957 42.2767 5.13395 41.2659 5.71751C40.2551 6.30107 39.3953 7.11367 38.7556 8.08998L24.8056 32.2C24.2807 33.2422 24.0073 34.393 24.0073 35.56C24.0073 36.727 24.2807 37.8777 24.8056 38.92L38.7356 63.06Z" fill="#231D81"/>
<path d="M38.7456 60.5099C39.3514 61.4432 40.1688 62.2203 41.1314 62.778C42.0941 63.3358 43.1748 63.6585 44.2856 63.7199H70.8956C72.0064 63.6573 73.0871 63.3351 74.0509 62.7794C75.0147 62.2237 75.8349 61.4499 76.4456 60.5199L89.7556 37.5199C90.2583 36.5263 90.5202 35.4284 90.5202 34.3149C90.5202 33.2014 90.2583 32.1035 89.7556 31.1099L76.4656 8.10995C75.8599 7.17673 75.0425 6.39964 74.0799 5.84186C73.1172 5.28408 72.0365 4.96136 70.9256 4.89995L44.3456 4.81995C43.2313 4.87501 42.1455 5.19156 41.1761 5.74399C40.2068 6.29643 39.381 7.06925 38.7656 7.99995L25.4556 30.9999C24.9553 31.9942 24.6947 33.0919 24.6947 34.2049C24.6947 35.318 24.9553 36.4157 25.4556 37.4099L38.7456 60.5099Z" fill="#5046B1"/>
<path d="M39.3457 58.36C39.9025 59.2141 40.6525 59.9253 41.535 60.436C42.4174 60.9468 43.4077 61.2427 44.4257 61.3H68.7957C69.814 61.243 70.8048 60.9483 71.6887 60.4395C72.5726 59.9307 73.325 59.2219 73.8857 58.37L86.0757 37.27C86.5346 36.3597 86.7737 35.3544 86.7737 34.335C86.7737 33.3155 86.5346 32.3103 86.0757 31.4L73.9057 10.3C73.346 9.44858 72.5953 8.7395 71.7134 8.22912C70.8316 7.71875 69.8428 7.42115 68.8257 7.35999H44.4557C43.4338 7.4131 42.4387 7.70601 41.551 8.21503C40.6632 8.72404 39.9078 9.43486 39.3457 10.29L27.1757 31.38C26.7145 32.2896 26.4741 33.2951 26.4741 34.315C26.4741 35.3349 26.7145 36.3404 27.1757 37.25L39.3457 58.36Z" fill="url(#paint1_linear_354_3709)"/>
<g style="mix-blend-mode:screen" opacity="0.7">
<path d="M46.3457 12.53C42.9957 10.93 38.5057 17.88 40.0357 20.53C41.7857 23.63 47.3457 17 47.4057 15C47.4557 13.64 47.0057 12.86 46.3457 12.53Z" fill="white"/>
</g>
<g style="mix-blend-mode:screen" opacity="0.7">
<path d="M38.4856 22C36.4856 22.9 36.3956 26.61 38.8956 25.78C41.1256 25 41.8356 20.44 38.4856 22Z" fill="white"/>
</g>
<path d="M69.2257 43.04C70.4577 42.984 71.1297 42.928 71.1857 42.872C71.4657 42.592 73.2577 39.624 73.2577 37.16C73.2577 36.824 72.9777 36.936 72.9777 36.936C71.9697 37.104 70.7377 37.104 69.1697 37.104V34.976C69.1697 26.352 69.4497 17.896 69.4497 17.896C69.4497 17.168 64.4097 17.056 64.4097 17.056C64.4097 16.832 66.7057 13.976 67.8817 12.632C67.9377 12.576 67.9377 12.52 67.9377 12.464C67.9377 12.072 66.2577 11.96 65.9777 11.96C62.6177 11.96 60.6577 12.632 60.4897 12.8C55.7857 18.008 43.4657 36.6 43.4657 38.616C43.4657 38.616 43.5777 41.976 44.7537 43.152C44.9217 43.32 47.8337 43.376 51.3057 43.376C55.1697 43.376 59.6497 43.32 61.7777 43.208C61.6657 46.456 61.5537 49.2 61.5537 50.432C61.5537 52.448 61.6657 53.792 61.7777 53.96C61.7777 53.96 62.1697 54.128 63.2897 54.128C65.4737 54.128 69.8417 53.12 69.8417 52.336C69.4497 50.544 69.2257 44.888 69.2257 43.04ZM62.0017 37.216C60.7137 37.216 58.1937 37.272 55.9537 37.272C53.7137 37.272 51.8097 37.216 51.8097 36.992C51.8097 34.752 60.8817 21.816 61.8897 20.584C61.8897 20.584 62.1137 20.248 62.2257 20.248C62.3937 20.248 62.3937 21.984 62.3937 22.768C62.3937 25.96 62.2257 31.84 62.0017 37.216Z" fill="#F2F2F7"/>
<defs>
<linearGradient id="paint0_linear_354_3709" x1="26.6357" y1="18.71" x2="88.5557" y2="51.64" gradientUnits="userSpaceOnUse">
<stop stop-color="#FEFEFE"/>
<stop offset="0.31" stop-color="#FEFEFE" stop-opacity="0.99"/>
<stop offset="0.42" stop-color="#F6F7F8" stop-opacity="0.94"/>
<stop offset="0.64" stop-color="#E0E4E8" stop-opacity="0.83"/>
<stop offset="0.94" stop-color="#BEC5CF" stop-opacity="0.64"/>
<stop offset="1" stop-color="#B6BEC9" stop-opacity="0.6"/>
</linearGradient>
<linearGradient id="paint1_linear_354_3709" x1="35.0657" y1="14.92" x2="78.1857" y2="53.75" gradientUnits="userSpaceOnUse">
<stop stop-color="white" stop-opacity="0.96"/>
<stop offset="0.04" stop-color="#EBEBFB" stop-opacity="0.97"/>
<stop offset="0.13" stop-color="#C5C4F5" stop-opacity="0.98"/>
<stop offset="0.23" stop-color="#A5A4EF" stop-opacity="0.98"/>
<stop offset="0.33" stop-color="#8D8BEB" stop-opacity="0.99"/>
<stop offset="0.44" stop-color="#7C7AE7"/>
<stop offset="0.56" stop-color="#716FE6"/>
<stop offset="0.72" stop-color="#6E6CE5"/>
<stop offset="0.79" stop-color="#7674E6" stop-opacity="0.98"/>
<stop offset="0.85" stop-color="#8D8CEB" stop-opacity="0.94"/>
<stop offset="0.92" stop-color="#B5B4F2" stop-opacity="0.85"/>
<stop offset="0.98" stop-color="#EBEBFB" stop-opacity="0.74"/>
<stop offset="1" stop-color="white" stop-opacity="0.7"/>
</linearGradient>
</defs>
</svg>
