<svg width="100" height="100" viewBox="0 0 100 100" fill="none" xmlns="http://www.w3.org/2000/svg">
<path d="M60.9888 53.9812L61.2128 53.8599L61.0873 53.6382C51.158 36.1 49.9952 22.9928 53.126 14.2931C56.2539 5.60142 63.6835 1.25792 71.0824 1.25001C78.4808 1.2421 85.8527 5.569 88.8689 14.2543C91.8885 22.9493 90.5587 36.0649 80.4047 53.6363L80.2769 53.8575L80.5008 53.9805L81.9109 54.7551L78.4934 54.7315C78.4887 54.4785 78.4859 54.2317 78.483 53.9901C78.4564 51.7146 78.4353 49.9113 77.0113 47.8479L76.9143 47.7073L76.7481 47.7466C75.6258 48.0116 73.1924 48.1487 70.7294 48.1487C68.2664 48.1487 65.833 48.0116 64.7107 47.7466L64.5445 47.7073L64.4475 47.8479C63.0235 49.9113 63.0024 51.7146 62.9758 53.9901C62.973 54.2317 62.9701 54.4785 62.9654 54.7315L59.5603 54.755L60.9888 53.9812Z" fill="#F7DE28" stroke="#1C1C1E" stroke-width="0.5"/>
<path d="M81.8396 28.527C81.9679 29.1683 81.9999 29.8416 81.9999 30.5149C82.1602 36.6392 77.3186 41.7053 71.1943 41.8336C65.0701 41.9939 60.004 37.1522 59.8757 31.028C59.8757 30.8356 59.8757 30.6753 59.8757 30.4829C59.8757 29.8416 59.9399 29.1683 60.0361 28.527C63.3066 28.8156 66.9298 28.9759 70.7775 28.9759C74.7535 29.0079 78.4729 28.8476 81.8396 28.527Z" fill="black" stroke="#F9A267" stroke-width="1.6032" stroke-miterlimit="10"/>
<path d="M61.1583 29.521C62.4088 29.6172 63.7235 29.6813 65.0701 29.7454C64.9419 31.4128 64.1082 32.6633 63.1463 32.6633C62.0882 32.6953 61.2545 31.2845 61.1583 29.521ZM66.2565 29.8096C67.5391 29.8416 68.8216 29.8737 70.1363 29.8737C69.9759 31.4769 69.1743 32.6953 68.1804 32.6953C67.1864 32.6953 66.4168 31.4448 66.2565 29.8096ZM71.3547 29.8737C72.6693 29.8737 73.9839 29.8416 75.2344 29.8096C75.1062 31.4448 74.2725 32.6953 73.2785 32.6953C72.2846 32.6953 71.515 31.4769 71.3547 29.8737ZM76.4529 29.7454C77.7996 29.6813 79.1142 29.6172 80.3647 29.521C80.3006 31.2845 79.4348 32.6953 78.4088 32.6953C77.3827 32.6953 76.5811 31.4128 76.4529 29.7454Z" fill="white"/>
<path d="M77.0941 38.8196C73.3747 41.3206 68.5009 41.3206 64.7815 38.8196C66.1602 37.4088 68.4047 36.511 70.9378 36.511C73.4709 36.511 75.7474 37.4408 77.0941 38.8196Z" fill="#F48470"/>
<path d="M57.9519 21.2484C58.8176 21.2484 59.491 21.9538 59.491 22.7875C59.491 23.6532 58.7856 24.3266 57.9519 24.3266C57.1182 24.3266 56.4128 23.6212 56.4128 22.7875C56.4128 21.9218 57.0862 21.2484 57.9519 21.2484Z" fill="#F3971E"/>
<path d="M78.8896 22.3386C79.1462 21.537 80.0119 21.0561 80.8135 21.3126C81.6151 21.5691 82.096 22.4348 81.8395 23.2364C81.583 24.038 80.7173 24.519 79.9157 24.2625C79.082 24.006 78.6331 23.1402 78.8896 22.3386Z" fill="#F3971E"/>
<path d="M69.527 9.22449C73.2785 9.22449 76.3246 12.2706 76.3246 15.99C76.3246 19.7415 73.2785 22.7876 69.5591 22.7876C65.8076 22.7876 62.7615 19.7415 62.7615 16.0221C62.7294 12.2706 65.7755 9.22449 69.527 9.22449Z" fill="#F3971E"/>
<path d="M69.527 9.89783C72.8937 9.89783 75.6192 12.6233 75.6192 15.99C75.6192 19.3567 72.8937 22.0822 69.527 22.0822C66.1603 22.0822 63.4348 19.3567 63.4348 15.99C63.4348 12.6233 66.1603 9.89783 69.527 9.89783Z" fill="white"/>
<path d="M69.5271 12.5591C71.4188 12.5591 72.9579 14.0982 72.9579 15.9899C72.9579 17.8817 71.4188 19.4208 69.5271 19.4208C67.6353 19.4208 66.0962 17.8817 66.0962 15.9899C66.0641 14.0982 67.6032 12.5591 69.5271 12.5591Z" fill="black"/>
<path d="M54.7134 35.1322L53.1423 44.6873L50.1603 45.8095L50 50.2664L51.1864 46.6753L51.507 51.1322L52.8537 46.9318L53.1423 49.6252L54.2645 46.8035L54.1363 44.8155L56.2525 35.4208L54.7134 35.1322Z" fill="#DB7C27"/>
<path d="M57.9519 34.8116C57.8557 35.3888 56.7976 35.6773 55.5471 35.485C54.2966 35.2926 53.3667 34.6834 53.4629 34.1383C53.4629 34.1062 53.4629 34.0421 53.495 34.01C54.2324 34.3627 55.034 34.6192 55.8677 34.7475C56.541 34.8437 57.2465 34.8757 57.9519 34.8116Z" fill="#F9A626"/>
<path d="M87.3866 35.1322L88.9578 44.6873L91.9397 45.8095L92.1001 50.2664L90.9458 46.6753L90.6251 51.1322L89.2784 46.9318L88.9899 49.6252L87.8676 46.8035L87.9959 44.8155L85.8796 35.4208L87.3866 35.1322Z" fill="#DB7C27"/>
<path d="M84.1803 34.8116C84.2765 35.3888 85.3346 35.6773 86.5851 35.485C87.8356 35.2926 88.7655 34.6834 88.6693 34.1383C88.6693 34.1062 88.6372 34.0421 88.6372 34.01C87.8997 34.3627 87.0981 34.6192 86.2645 34.7475C85.5591 34.8437 84.8857 34.8757 84.1803 34.8116Z" fill="#FCB735"/>
<path opacity="0.3" d="M19.5257 95.49C20.2373 96.5874 21.1976 97.5016 22.3287 98.1584C23.4598 98.8151 24.7298 99.196 26.0357 99.27H57.2357C58.5392 99.1958 59.8072 98.8171 60.9378 98.1641C62.0684 97.5111 63.0301 96.602 63.7457 95.51L79.3457 68.5C79.9322 67.3351 80.2376 66.0491 80.2376 64.745C80.2376 63.4408 79.9322 62.1548 79.3457 60.99L63.7657 33.99C63.0501 32.8979 62.0884 31.9889 60.9578 31.3359C59.8272 30.6829 58.5592 30.3041 57.2557 30.23H26.0557C24.7516 30.3018 23.4827 30.6796 22.3518 31.3328C21.2208 31.986 20.2595 32.8963 19.5457 33.99L3.93567 60.99C3.3437 62.155 3.03516 63.4432 3.03516 64.75C3.03516 66.0567 3.3437 67.345 3.93567 68.51L19.5257 95.49Z" fill="#4B3457"/>
<path d="M17.4757 92.21C18.1895 93.3037 19.1508 94.214 20.2818 94.8672C21.4127 95.5204 22.6816 95.8982 23.9857 95.97H55.1757C56.4744 95.9049 57.7399 95.5363 58.8704 94.8938C60.001 94.2512 60.9652 93.3526 61.6857 92.27L77.3457 65.27C77.9352 64.1061 78.2424 62.8197 78.2424 61.515C78.2424 60.2103 77.9352 58.9239 77.3457 57.76L61.7557 30.76C61.0418 29.6663 60.0805 28.756 58.9496 28.1028C57.8186 27.4496 56.5498 27.0718 55.2457 27H24.0157C22.7119 27.0683 21.4428 27.4436 20.3115 28.0952C19.1802 28.7469 18.2189 29.6565 17.5057 30.75L1.89567 57.75C1.3068 58.9159 1 60.2038 1 61.51C1 62.8162 1.3068 64.1041 1.89567 65.27L17.4757 92.21Z" fill="url(#paint0_linear_354_3708)"/>
<path d="M20.7356 89.33C21.3732 90.3069 22.2309 91.1206 23.2399 91.7059C24.249 92.2911 25.3812 92.6316 26.5456 92.7H54.4256C55.5898 92.6351 56.7223 92.2971 57.7317 91.7134C58.741 91.1297 59.5988 90.3166 60.2356 89.34L74.1856 65.27C74.7129 64.2284 74.9876 63.0774 74.9876 61.91C74.9876 60.7426 74.7129 59.5916 74.1856 58.55L60.2656 34.36C59.6272 33.3826 58.7677 32.5691 57.7566 31.9854C56.7456 31.4017 55.6113 31.0642 54.4456 31H26.5756C25.4103 31.0657 24.2767 31.404 23.2659 31.9875C22.2551 32.5711 21.3953 33.3837 20.7556 34.36L6.80564 58.47C6.28074 59.5123 6.00732 60.663 6.00732 61.83C6.00732 62.997 6.28074 64.1477 6.80564 65.19L20.7356 89.33Z" fill="#231D81"/>
<path d="M20.7456 86.78C21.3514 87.7132 22.1688 88.4903 23.1314 89.048C24.0941 89.6058 25.1748 89.9285 26.2856 89.99H52.8956C54.0064 89.9273 55.0871 89.6052 56.0509 89.0494C57.0147 88.4937 57.8349 87.7199 58.4456 86.79L71.7556 63.79C72.2583 62.7964 72.5202 61.6985 72.5202 60.585C72.5202 59.4715 72.2583 58.3736 71.7556 57.38L58.4656 34.38C57.8599 33.4467 57.0425 32.6697 56.0799 32.1119C55.1172 31.5541 54.0365 31.2314 52.9256 31.17L26.3456 31.09C25.2313 31.145 24.1455 31.4616 23.1761 32.014C22.2068 32.5664 21.381 33.3393 20.7656 34.27L7.45565 57.27C6.9553 58.2643 6.6947 59.3619 6.6947 60.475C6.6947 61.5881 6.9553 62.6857 7.45565 63.68L20.7456 86.78Z" fill="#5046B1"/>
<path d="M21.3457 84.63C21.9025 85.4841 22.6525 86.1953 23.535 86.706C24.4174 87.2168 25.4077 87.5127 26.4257 87.57H50.7957C51.814 87.513 52.8048 87.2183 53.6887 86.7095C54.5726 86.2007 55.325 85.492 55.8857 84.64L68.0757 63.54C68.5346 62.6297 68.7737 61.6244 68.7737 60.605C68.7737 59.5856 68.5346 58.5803 68.0757 57.67L55.9057 36.57C55.346 35.7186 54.5953 35.0095 53.7134 34.4991C52.8316 33.9888 51.8428 33.6912 50.8257 33.63H26.4557C25.4338 33.6831 24.4387 33.976 23.551 34.485C22.6632 34.9941 21.9078 35.7049 21.3457 36.56L9.1757 57.65C8.71448 58.5596 8.47412 59.5651 8.47412 60.585C8.47412 61.6049 8.71448 62.6104 9.1757 63.52L21.3457 84.63Z" fill="url(#paint1_linear_354_3708)"/>
<g style="mix-blend-mode:screen" opacity="0.7">
<path d="M28.3457 38.8C24.9957 37.2 20.5057 44.15 22.0357 46.8C23.7857 49.9 29.3457 43.27 29.4057 41.27C29.4557 39.91 29.0057 39.13 28.3457 38.8Z" fill="white"/>
</g>
<g style="mix-blend-mode:screen" opacity="0.7">
<path d="M20.4856 48.27C18.4856 49.17 18.3956 52.88 20.8956 52.05C23.1256 51.27 23.8356 46.71 20.4856 48.27Z" fill="white"/>
</g>
<path d="M53.728 67.52C53.728 59.568 45.384 57.384 45.384 57.384C45.104 57.272 45.384 57.16 45.384 57.16C47.344 56.488 50.984 54.08 50.984 49.88C50.984 42.936 43.536 41.2 36.872 41.2C32.728 41.2 30.096 41.984 30.096 41.984C29.592 42.432 29.2 45.4 29.2 46.688C29.2 47.136 29.256 48.256 29.592 48.256C29.592 48.256 32.448 47.192 36.312 47.192C39.392 47.192 42.808 48.256 42.808 51C42.808 52.064 41.912 55.424 35.64 55.424C34.912 55.424 34.688 55.312 34.52 55.312C34.296 55.312 32.84 58.168 32.84 61.08C32.84 61.192 32.952 61.192 33.064 61.192C37.376 61.192 45.944 61.808 45.944 67.408C45.944 70.6 43.536 73.848 37.656 73.848C33.064 73.848 31.552 70.656 31.552 67.128C31.552 67.016 30.936 67.016 30.376 67.016C29.088 67.016 26.792 67.744 26.736 68.136C26.68 68.696 26.68 69.368 26.68 70.04C26.68 73.68 27.128 78.44 27.408 78.776C27.408 78.776 30.432 79.896 35.864 79.896C44.264 79.896 53.728 76.536 53.728 67.52Z" fill="#F2F2F7"/>
<defs>
<linearGradient id="paint0_linear_354_3708" x1="8.63567" y1="44.98" x2="70.5557" y2="77.91" gradientUnits="userSpaceOnUse">
<stop stop-color="#FEFEFE"/>
<stop offset="0.31" stop-color="#FEFEFE" stop-opacity="0.99"/>
<stop offset="0.42" stop-color="#F6F7F8" stop-opacity="0.94"/>
<stop offset="0.64" stop-color="#E0E4E8" stop-opacity="0.83"/>
<stop offset="0.94" stop-color="#BEC5CF" stop-opacity="0.64"/>
<stop offset="1" stop-color="#B6BEC9" stop-opacity="0.6"/>
</linearGradient>
<linearGradient id="paint1_linear_354_3708" x1="17.0657" y1="41.19" x2="60.1857" y2="80.02" gradientUnits="userSpaceOnUse">
<stop stop-color="white" stop-opacity="0.96"/>
<stop offset="0.04" stop-color="#EBEBFB" stop-opacity="0.97"/>
<stop offset="0.13" stop-color="#C5C4F5" stop-opacity="0.98"/>
<stop offset="0.23" stop-color="#A5A4EF" stop-opacity="0.98"/>
<stop offset="0.33" stop-color="#8D8BEB" stop-opacity="0.99"/>
<stop offset="0.44" stop-color="#7C7AE7"/>
<stop offset="0.56" stop-color="#716FE6"/>
<stop offset="0.72" stop-color="#6E6CE5"/>
<stop offset="0.79" stop-color="#7674E6" stop-opacity="0.98"/>
<stop offset="0.85" stop-color="#8D8CEB" stop-opacity="0.94"/>
<stop offset="0.92" stop-color="#B5B4F2" stop-opacity="0.85"/>
<stop offset="0.98" stop-color="#EBEBFB" stop-opacity="0.74"/>
<stop offset="1" stop-color="white" stop-opacity="0.7"/>
</linearGradient>
</defs>
</svg>
