<svg width="101" height="101" viewBox="0 0 101 101" fill="none" xmlns="http://www.w3.org/2000/svg">
<path d="M72.003 44.6371C72.003 44.6371 72.1606 54.9461 71.4986 55.7657C70.8366 56.5854 65.4456 55.7342 66.3283 58.0356C66.4229 58.3193 72.4444 58.6346 72.9488 56.8376C73.7369 54.1894 72.9488 44.6371 72.9488 44.6371H72.003V44.6371Z" fill="#8C1D7B"/>
<path d="M78.3713 44.7318C78.3713 44.7318 78.6866 55.0408 79.3801 55.7974C80.0737 56.554 85.5277 55.5137 84.7395 57.8466C84.645 58.1303 78.5605 58.7293 77.9615 56.9323C77.0472 54.3157 77.394 44.7633 77.394 44.7633L78.3713 44.7318Z" fill="#8C1D7B"/>
<path d="M95.1114 26.0053C94.5124 24.2399 94.8592 24.9019 95.7104 25.0596C96.5616 25.2172 94.5124 21.4026 95.1114 22.0646C95.7103 22.7267 95.9941 22.1907 95.3951 20.2992C93.5666 14.3723 86.7885 11.8187 81.6498 10.7468C77.5829 9.8956 73.4215 9.8956 69.3547 10.7468C64.2475 11.8502 57.4694 14.4038 55.6409 20.2992C55.0419 22.1907 55.2311 22.569 55.8301 21.9385C56.4291 21.308 54.7267 25.2172 55.5779 25.0596C56.4291 24.9019 56.5236 24.2399 55.9562 26.0053C55.3887 27.7708 54.8528 30.0091 55.767 29.1579C56.8389 28.1491 56.9335 28.9373 56.4606 30.2929C55.9877 31.6485 56.3975 36.5981 57.1541 35.337C57.9108 34.076 58.3837 35.4001 58.6359 36.8187C58.8881 38.2374 59.4555 41.2324 60.1176 40.0659C60.7796 38.8994 61.4732 41.0747 62.1037 42.1151C62.7342 43.1554 64.9411 44.8894 65.1302 44.1643C65.3194 43.4392 65.5085 43.2185 66.675 44.8579C67.8414 46.4972 68.6296 47.3799 69.5438 46.844C70.4581 46.308 70.3635 46.7494 71.7822 47.3169C73.2008 47.8843 75.5022 47.3169 75.5022 47.3169C75.5022 47.3169 77.8036 47.8843 79.2223 47.3169C80.641 46.7494 80.5149 46.308 81.4606 46.844C82.4064 47.3799 83.163 46.4972 84.3295 44.8579C85.496 43.2185 85.6851 43.4392 85.8743 44.1643C86.0634 44.8894 88.2702 43.1554 88.9008 42.1151C89.5313 41.0747 90.2564 38.8994 90.8869 40.0659C91.5174 41.2324 92.1164 38.2374 92.3686 36.8187C92.6208 35.4001 93.0622 34.1075 93.8503 35.337C94.6385 36.5665 95.0168 31.617 94.5439 30.2929C94.071 28.9688 94.3232 28.4644 95.6473 29.0634C96.9714 29.6624 95.7103 27.7708 95.1114 26.0053Z" fill="#1CB2C0"/>
<path d="M74.6198 23.6094C74.6198 26.163 72.5706 28.2122 70.017 28.2122C67.4634 28.2122 65.4142 26.163 65.4142 23.6094C65.4142 21.0558 67.4634 19.0066 70.017 19.0066C72.5706 19.0066 74.6198 21.0558 74.6198 23.6094Z" fill="#F9F9F9"/>
<path d="M69.7645 25.0597C70.5654 25.0597 71.2147 24.4104 71.2147 23.6095C71.2147 22.8086 70.5654 22.1593 69.7645 22.1593C68.9636 22.1593 68.3143 22.8086 68.3143 23.6095C68.3143 24.4104 68.9636 25.0597 69.7645 25.0597Z" fill="#223738"/>
<path d="M81.0825 28.023C83.0674 28.023 84.6764 26.4139 84.6764 24.429C84.6764 22.4442 83.0674 20.8351 81.0825 20.8351C79.0976 20.8351 77.4885 22.4442 77.4885 24.429C77.4885 26.4139 79.0976 28.023 81.0825 28.023Z" fill="#F9F9F9"/>
<path d="M82.1858 24.3975C82.1858 25.028 81.6813 25.5324 81.0508 25.5324C80.4203 25.5324 79.9159 25.028 79.9159 24.3975C79.9159 23.767 80.4203 23.2626 81.0508 23.2626C81.6813 23.2941 82.1858 23.7985 82.1858 24.3975Z" fill="#223738"/>
<path d="M82.6272 30.3245C80.3574 30.9865 78.0245 31.3649 75.66 31.4279C74.5566 31.4279 70.9627 31.1442 68.3145 30.2614C65.2249 29.2526 64.6259 33.1303 66.4544 34.7381C68.2829 36.3459 73.1379 37.071 75.5024 37.071C77.8668 37.071 82.5957 36.3775 84.6134 34.7381C86.568 33.2249 85.7168 29.3157 82.6272 30.3245Z" fill="black" stroke="#F3FF83" stroke-width="0.630518" stroke-miterlimit="10"/>
<path d="M66.7381 27.9916C66.7381 29.2211 65.0987 30.1984 63.0811 30.1984C61.0634 30.1984 59.4241 29.2211 59.4241 27.9916C59.4241 26.7621 61.0634 25.7848 63.0811 25.7848C65.0987 25.7848 66.7381 26.7936 66.7381 27.9916Z" fill="#8ED3D8"/>
<path d="M92.8416 27.0143C92.8416 28.2438 91.2023 29.2211 89.1846 29.2211C87.1669 29.2211 85.5276 28.2438 85.5276 27.0143C85.5276 25.7848 87.1669 24.8075 89.1846 24.8075C91.2023 24.8075 92.8416 25.7848 92.8416 27.0143Z" fill="#8ED3D8"/>
<path d="M58.0684 27.0773C58.0684 27.0773 53.5602 32.9727 53.2449 40.1291C53.0558 44.3851 53.5287 47.3485 53.371 47.6953C53.0873 48.2943 52.0785 49.776 52.6775 49.9967C53.3395 50.2489 53.9385 47.0963 54.2222 48.2943C54.506 49.4923 54.4114 50.1858 54.9158 50.0282C55.4833 49.8706 54.506 47.9475 54.9473 47.7583C55.3887 47.5692 55.8931 49.8075 56.429 49.3346C56.9019 48.9248 55.3887 47.5692 55.6409 47.4115C56.0823 47.1278 57.2172 47.8844 57.4694 47.5376C57.7216 47.1909 55.9877 47.0332 55.4833 46.4973C54.9788 45.9614 53.907 40.5389 54.8527 36.5982C55.7985 32.6574 58.6674 27.8024 58.5098 27.298C58.3521 26.7936 58.0684 27.0773 58.0684 27.0773Z" fill="#00626E"/>
<path d="M93.0309 27.0771C93.0309 27.0771 97.9174 32.6887 98.6425 39.7821C99.0839 44.0065 98.8001 47.0015 98.9893 47.3483C99.3045 47.9158 100.408 49.3344 99.8405 49.5866C99.1784 49.8704 98.3903 46.7493 98.2011 47.9788C98.012 49.2083 98.1381 49.8704 97.6337 49.7443C97.0662 49.6182 97.8859 47.6635 97.4445 47.4744C97.0032 47.2852 96.6248 49.5866 96.0574 49.1453C95.553 48.767 96.9716 47.3168 96.7194 47.1907C96.2781 46.9384 95.1747 47.7581 94.8909 47.4429C94.6072 47.1276 96.3411 46.8439 96.814 46.2764C97.2869 45.7089 98.0435 40.2234 96.814 36.3773C95.5845 32.5311 92.4634 27.8653 92.5895 27.3293C92.7156 26.7934 93.0309 27.0771 93.0309 27.0771Z" fill="#00626E"/>
<path d="M92.3686 1.79333L83.7936 12.6383C83.7621 12.6698 83.699 12.7328 83.699 12.7644C83.4468 13.3318 84.4872 14.4037 86.0635 15.1288C87.6398 15.8539 89.1215 16.0115 89.4052 15.4441C89.4367 15.381 89.4367 15.318 89.4367 15.2864L92.3686 1.79333Z" fill="#FD5644"/>
<path d="M90.8552 3.71655L91.8956 3.93723L91.6749 4.97759L90.1301 4.6308L90.8552 3.71655Z" fill="#EA3232"/>
<path d="M91.2337 6.93228L88.7432 6.39634L89.4683 5.45056L91.4859 5.89192L91.2337 6.93228Z" fill="#EA3232"/>
<path d="M90.8237 8.88682L87.3558 8.13019L88.0809 7.21594L91.0444 7.84646L90.8237 8.88682Z" fill="#EA3232"/>
<path d="M90.3827 10.8415L85.9691 9.89573L86.6942 8.94995L90.635 9.80115L90.3827 10.8415Z" fill="#EA3232"/>
<path d="M89.9727 12.8276L84.5818 11.6296L85.3069 10.7153L90.1934 11.7557L89.9727 12.8276Z" fill="#EA3232"/>
<path d="M89.5314 14.7821L83.8567 13.5526C83.6676 13.3634 83.6045 13.0797 83.6676 12.796C83.6991 12.7329 83.7306 12.7014 83.7621 12.6699L83.9198 12.4807L89.7521 13.7417L89.5314 14.7821Z" fill="#EA3232"/>
<path opacity="0.5" d="M86.5364 15.3496C87.9235 15.9171 89.153 15.9801 89.3737 15.4757C89.4052 15.4127 89.4052 15.3496 89.4052 15.3181L92.3371 1.79346L86.5364 15.3496Z" fill="#FD5644"/>
<path d="M60.1177 4.03186L67.0849 13.1744C67.1164 13.2059 67.148 13.2374 67.1795 13.3005C67.4002 13.7734 66.4859 14.6246 65.1618 15.2236C63.8377 15.8226 62.6082 15.9171 62.3875 15.4442C62.356 15.4127 62.356 15.3497 62.356 15.2866L60.1177 4.03186Z" fill="#FD5644"/>
<path d="M61.3472 5.63965L60.496 5.79728L60.6536 6.68L61.9462 6.4278L61.3472 5.63965Z" fill="#EA3232"/>
<path d="M61.0004 8.31936L63.0811 7.87799L62.4822 7.08984L60.8113 7.43663L61.0004 8.31936Z" fill="#EA3232"/>
<path d="M61.3156 9.92715L64.216 9.35968L63.617 8.57153L61.1265 9.07595L61.3156 9.92715Z" fill="#EA3232"/>
<path d="M61.631 11.5665L65.3196 10.8414L64.7206 10.0532L61.4734 10.7153L61.631 11.5665Z" fill="#EA3232"/>
<path d="M61.9462 13.2058L66.4544 12.2915L65.8554 11.5349L61.7886 12.3231L61.9462 13.2058Z" fill="#EA3232"/>
<path d="M62.293 14.8451L67.0219 13.8994C67.1795 13.7417 67.2426 13.4895 67.1795 13.2688C67.148 13.2373 67.1165 13.1743 67.0849 13.1427L66.9904 12.9851L62.1354 13.9624L62.293 14.8451Z" fill="#EA3232"/>
<path opacity="0.5" d="M64.7835 15.3811C63.6171 15.8225 62.6082 15.854 62.4191 15.4442C62.3875 15.4126 62.3875 15.3496 62.3875 15.2865L60.1177 4.00024L64.7835 15.3811Z" fill="#FD5644"/>
<path opacity="0.3" d="M21.6119 95.4679C22.3264 96.5697 23.2906 97.4876 24.4262 98.147C25.5619 98.8064 26.837 99.1887 28.1481 99.263H59.4732C60.7819 99.1886 62.055 98.8083 63.1901 98.1527C64.3253 97.4971 65.2908 96.5844 66.0093 95.488L81.6719 68.3696C82.2607 67.2001 82.5674 65.909 82.5674 64.5996C82.5674 63.2902 82.2607 61.999 81.6719 60.8295L66.0294 33.7212C65.3109 32.6248 64.3453 31.7121 63.2102 31.0565C62.0751 30.4009 60.802 30.0206 59.4933 29.9462H28.1681C26.8588 30.0182 25.5849 30.3975 24.4494 31.0534C23.3139 31.7092 22.3487 32.6232 21.632 33.7212L5.95942 60.8295C5.36508 61.9992 5.0553 63.2926 5.0553 64.6046C5.0553 65.9166 5.36508 67.21 5.95942 68.3797L21.6119 95.4679Z" fill="#4B3457"/>
<path d="M19.5538 92.1748C20.2705 93.2729 21.2357 94.1868 22.3712 94.8426C23.5067 95.4985 24.7806 95.8778 26.0899 95.9498H57.405C58.709 95.8845 59.9795 95.5144 61.1146 94.8693C62.2497 94.2241 63.2178 93.3219 63.9411 92.235L79.6639 65.1267C80.2559 63.9581 80.5643 62.6666 80.5643 61.3567C80.5643 60.0467 80.2559 58.7552 79.6639 57.5866L64.0114 30.4783C63.2947 29.3802 62.3296 28.4663 61.1941 27.8105C60.0586 27.1546 58.7846 26.7753 57.4753 26.7032H26.1201C24.8111 26.7718 23.5368 27.1486 22.401 27.8029C21.2652 28.4571 20.3 29.3704 19.584 30.4683L3.91135 57.5766C3.32011 58.7471 3.01208 60.0402 3.01208 61.3516C3.01208 62.6631 3.32011 63.9561 3.91135 65.1267L19.5538 92.1748Z" fill="url(#paint0_linear_354_3706)"/>
<path d="M22.8268 89.2832C23.4669 90.2639 24.3281 91.0809 25.3411 91.6686C26.3542 92.2562 27.491 92.598 28.6601 92.6667H56.6519C57.8207 92.6015 58.9578 92.2622 59.9712 91.6761C60.9846 91.0901 61.8458 90.2738 62.4852 89.2932L76.4912 65.1267C77.0205 64.0809 77.2963 62.9253 77.2963 61.7532C77.2963 60.5811 77.0205 59.4255 76.4912 58.3797L62.5153 34.0927C61.8743 33.1114 61.0114 32.2947 59.9963 31.7086C58.9812 31.1226 57.8424 30.7837 56.672 30.7192H28.6902C27.5202 30.7852 26.3821 31.1248 25.3672 31.7107C24.3523 32.2966 23.4891 33.1125 22.8469 34.0927L8.84095 58.2994C8.31394 59.3459 8.03943 60.5012 8.03943 61.6729C8.03943 62.8445 8.31394 63.9999 8.84095 65.0464L22.8268 89.2832Z" fill="#231D81"/>
<path d="M22.8369 86.7229C23.4451 87.6599 24.2658 88.4401 25.2323 89.0001C26.1988 89.5601 27.2838 89.8841 28.3991 89.9458H55.1158C56.2311 89.8828 57.3161 89.5594 58.2837 89.0015C59.2514 88.4435 60.0749 87.6666 60.6881 86.7329L74.0515 63.6407C74.5561 62.6431 74.8191 61.5408 74.8191 60.4229C74.8191 59.3049 74.5561 58.2026 74.0515 57.205L60.7082 34.1128C60.1 33.1758 59.2793 32.3956 58.3128 31.8356C57.3463 31.2756 56.2613 30.9516 55.146 30.8899L28.4594 30.8096C27.3405 30.8649 26.2504 31.1827 25.2771 31.7373C24.3039 32.292 23.4748 33.0679 22.857 34.0023L9.49361 57.0946C8.99126 58.0928 8.72961 59.1949 8.72961 60.3124C8.72961 61.43 8.99126 62.532 9.49361 63.5303L22.8369 86.7229Z" fill="#5046B1"/>
<path d="M23.4393 84.5644C23.9984 85.422 24.7513 86.136 25.6374 86.6488C26.5234 87.1615 27.5176 87.4587 28.5397 87.5162H53.0074C54.0298 87.459 55.0246 87.1631 55.912 86.6523C56.7995 86.1414 57.5549 85.4298 58.1178 84.5744L70.3567 63.3898C70.8175 62.4759 71.0575 61.4666 71.0575 60.443C71.0575 59.4195 70.8175 58.4102 70.3567 57.4963L58.1379 36.3117C57.5759 35.4568 56.8223 34.7449 55.9369 34.2325C55.0514 33.7201 54.0587 33.4213 53.0375 33.3599H28.5698C27.5438 33.4132 26.5447 33.7073 25.6534 34.2183C24.7621 34.7294 24.0036 35.4431 23.4393 36.3016L11.2205 57.4762C10.7574 58.3895 10.5161 59.399 10.5161 60.423C10.5161 61.4469 10.7574 62.4565 11.2205 63.3697L23.4393 84.5644Z" fill="url(#paint1_linear_354_3706)"/>
<g style="mix-blend-mode:screen" opacity="0.7">
<path d="M30.4675 38.5506C27.104 36.9441 22.596 43.922 24.1322 46.5826C25.8892 49.6951 31.4715 43.0385 31.5317 41.0305C31.5819 39.665 31.1301 38.8819 30.4675 38.5506Z" fill="white"/>
</g>
<g style="mix-blend-mode:screen" opacity="0.7">
<path d="M22.5758 48.0586C20.5678 48.9622 20.4774 52.687 22.9874 51.8537C25.2264 51.0706 25.9392 46.4923 22.5758 48.0586Z" fill="white"/>
</g>
<path d="M51.3508 74.6932C51.6319 74.6932 51.6319 72.8941 51.6319 72.5567C51.6319 70.1953 51.3508 69.0146 51.3508 69.0146C51.2383 68.9021 50.7885 68.9021 50.2263 68.9021C49.3829 68.9021 48.4271 68.9583 48.4271 68.9583C48.2022 68.7334 48.146 66.2596 48.146 62.7736C48.146 56.364 48.3709 46.5809 48.3709 41.0709C48.3709 38.6533 48.3146 37.079 48.2022 36.9665C48.2022 36.9103 48.146 36.9103 48.0335 36.9103C46.5155 36.9103 36.9011 40.5087 36.1139 41.2958C35.889 41.5207 35.6079 43.4324 35.6079 45.344C35.6079 45.7376 35.6079 46.0749 35.7203 46.0749C35.889 46.0749 39.4874 45.2316 40.7243 45.2316C40.9492 45.2316 41.0617 45.2316 41.1179 45.2878C41.399 45.5689 41.5115 47.7054 41.5115 50.6853C41.5115 55.2958 41.2866 61.9865 41.2866 66.5407C41.2866 67.6652 41.2866 68.6772 41.3428 69.4644C41.3428 69.4644 39.2063 69.6893 39.0376 69.8579C38.8127 70.0828 38.7002 71.7133 38.7002 73.119C38.7002 74.2997 38.7565 75.3679 38.9814 75.5366C38.9814 75.5366 44.4352 74.6932 49.9452 74.6932H51.3508Z" fill="#F2F2F7"/>
<defs>
<linearGradient id="paint0_linear_354_3706" x1="10.6784" y1="44.7554" x2="72.8467" y2="77.8174" gradientUnits="userSpaceOnUse">
<stop stop-color="#FEFEFE"/>
<stop offset="0.31" stop-color="#FEFEFE" stop-opacity="0.99"/>
<stop offset="0.42" stop-color="#F6F7F8" stop-opacity="0.94"/>
<stop offset="0.64" stop-color="#E0E4E8" stop-opacity="0.83"/>
<stop offset="0.94" stop-color="#BEC5CF" stop-opacity="0.64"/>
<stop offset="1" stop-color="#B6BEC9" stop-opacity="0.6"/>
</linearGradient>
<linearGradient id="paint1_linear_354_3706" x1="19.1421" y1="40.9502" x2="62.4351" y2="79.9359" gradientUnits="userSpaceOnUse">
<stop stop-color="white" stop-opacity="0.96"/>
<stop offset="0.04" stop-color="#EBEBFB" stop-opacity="0.97"/>
<stop offset="0.13" stop-color="#C5C4F5" stop-opacity="0.98"/>
<stop offset="0.23" stop-color="#A5A4EF" stop-opacity="0.98"/>
<stop offset="0.33" stop-color="#8D8BEB" stop-opacity="0.99"/>
<stop offset="0.44" stop-color="#7C7AE7"/>
<stop offset="0.56" stop-color="#716FE6"/>
<stop offset="0.72" stop-color="#6E6CE5"/>
<stop offset="0.79" stop-color="#7674E6" stop-opacity="0.98"/>
<stop offset="0.85" stop-color="#8D8CEB" stop-opacity="0.94"/>
<stop offset="0.92" stop-color="#B5B4F2" stop-opacity="0.85"/>
<stop offset="0.98" stop-color="#EBEBFB" stop-opacity="0.74"/>
<stop offset="1" stop-color="white" stop-opacity="0.7"/>
</linearGradient>
</defs>
</svg>
