<svg width="100" height="100" viewBox="0 0 100 100" fill="none" xmlns="http://www.w3.org/2000/svg">
<path opacity="0.3" d="M20.5257 70.49C21.2373 71.5874 22.1976 72.5016 23.3287 73.1584C24.4598 73.8151 25.7298 74.196 27.0357 74.27H58.2357C59.5392 74.1958 60.8072 73.8171 61.9378 73.1641C63.0684 72.5111 64.0301 71.602 64.7457 70.51L80.3457 43.5C80.9321 42.3351 81.2376 41.0491 81.2376 39.745C81.2376 38.4408 80.9321 37.1548 80.3457 35.99L64.7657 8.98998C64.0501 7.89793 63.0884 6.9889 61.9578 6.33589C60.8272 5.68289 59.5592 5.30411 58.2557 5.22998H27.0557C25.7516 5.30177 24.4827 5.67955 23.3518 6.33277C22.2208 6.98598 21.2595 7.89627 20.5457 8.98998L4.93567 35.99C4.3437 37.155 4.03516 38.4432 4.03516 39.75C4.03516 41.0567 4.3437 42.345 4.93567 43.51L20.5257 70.49Z" fill="#4B3457"/>
<path d="M18.4757 67.21C19.1895 68.3037 20.1508 69.214 21.2818 69.8672C22.4127 70.5204 23.6816 70.8982 24.9857 70.97H56.1757C57.4744 70.9049 58.7399 70.5363 59.8704 69.8938C61.001 69.2512 61.9652 68.3526 62.6857 67.27L78.3457 40.27C78.9352 39.1061 79.2424 37.8197 79.2424 36.515C79.2424 35.2103 78.9352 33.9239 78.3457 32.76L62.7557 5.76C62.0418 4.66629 61.0805 3.756 59.9496 3.10279C58.8186 2.44957 57.5497 2.07179 56.2457 2H25.0157C23.7119 2.06831 22.4428 2.44356 21.3115 3.09521C20.1802 3.74686 19.2189 4.65648 18.5057 5.75L2.89567 32.75C2.3068 33.9159 2 35.2038 2 36.51C2 37.8162 2.3068 39.1041 2.89567 40.27L18.4757 67.21Z" fill="url(#paint0_linear_354_3710)"/>
<path d="M21.7356 64.33C22.3732 65.3069 23.2309 66.1206 24.2399 66.7059C25.249 67.2911 26.3812 67.6316 27.5456 67.7H55.4256C56.5898 67.6351 57.7223 67.2971 58.7317 66.7134C59.741 66.1297 60.5988 65.3166 61.2356 64.34L75.1856 40.27C75.7129 39.2284 75.9876 38.0774 75.9876 36.91C75.9876 35.7426 75.7129 34.5916 75.1856 33.55L61.2656 9.36C60.6272 8.38259 59.7677 7.56915 58.7566 6.98544C57.7456 6.40174 56.6113 6.06416 55.4456 6H27.5756C26.4103 6.06572 25.2767 6.40397 24.2659 6.98753C23.2551 7.57109 22.3953 8.38369 21.7556 9.36L7.80564 33.47C7.28074 34.5123 7.00732 35.663 7.00732 36.83C7.00732 37.997 7.28074 39.1477 7.80564 40.19L21.7356 64.33Z" fill="#231D81"/>
<path d="M21.7456 61.78C22.3514 62.7132 23.1688 63.4903 24.1314 64.048C25.0941 64.6058 26.1748 64.9285 27.2856 64.99H53.8956C55.0064 64.9273 56.0871 64.6052 57.0509 64.0494C58.0147 63.4937 58.8349 62.7199 59.4456 61.79L72.7556 38.79C73.2583 37.7964 73.5202 36.6985 73.5202 35.585C73.5202 34.4715 73.2583 33.3736 72.7556 32.38L59.4656 9.37997C58.8599 8.44675 58.0425 7.66966 57.0799 7.11188C56.1172 6.5541 55.0365 6.23138 53.9256 6.16997L27.3456 6.08997C26.2313 6.14503 25.1455 6.46157 24.1761 7.01401C23.2068 7.56645 22.381 8.33927 21.7656 9.26997L8.45565 32.27C7.9553 33.2643 7.6947 34.3619 7.6947 35.475C7.6947 36.5881 7.9553 37.6857 8.45565 38.68L21.7456 61.78Z" fill="#5046B1"/>
<path d="M22.3457 59.63C22.9025 60.4841 23.6525 61.1953 24.535 61.706C25.4174 62.2168 26.4077 62.5127 27.4257 62.57H51.7957C52.814 62.513 53.8048 62.2183 54.6887 61.7095C55.5726 61.2007 56.325 60.492 56.8857 59.64L69.0757 38.54C69.5346 37.6297 69.7737 36.6244 69.7737 35.605C69.7737 34.5856 69.5346 33.5803 69.0757 32.67L56.9057 11.57C56.346 10.7186 55.5953 10.0095 54.7134 9.49914C53.8316 8.98877 52.8428 8.69117 51.8257 8.63H27.4557C26.4338 8.68312 25.4387 8.97603 24.551 9.48505C23.6632 9.99406 22.9078 10.7049 22.3457 11.56L10.1757 32.65C9.71448 33.5596 9.47412 34.5651 9.47412 35.585C9.47412 36.6049 9.71448 37.6104 10.1757 38.52L22.3457 59.63Z" fill="url(#paint1_linear_354_3710)"/>
<g style="mix-blend-mode:screen" opacity="0.7">
<path d="M29.3457 13.8C25.9957 12.2 21.5057 19.15 23.0357 21.8C24.7857 24.9 30.3457 18.27 30.4057 16.27C30.4557 14.91 30.0057 14.13 29.3457 13.8Z" fill="white"/>
</g>
<g style="mix-blend-mode:screen" opacity="0.7">
<path d="M21.4856 23.27C19.4856 24.17 19.3956 27.88 21.8956 27.05C24.1256 26.27 24.8356 21.71 21.4856 23.27Z" fill="white"/>
</g>
<path d="M34.112 54.728C46.096 54.728 54.328 49.8 54.328 41.176C54.328 28.688 38.312 28.352 37.472 28.352C37.36 28.296 37.36 27.848 37.36 27.288C37.36 25.832 37.584 23.312 37.752 23.144C37.976 22.92 42.624 22.584 47.72 22.584C49.624 22.584 51.416 22.752 51.416 22.752C51.584 22.584 51.696 21.408 51.696 20.736C51.696 17.656 51.136 16.872 51.136 16.872C50.912 16.648 48 16.592 45.928 16.592C43.8 16.592 36.464 17.152 31.816 17.152C31.648 17.152 31.256 17.152 31.2 17.264C30.92 17.488 29.744 25.776 29.744 32.328C29.744 32.328 29.744 34.512 29.856 34.68C29.856 34.68 31.704 34.456 34.168 34.456C39.096 34.456 46.544 35.408 46.544 41.064C46.544 47.392 40.944 48.288 38.592 48.288C38.256 48.288 38.032 48.232 37.864 48.232C35.232 47.336 35.232 42.24 35.232 41.288C33.552 41.288 30.024 42.408 29.632 42.856C29.408 43.08 29.24 46.384 29.24 49.352C29.24 51.76 29.352 54 29.632 54.28C29.8 54.392 31.536 54.728 34.112 54.728Z" fill="#F2F2F7"/>
<path d="M66.3887 93.9313C66.3887 96.3889 66.6737 98.3479 65.4627 98.3479C64.2517 98.3479 62.9338 95.641 62.9338 93.219C62.9338 90.797 64.9284 89.5148 65.4627 89.5148C65.9969 89.5148 66.3887 91.5093 66.3887 93.9313Z" fill="#FF9B2E" stroke="#1C1C1E" stroke-width="0.5"/>
<path d="M76.5398 93.9313C76.5398 96.3889 76.2549 98.3479 77.4659 98.3479C78.6768 98.3479 79.9947 95.641 79.9947 93.219C79.9947 90.797 78.0001 89.5148 77.4659 89.5148C76.9316 89.5148 76.5398 91.5093 76.5398 93.9313Z" fill="#FF9B2E" stroke="#1C1C1E" stroke-width="0.5"/>
<path d="M91.0005 67.4673C94.9897 65.8289 98.0528 64.0124 98.872 66.007C99.7268 68.0728 96.1651 71.9551 92.1759 73.5935C88.1867 75.2319 84.7675 72.8099 84.4113 71.9907C84.0551 71.1715 87.0114 69.1413 91.0005 67.4673Z" fill="#FF9B2E" stroke="#1C1C1E" stroke-width="0.5"/>
<path d="M51.9994 67.2536C48.0103 65.6152 44.9472 63.7987 44.128 65.7576C43.2731 67.8235 46.8349 71.7058 50.824 73.3442C54.8132 74.9826 58.2325 72.5606 58.5887 71.7414C58.9448 70.9222 56.0242 68.9276 51.9994 67.2536Z" fill="#FF9B2E" stroke="#1C1C1E" stroke-width="0.5"/>
<path d="M91.0362 81.9636C91.0362 91.9009 82.9867 93.9667 73.0494 93.9667H70.0575C60.1202 93.9667 52.0707 91.9009 52.0707 81.9636V60.9849C52.0707 51.0476 60.1202 42.998 70.0575 42.998H73.0494C82.9867 42.998 91.0362 51.0476 91.0362 60.9849V81.9636Z" fill="#FF9B2E" stroke="#1C1C1E" stroke-width="0.5"/>
<path d="M84.839 58.1356C84.839 61.8754 81.8115 64.9029 78.0716 64.9029C74.3318 64.9029 71.3043 61.8754 71.3043 58.1356C71.3043 54.3958 74.3318 51.3683 78.0716 51.3683C81.8115 51.3683 84.839 54.3958 84.839 58.1356Z" fill="#FF9B2E"/>
<path d="M83.5209 58.1355C83.5209 61.163 81.0633 63.6206 78.0358 63.585C75.0083 63.585 72.5507 61.1274 72.5863 58.0999C72.6219 55.0724 75.0439 52.6148 78.0714 52.6504C81.0989 52.6504 83.5209 55.108 83.5209 58.1355Z" fill="white"/>
<path d="M80.2085 58.3849C80.2085 59.1329 79.603 59.774 78.8194 59.774C78.0358 59.774 77.4303 59.1685 77.4303 58.3849C77.4303 57.637 78.0358 56.9958 78.8194 56.9958C79.603 57.0315 80.2085 57.637 80.2085 58.3849Z" fill="#2E2A49"/>
<path d="M71.8027 57.9217C71.8027 61.6616 68.7752 64.6891 65.0354 64.6891C61.2956 64.6891 58.2681 61.6616 58.2681 57.9217C58.2681 54.1819 61.2956 51.1544 65.0354 51.1544C68.7752 51.1544 71.8027 54.1819 71.8027 57.9217Z" fill="#FF9B2E"/>
<path d="M70.4849 57.9219C70.4849 60.9494 68.0273 63.407 65.0354 63.407C62.0435 63.407 59.5503 60.9494 59.5503 57.9575C59.5503 54.9656 62.0079 52.4724 64.9998 52.4724C68.0629 52.4724 70.4849 54.93 70.4849 57.9219Z" fill="white"/>
<path d="M64.4655 58.3849C64.4655 59.1329 63.86 59.774 63.0765 59.774C62.3285 59.774 61.6874 59.1685 61.6874 58.3849C61.6874 57.637 62.2929 56.9958 63.0765 56.9958C63.8244 57.0315 64.4299 57.637 64.4655 58.3849Z" fill="#2E2A49"/>
<path d="M71.5177 67.3247C62.3996 67.3247 55.2049 65.6507 52.0349 64.1904C53.6733 65.6507 61.2598 67.9302 71.5177 67.9302C81.7043 67.9302 89.3976 65.6507 91.0361 64.1548C87.7949 65.6507 80.5645 67.3247 71.5177 67.3247Z" fill="white"/>
<path d="M71.5177 67.2537C62.3996 67.2537 55.2049 65.5797 52.0349 64.1194C53.6733 65.5797 61.2598 67.8592 71.5177 67.8592C81.7043 67.8592 89.3976 65.5797 91.0361 64.0837C87.7949 65.5441 80.5645 67.2537 71.5177 67.2537Z" fill="#6D0F0F"/>
<path d="M70.0931 67.2537V68.1797C70.0931 69.0345 70.7699 69.7113 71.6247 69.7113C72.4795 69.7113 73.1562 69.0345 73.1562 68.1797V67.2537H70.0931Z" fill="white"/>
<path d="M73.5836 67.2181L73.6549 68.4647C73.7261 69.6044 74.6878 70.4949 75.8631 70.4593C77.0029 70.388 77.8933 69.4264 77.8577 68.251L77.7865 66.9688L73.5836 67.2181Z" fill="white"/>
<path d="M78.2139 66.933L78.2851 67.681C78.3563 68.3577 78.9618 68.8564 79.6386 68.7495C80.3153 68.6427 80.8139 68.0728 80.7071 67.396L80.6359 66.6481L78.2139 66.933Z" fill="white"/>
<path d="M81.2058 66.5771L81.3839 67.5744C81.562 68.4648 82.4168 69.0703 83.3072 68.8922C84.1977 68.7141 84.7676 67.8949 84.6251 67.0045L84.447 66.0072L81.2058 66.5771Z" fill="white"/>
<path d="M85.48 65.7934L85.6937 66.6838C85.9074 67.503 86.7266 68.0017 87.5458 67.788C88.365 67.5743 88.8636 66.755 88.6499 65.9358L88.4362 65.0454L85.48 65.7934Z" fill="white"/>
<path d="M69.0246 67.218L68.9534 68.2509C68.8821 69.177 68.0273 69.8893 67.1013 69.7825C66.2108 69.7112 65.5341 68.9633 65.5697 68.0728L65.6053 67.0399L69.0246 67.218Z" fill="white"/>
<path d="M65.1422 66.9686L65.071 67.7166C64.9997 68.3933 64.3942 68.892 63.7175 68.8207C63.0408 68.7495 62.5421 68.144 62.6133 67.4673C62.6133 67.4317 62.6133 67.4317 62.6133 67.396L62.6846 66.6481L65.1422 66.9686Z" fill="white"/>
<path d="M62.4353 66.6839L62.2572 67.7524C62.186 68.7497 61.2955 69.4976 60.2982 69.3908C59.3009 69.3196 58.553 68.4291 58.6598 67.4318C58.6598 67.325 58.6954 67.2537 58.6954 67.1469L58.8735 66.0784L62.4353 66.6839Z" fill="white"/>
<path d="M56.9147 65.6865L56.7366 66.3276C56.5585 66.8975 55.953 67.1824 55.3831 67.0043C54.8489 66.8262 54.5639 66.292 54.6708 65.7577L54.8489 65.1166L56.9147 65.6865Z" fill="white"/>
<path d="M65.9617 38.1184C69.4166 38.902 71.3043 44.957 71.3043 44.957L69.0604 46.7022C69.0604 46.7022 69.559 41.2171 65.9617 38.1184Z" fill="#99280E"/>
<path d="M61.3667 39.1156C64.323 39.0088 67.1723 43.5322 67.1723 43.5322L65.7477 45.4199C65.7477 45.4555 64.9284 40.8609 61.3667 39.1156Z" fill="#99280E"/>
<path d="M58.731 42.8556C60.7612 42.0007 63.9667 44.4227 63.9667 44.4227L63.4681 46.0968C63.4681 46.0968 61.6872 43.1405 58.731 42.8556Z" fill="#99280E"/>
<path d="M58.0901 43.7817C59.5504 43.8886 60.6902 46.275 60.6902 46.275L59.9066 47.0942C59.9066 47.0942 59.7641 44.8146 58.0901 43.7817Z" fill="#99280E"/>
<path d="M56.7366 46.1682C57.6982 45.7764 59.1586 46.9161 59.1586 46.9161L58.9092 47.6997C58.8736 47.6997 58.09 46.3106 56.7366 46.1682Z" fill="#99280E"/>
<path d="M56.5942 47.1296C57.3066 47.0584 58.0546 48.1269 58.0546 48.1269L57.7696 48.6256C57.7696 48.6256 57.4847 47.5214 56.5942 47.1296Z" fill="#99280E"/>
<path d="M76.2903 36.5156C73.1204 37.7622 72.1587 43.8172 72.1587 43.8172L74.5451 45.1707C74.5451 45.1707 73.2985 39.9705 76.2903 36.5156Z" fill="#99280E"/>
<path d="M78.8195 40.5405C76.8962 40.5761 75.1865 43.6036 75.1865 43.6036L76.1838 44.779C76.1482 44.779 76.54 41.7871 78.8195 40.5405Z" fill="#99280E"/>
<path d="M82.5591 42.5707C81.0632 42.3926 79.4248 44.5653 79.4248 44.5653L80.0659 45.5982C80.0659 45.5982 80.6714 43.283 82.5591 42.5707Z" fill="#99280E"/>
<path d="M85.9429 46.0969C84.8744 46.2038 84.0908 47.9847 84.0908 47.9847L84.6963 48.5901C84.6963 48.5901 84.7319 46.9161 85.9429 46.0969Z" fill="#99280E"/>
<path d="M79.3183 42.6775C78.2498 42.7843 77.4662 44.5652 77.4662 44.5652L78.0717 45.1707C78.1073 45.1707 78.1429 43.4967 79.3183 42.6775Z" fill="#99280E"/>
<path d="M86.8688 47.842C86.2277 47.6639 85.3373 48.4831 85.3373 48.4831L85.551 48.9817C85.5866 48.9817 86.014 48.0201 86.8688 47.842Z" fill="#7A160B"/>
<path d="M85.6582 44.8503C83.9486 44.3516 81.6691 46.5599 81.6691 46.5599L82.2389 47.8422C82.2389 47.8778 83.3431 45.3489 85.6582 44.8503Z" fill="#99280E"/>
<defs>
<linearGradient id="paint0_linear_354_3710" x1="9.63567" y1="19.98" x2="71.5557" y2="52.91" gradientUnits="userSpaceOnUse">
<stop stop-color="#FEFEFE"/>
<stop offset="0.31" stop-color="#FEFEFE" stop-opacity="0.99"/>
<stop offset="0.42" stop-color="#F6F7F8" stop-opacity="0.94"/>
<stop offset="0.64" stop-color="#E0E4E8" stop-opacity="0.83"/>
<stop offset="0.94" stop-color="#BEC5CF" stop-opacity="0.64"/>
<stop offset="1" stop-color="#B6BEC9" stop-opacity="0.6"/>
</linearGradient>
<linearGradient id="paint1_linear_354_3710" x1="18.0657" y1="16.19" x2="61.1857" y2="55.02" gradientUnits="userSpaceOnUse">
<stop stop-color="white" stop-opacity="0.96"/>
<stop offset="0.04" stop-color="#EBEBFB" stop-opacity="0.97"/>
<stop offset="0.13" stop-color="#C5C4F5" stop-opacity="0.98"/>
<stop offset="0.23" stop-color="#A5A4EF" stop-opacity="0.98"/>
<stop offset="0.33" stop-color="#8D8BEB" stop-opacity="0.99"/>
<stop offset="0.44" stop-color="#7C7AE7"/>
<stop offset="0.56" stop-color="#716FE6"/>
<stop offset="0.72" stop-color="#6E6CE5"/>
<stop offset="0.79" stop-color="#7674E6" stop-opacity="0.98"/>
<stop offset="0.85" stop-color="#8D8CEB" stop-opacity="0.94"/>
<stop offset="0.92" stop-color="#B5B4F2" stop-opacity="0.85"/>
<stop offset="0.98" stop-color="#EBEBFB" stop-opacity="0.74"/>
<stop offset="1" stop-color="white" stop-opacity="0.7"/>
</linearGradient>
</defs>
</svg>
