<svg width="246" height="235" viewBox="0 0 246 235" fill="none" xmlns="http://www.w3.org/2000/svg">
<g clip-path="url(#clip0_465_468)">
<path opacity="0.5" d="M8.55106 75.277C6.8179 75.3022 5.14385 74.6473 3.88787 73.4527C2.63189 72.2582 1.89398 70.619 1.83237 68.8868L0 6.57464C0.0055177 5.71594 0.180386 4.86676 0.514589 4.07575C0.848793 3.28474 1.33576 2.56742 1.94761 1.9649C2.99633 0.910423 5.76217 4.1392e-07 7.89994 4.1392e-07H74.6374C76.4355 -0.000626033 78.161 0.709841 79.4373 1.97643C80.0628 2.60203 80.5553 3.34775 80.885 4.16868C81.2148 4.98961 81.375 5.86878 81.3561 6.75327L79.6678 68.8752C79.6121 70.6095 78.8771 72.2524 77.6214 73.4499C76.3657 74.6474 74.6898 75.3036 72.9548 75.277H8.55106Z" fill="#4B3457"/>
<path d="M10.372 72.2058C8.98579 72.2279 7.64599 71.7067 6.63914 70.7537C5.63229 69.8007 5.03834 68.4915 4.98433 67.1063L3.25568 8.28602C3.25703 7.60206 3.39366 6.92513 3.6577 6.2942C3.92174 5.66327 4.30798 5.0908 4.79418 4.60975C5.52597 3.88948 7.84813 3.0482 9.73812 3.0482H72.7302C74.1756 3.04716 75.563 3.61661 76.5908 4.6328C77.0893 5.13021 77.4813 5.72393 77.7428 6.37777C78.0043 7.03161 78.13 7.73186 78.112 8.43583L76.5217 67.0947C76.475 68.4815 75.8853 69.7945 74.8797 70.7505C73.874 71.7066 72.533 72.2292 71.1456 72.2058H10.372Z" fill="#EBEDED"/>
<g style="mix-blend-mode:screen" opacity="0.93">
<path d="M4.79423 6.25771C5.52602 5.53743 7.84818 4.70192 9.73817 4.70192C30.7009 3.74924 51.6983 3.74924 72.7302 4.70192C74.1756 4.70087 75.563 5.27033 76.5909 6.28652C77.4857 7.1909 78.0168 8.39265 78.0833 9.66315L78.1121 8.45886C78.13 7.75488 78.0044 7.05463 77.7429 6.40079C77.4813 5.74695 77.0894 5.15323 76.5909 4.65582C75.563 3.63963 74.1756 3.07018 72.7302 3.07123C51.7484 1.93032 30.72 1.93032 9.73817 3.07123C7.84818 3.07123 5.52602 3.9125 4.79423 4.60973C3.81363 5.5738 3.25609 6.88786 3.2442 8.26294L3.27877 9.51333C3.38305 8.28306 3.91998 7.12956 4.79423 6.25771Z" fill="white"/>
</g>
<path d="M71.451 59.4656L71.3818 61.4478C71.3161 62.8983 70.6878 64.2662 69.6304 65.2612C68.5729 66.2563 67.1694 66.8003 65.7176 66.7778H15.7192C14.272 66.7976 12.8734 66.2558 11.8172 65.2662C10.761 64.2767 10.1294 62.9163 10.055 61.4708C9.62286 50.759 9.61133 51.606 10.055 62.5599C10.1294 64.0048 10.7613 65.3646 11.8176 66.3532C12.874 67.3419 14.2726 67.8824 15.7192 67.8611H65.6888C67.1406 67.8836 68.5441 67.3396 69.6016 66.3445C70.659 65.3495 71.2872 63.9816 71.353 62.5311L71.4221 60.5547C71.8889 48.0796 71.8774 47.2786 71.451 59.4656Z" fill="url(#paint0_radial_465_468)"/>
<g style="mix-blend-mode:screen" opacity="0.82">
<path d="M13.7717 10.5044C13.7256 10.1184 13.351 9.78992 12.4406 9.66315C10.9136 9.44995 8.2976 9.42114 7.09907 10.5563C5.76801 11.8182 6.3327 12.769 8.25151 12.9073C9.61163 13.0488 10.9856 12.8508 12.2505 12.331C13.0687 11.8873 13.8293 11.121 13.7717 10.5044Z" fill="white"/>
</g>
<g style="mix-blend-mode:screen" opacity="0.82">
<path d="M18.439 9.7323C19.1189 9.0927 19.3782 8.15347 18.439 7.60606C16.9984 6.78207 14.5898 8.27447 15.7077 9.81297C16.3934 10.7983 17.6726 10.4526 18.439 9.7323Z" fill="white"/>
</g>
<g style="mix-blend-mode:screen" opacity="0.82">
<path d="M68.8061 10.7753C68.8522 10.3834 69.2267 10.0607 70.1371 9.93398C71.6641 9.72078 74.2801 9.68621 75.4729 10.8271C76.8097 12.0833 76.2393 13.034 74.3205 13.1781C72.958 13.3077 71.5846 13.0999 70.3215 12.5731C69.5033 12.1582 68.7427 11.386 68.8061 10.7753Z" fill="white"/>
</g>
<g style="mix-blend-mode:screen" opacity="0.82">
<path d="M64.1502 10.0031C63.4703 9.35775 63.211 8.41852 64.1502 7.87111C65.5908 7.05288 67.9936 8.53952 66.8815 10.0838C66.1843 11.0634 64.9051 10.7176 64.1502 10.0031Z" fill="white"/>
</g>
<path d="M43.418 65.6888C39.2462 65.6888 36.2268 64.6112 34.1985 62.4043C32.32 60.3588 31.3693 57.495 31.3693 53.8994C31.3693 52.8737 31.4384 51.4101 31.5767 49.4164C31.7035 47.5495 31.8629 45.3752 32.055 42.8936C32.2682 40.4274 32.8444 33.3226 32.879 32.5851C32.0584 32.316 31.2818 31.9277 30.5741 31.4327C29.4532 30.6613 28.4778 29.6976 27.693 28.5861C26.2451 26.549 25.4422 24.1241 25.3882 21.6254C25.3842 20.404 25.7237 19.206 26.3677 18.1681C26.9016 17.352 27.5791 16.6394 28.3672 16.0649C28.8973 15.6501 29.5945 15.1718 30.4992 14.5956C31.2771 14.0943 32.3546 13.4432 33.7318 12.5558L33.8643 12.4751C34.5212 12.089 35.2069 11.6626 35.9272 11.1959C37.2755 10.3258 38.4452 9.56522 40.1739 9.56522H44C47.7915 9.56522 50.759 10.5909 52.8218 12.6076C53.8469 13.6125 54.6558 14.8163 55.1988 16.145C55.7418 17.4738 56.0075 18.8995 55.9795 20.3347C55.9795 20.8475 55.9449 21.8156 55.8758 23.2446C55.8124 24.5757 55.7145 26.1718 55.5819 28.0445C55.4494 29.9172 55.3169 31.8879 55.1728 34.1121C55.1728 34.1121 54.4237 45.3137 54.2739 47.4861C54.1241 49.6584 53.9858 51.6175 53.859 53.3462L53.5421 57.6563C53.4326 59.1141 53.3693 59.7249 53.3001 60.134C53.1385 61.3937 52.6208 62.5811 51.8077 63.5568C51.2006 64.2486 50.4486 64.7983 49.6051 65.1668C48.7616 65.5353 47.8473 65.7135 46.9271 65.6888H43.418Z" fill="#602968"/>
<path d="M36.5955 17.1655C37.3215 16.7391 38.0763 16.2724 38.86 15.7653C39.2671 15.4585 39.7055 15.1958 40.168 14.9816H43.9941C46.3335 14.9816 48.0123 15.481 49.0302 16.4798C49.538 16.9829 49.9363 17.5856 50.2 18.25C50.4638 18.9143 50.5874 19.6261 50.563 20.3404C50.563 20.8072 50.5284 21.6888 50.465 22.9853C50.4016 24.2818 50.3094 25.8664 50.1827 27.6699C50.0559 29.4735 49.9118 31.5306 49.7678 33.7605C49.6237 35.9905 49.4682 38.2378 49.3183 40.4908C49.1685 42.7438 49.0187 44.9564 48.8747 47.123C48.7306 49.2896 48.5865 51.2372 48.4598 52.9543C48.333 54.6715 48.2235 56.112 48.1371 57.2644C48.0507 58.4169 47.993 59.0911 47.9469 59.3043C47.9335 59.5673 47.8456 59.8211 47.6934 60.0361C47.5884 60.1249 47.466 60.1908 47.334 60.2295C47.202 60.2682 47.0634 60.2789 46.927 60.2608H43.4179C40.871 60.2608 39.1251 59.7479 38.1916 58.728C37.2581 57.7081 36.7856 56.0947 36.7856 53.8821C36.7856 52.9889 36.8548 51.6175 36.9815 49.7679C37.1083 47.9182 37.2639 45.7343 37.4598 43.2969C37.6557 40.8595 37.8631 38.111 38.0936 35.1953C38.3241 32.2797 38.5719 29.2661 38.8312 26.2063C38.4497 26.6449 37.9788 26.9968 37.45 27.2383C36.9213 27.4798 36.347 27.6054 35.7657 27.6065C35.0066 27.6205 34.2619 27.3991 33.6337 26.9727C33.027 26.5558 32.4967 26.0373 32.0664 25.44C31.6481 24.8516 31.3271 24.1999 31.1156 23.5096C30.9183 22.9025 30.8115 22.2695 30.7987 21.6312C30.7954 21.4275 30.8515 21.2273 30.9601 21.055C31.1668 20.7864 31.4136 20.5512 31.6919 20.3577C32.0722 20.0581 32.6484 19.6663 33.4205 19.2053C34.1926 18.7443 35.2356 18.0183 36.5955 17.1655Z" fill="white"/>
</g>
<g clip-path="url(#clip1_465_468)">
<path opacity="0.5" d="M90.3739 75.277C88.6407 75.3022 86.9667 74.6473 85.7107 73.4527C84.4547 72.2582 83.7168 70.619 83.6552 68.8868L81.8228 6.57464C81.8283 5.71594 82.0032 4.86676 82.3374 4.07575C82.6716 3.28474 83.1586 2.56742 83.7704 1.9649C84.8191 0.910423 87.585 4.1392e-07 89.7228 4.1392e-07H156.46C158.258 -0.000626033 159.984 0.709841 161.26 1.97643C161.886 2.60203 162.378 3.34775 162.708 4.16868C163.038 4.98961 163.198 5.86878 163.179 6.75327L161.491 68.8752C161.435 70.6095 160.7 72.2524 159.444 73.4499C158.189 74.6474 156.513 75.3036 154.778 75.277H90.3739Z" fill="#4B3457"/>
<path d="M92.1948 72.2058C90.8087 72.2279 89.4689 71.7067 88.462 70.7537C87.4552 69.8007 86.8612 68.4915 86.8072 67.1063L85.0786 8.28602C85.0799 7.60206 85.2165 6.92513 85.4806 6.2942C85.7446 5.66327 86.1309 5.0908 86.6171 4.60975C87.3488 3.88948 89.671 3.0482 91.561 3.0482H154.553C155.998 3.04716 157.386 3.61661 158.414 4.6328C158.912 5.13021 159.304 5.72393 159.566 6.37777C159.827 7.03161 159.953 7.73186 159.935 8.43583L158.345 67.0947C158.298 68.4815 157.708 69.7945 156.703 70.7505C155.697 71.7066 154.356 72.2292 152.968 72.2058H92.1948Z" fill="#EBEDED"/>
<g style="mix-blend-mode:screen" opacity="0.93">
<path d="M86.617 6.25771C87.3488 5.53743 89.6709 4.70192 91.5609 4.70192C112.524 3.74924 133.521 3.74924 154.553 4.70192C155.998 4.70087 157.386 5.27033 158.414 6.28652C159.308 7.1909 159.84 8.39265 159.906 9.66315L159.935 8.45886C159.953 7.75488 159.827 7.05463 159.566 6.40079C159.304 5.74695 158.912 5.15323 158.414 4.65582C157.386 3.63963 155.998 3.07018 154.553 3.07123C133.571 1.93032 112.543 1.93032 91.5609 3.07123C89.6709 3.07123 87.3488 3.9125 86.617 4.60973C85.6364 5.5738 85.0788 6.88786 85.067 8.26294L85.1015 9.51333C85.2058 8.28306 85.7427 7.12956 86.617 6.25771Z" fill="white"/>
</g>
<path d="M153.274 59.4656L153.205 61.4478C153.139 62.8983 152.511 64.2662 151.453 65.2612C150.396 66.2563 148.992 66.8003 147.54 66.7778H97.5421C96.0948 66.7976 94.6963 66.2558 93.6401 65.2662C92.5839 64.2767 91.9522 62.9163 91.8778 61.4708C91.4457 50.759 91.4341 51.606 91.8778 62.5599C91.9523 64.0048 92.5841 65.3646 93.6404 66.3532C94.6968 67.3419 96.0954 67.8824 97.5421 67.8611H147.512C148.963 67.8836 150.367 67.3396 151.424 66.3445C152.482 65.3495 153.11 63.9816 153.176 62.5311L153.245 60.5547C153.712 48.0796 153.7 47.2786 153.274 59.4656Z" fill="url(#paint1_radial_465_468)"/>
<g style="mix-blend-mode:screen" opacity="0.82">
<path d="M95.5944 10.5044C95.5483 10.1184 95.1738 9.78992 94.2634 9.66315C92.7364 9.44995 90.1204 9.42114 88.9218 10.5563C87.5908 11.8182 88.1555 12.769 90.0743 12.9073C91.4344 13.0488 92.8084 12.8508 94.0732 12.331C94.8914 11.8873 95.652 11.121 95.5944 10.5044Z" fill="white"/>
</g>
<g style="mix-blend-mode:screen" opacity="0.82">
<path d="M100.262 9.7323C100.942 9.0927 101.201 8.15347 100.262 7.60606C98.8213 6.78207 96.4127 8.27447 97.5306 9.81297C98.2163 10.7983 99.4955 10.4526 100.262 9.7323Z" fill="white"/>
</g>
<g style="mix-blend-mode:screen" opacity="0.82">
<path d="M150.629 10.7753C150.675 10.3834 151.05 10.0607 151.96 9.93398C153.487 9.72078 156.103 9.68621 157.296 10.8271C158.633 12.0833 158.062 13.034 156.143 13.1781C154.781 13.3077 153.407 13.0999 152.144 12.5731C151.326 12.1582 150.566 11.386 150.629 10.7753Z" fill="white"/>
</g>
<g style="mix-blend-mode:screen" opacity="0.82">
<path d="M145.973 10.0031C145.293 9.35775 145.034 8.41852 145.973 7.87111C147.414 7.05288 149.816 8.53952 148.704 10.0838C148.007 11.0634 146.728 10.7176 145.973 10.0031Z" fill="white"/>
</g>
<path d="M111.654 66.6049C108.196 66.6049 105.58 65.8731 103.696 64.3577C102.181 63.1361 100.371 60.7909 100.371 56.5442V52.7181C100.377 51.8353 100.535 50.9601 100.838 50.1309C101.002 49.6813 101.195 49.2425 101.414 48.8171L101.466 48.7192C102.402 47.1059 103.625 45.6767 105.073 44.5013C106.347 43.3892 107.81 42.1964 109.418 40.8884C110.102 40.3467 110.803 39.7859 111.521 39.2058C106.024 37.8978 102.797 33.6165 102.797 27.3991C102.73 24.4148 103.514 21.4731 105.056 18.9172C106.448 16.6855 108.34 14.8076 110.582 13.4316C112.714 12.1142 115.051 11.1619 117.496 10.6139C119.824 10.0749 122.206 9.80042 124.595 9.7957C127.693 9.71665 130.777 10.229 133.682 11.3054C136.094 12.2144 138.277 13.6403 140.078 15.483C141.721 17.1943 142.938 19.2692 143.628 21.539C144.186 23.3779 144.477 25.2874 144.492 27.209C144.495 29.9051 143.989 32.5776 143 35.0859C142.107 37.3494 140.965 39.5063 139.594 41.5165C138.293 43.4145 136.836 45.2011 135.238 46.858H136.656C137.874 46.8616 139.068 47.1941 140.113 47.8203C141.028 48.376 141.781 49.1613 142.299 50.0983C142.817 51.0354 143.08 52.0915 143.063 53.1618V53.3462L142.798 57.2875C142.705 59.4969 141.937 61.6247 140.597 63.3839C138.909 65.5389 136.2 66.6338 132.53 66.6338L111.654 66.6049Z" fill="#602968"/>
<path d="M139.076 27.2089C139.079 29.2268 138.7 31.227 137.958 33.1036C137.219 34.9915 136.268 36.7893 135.123 38.4625C133.97 40.1407 132.679 41.7193 131.262 43.1817C129.841 44.6453 128.437 45.9629 127.05 47.1345C125.673 48.287 124.382 49.3242 123.195 50.1942C122.008 51.0643 121.092 51.7616 120.452 52.2686H136.65C136.897 52.2666 137.14 52.3324 137.353 52.4588C137.464 52.5362 137.553 52.6425 137.609 52.7664C137.665 52.8902 137.686 53.0269 137.67 53.1618L137.416 56.9245C137.386 58.0388 137.018 59.1176 136.362 60.0188C135.743 60.787 134.479 61.1712 132.57 61.1712H111.654C109.481 61.1712 107.966 60.8255 107.09 60.1225C106.214 59.4195 105.788 58.221 105.788 56.5211V52.7181C105.797 52.4558 105.849 52.1968 105.943 51.9517C106.026 51.712 106.122 51.4773 106.231 51.2487C106.872 50.2274 107.681 49.3216 108.623 48.5693C109.833 47.5091 111.214 46.3566 112.766 45.112C114.318 43.8674 115.956 42.5498 117.681 41.1592C119.329 39.8176 120.905 38.3884 122.4 36.8779C123.716 35.5608 124.901 34.1192 125.938 32.5735C126.797 31.3767 127.286 29.9543 127.344 28.4824C127.353 27.9807 127.262 27.4823 127.076 27.0163C126.89 26.5503 126.613 26.1261 126.261 25.7684C125.54 25.0308 124.371 24.6563 122.752 24.6563C121.84 24.6208 120.946 24.9155 120.233 25.4861C119.563 26.0551 119.021 26.7602 118.643 27.5547C118.223 28.4245 117.923 29.3471 117.75 30.2975C117.56 31.3001 117.416 32.222 117.335 33.0748C117.298 33.4194 117.15 33.7426 116.914 33.9968C116.406 34.2283 115.844 34.316 115.29 34.2503C110.572 34.2503 108.212 31.9762 108.208 27.4279C108.143 25.4588 108.641 23.5121 109.643 21.8156C110.6 20.2845 111.9 18.9965 113.44 18.0529C115.061 17.0442 116.839 16.312 118.701 15.8863C120.634 15.4413 122.612 15.217 124.595 15.2179C127.005 15.1428 129.408 15.522 131.677 16.3357C133.357 16.9613 134.881 17.9443 136.143 19.2168C137.207 20.3159 137.996 21.6505 138.448 23.112C138.855 24.44 139.066 25.8201 139.076 27.2089Z" fill="white"/>
</g>
<g clip-path="url(#clip2_465_468)">
<path opacity="0.5" d="M172.197 75.277C170.464 75.3022 168.79 74.6473 167.534 73.4527C166.278 72.2582 165.54 70.619 165.478 68.8868L163.646 6.57464C163.651 5.71594 163.826 4.86676 164.16 4.07575C164.494 3.28474 164.981 2.56742 165.593 1.9649C166.642 0.910423 169.408 4.1392e-07 171.546 4.1392e-07H238.283C240.081 -0.000626033 241.807 0.709841 243.083 1.97643C243.709 2.60203 244.201 3.34775 244.531 4.16868C244.86 4.98961 245.021 5.86878 245.002 6.75327L243.313 68.8752C243.258 70.6095 242.523 72.2524 241.267 73.4499C240.011 74.6474 238.335 75.3036 236.601 75.277H172.197Z" fill="#4B3457"/>
<path d="M174.018 72.2058C172.631 72.2279 171.292 71.7067 170.285 70.7537C169.278 69.8007 168.684 68.4915 168.63 67.1063L166.901 8.28602C166.903 7.60206 167.039 6.92513 167.303 6.2942C167.567 5.66327 167.954 5.0908 168.44 4.60975C169.172 3.88948 171.494 3.0482 173.384 3.0482H236.376C237.821 3.04716 239.209 3.61661 240.236 4.6328C240.735 5.13021 241.127 5.72393 241.388 6.37777C241.65 7.03161 241.776 7.73186 241.758 8.43583L240.167 67.0947C240.121 68.4815 239.531 69.7945 238.525 70.7505C237.52 71.7066 236.179 72.2292 234.791 72.2058H174.018Z" fill="#EBEDED"/>
<g style="mix-blend-mode:screen" opacity="0.93">
<path d="M168.44 6.25771C169.172 5.53743 171.494 4.70192 173.384 4.70192C194.347 3.74924 215.344 3.74924 236.376 4.70192C237.821 4.70087 239.209 5.27033 240.237 6.28652C241.131 7.1909 241.662 8.39265 241.729 9.66315L241.758 8.45886C241.776 7.75488 241.65 7.05463 241.388 6.40079C241.127 5.74695 240.735 5.15323 240.237 4.65582C239.209 3.63963 237.821 3.07018 236.376 3.07123C215.394 1.93032 194.366 1.93032 173.384 3.07123C171.494 3.07123 169.172 3.9125 168.44 4.60973C167.459 5.5738 166.902 6.88786 166.89 8.26294L166.924 9.51333C167.029 8.28306 167.566 7.12956 168.44 6.25771Z" fill="white"/>
</g>
<path d="M235.097 59.4656L235.027 61.4478C234.962 62.8983 234.333 64.2662 233.276 65.2612C232.219 66.2563 230.815 66.8003 229.363 66.7778H179.365C177.918 66.7976 176.519 66.2558 175.463 65.2662C174.407 64.2767 173.775 62.9163 173.701 61.4708C173.268 50.759 173.257 51.606 173.701 62.5599C173.775 64.0048 174.407 65.3646 175.463 66.3532C176.52 67.3419 177.918 67.8824 179.365 67.8611H229.334C230.786 67.8836 232.19 67.3396 233.247 66.3445C234.305 65.3495 234.933 63.9816 234.999 62.5311L235.068 60.5547C235.535 48.0796 235.523 47.2786 235.097 59.4656Z" fill="url(#paint2_radial_465_468)"/>
<g style="mix-blend-mode:screen" opacity="0.82">
<path d="M177.417 10.5044C177.371 10.1184 176.997 9.78992 176.086 9.66315C174.559 9.44995 171.943 9.42114 170.745 10.5563C169.414 11.8182 169.978 12.769 171.897 12.9073C173.257 13.0488 174.631 12.8508 175.896 12.331C176.714 11.8873 177.475 11.121 177.417 10.5044Z" fill="white"/>
</g>
<g style="mix-blend-mode:screen" opacity="0.82">
<path d="M182.085 9.7323C182.765 9.0927 183.024 8.15347 182.085 7.60606C180.644 6.78207 178.236 8.27447 179.353 9.81297C180.039 10.7983 181.318 10.4526 182.085 9.7323Z" fill="white"/>
</g>
<g style="mix-blend-mode:screen" opacity="0.82">
<path d="M232.452 10.7753C232.498 10.3834 232.872 10.0607 233.783 9.93398C235.31 9.72078 237.926 9.68621 239.119 10.8271C240.455 12.0833 239.885 13.034 237.966 13.1781C236.604 13.3077 235.23 13.0999 233.967 12.5731C233.149 12.1582 232.388 11.386 232.452 10.7753Z" fill="white"/>
</g>
<g style="mix-blend-mode:screen" opacity="0.82">
<path d="M227.796 10.0031C227.116 9.35775 226.857 8.41852 227.796 7.87111C229.237 7.05288 231.639 8.53952 230.527 10.0838C229.83 11.0634 228.551 10.7176 227.796 10.0031Z" fill="white"/>
</g>
<path d="M199.947 66.1555C197.618 66.1909 195.295 65.9276 193.033 65.3718C191.073 64.8891 189.215 64.0597 187.547 62.9229C185.871 61.7583 184.536 60.1668 183.681 58.3132C182.938 56.6691 182.557 54.885 182.563 53.0811C182.563 49.3011 184.107 46.1262 186.919 44.1382C187.854 43.4801 188.876 42.9546 189.956 42.5767C189.31 41.5622 188.964 40.3855 188.959 39.1828V38.8947L189.178 36.8203C189.334 34.6355 190.166 32.5534 191.558 30.8622C191.196 30.6401 190.849 30.3937 190.52 30.1246C189.357 29.1927 188.422 28.0076 187.786 26.6596C187.15 25.3116 186.83 23.8361 186.85 22.3457C186.849 19.985 187.602 17.6857 188.999 15.7826C190.275 14.0656 191.911 12.6494 193.793 11.6338C195.699 10.5984 197.748 9.85077 199.872 9.41539C202.146 8.93646 204.464 8.70271 206.787 8.71817C209.723 8.64389 212.65 9.09065 215.43 10.0377C217.747 10.8385 219.862 12.132 221.63 13.8292C223.281 15.463 224.494 17.4863 225.157 19.7124C225.707 21.56 225.986 23.4776 225.987 25.4054C226.027 28.2515 225.359 31.063 224.045 33.5877C223.736 34.1764 223.385 34.7426 222.996 35.2818C223.154 35.4777 223.303 35.6794 223.445 35.8868C225.096 38.3017 225.946 41.1738 225.877 44.0979C225.846 46.636 225.366 49.1486 224.46 51.5196C223.424 54.2689 221.811 56.7643 219.729 58.8375C217.4 61.1216 214.638 62.9163 211.604 64.1157C207.889 65.5504 203.929 66.2434 199.947 66.1555Z" fill="#602968"/>
<path d="M205.658 23.5673C204.638 23.5925 203.631 23.8074 202.69 24.2011C202.171 24.4038 201.701 24.714 201.311 25.1112C200.921 25.5085 200.619 25.9838 200.426 26.506C200.357 26.7337 200.249 26.9481 200.109 27.1398C199.851 27.2629 199.562 27.3089 199.279 27.2724C196.813 27.2724 195.026 26.8248 193.92 25.9298C193.382 25.5065 192.952 24.9625 192.663 24.3418C192.375 23.7211 192.237 23.0412 192.261 22.3572C192.256 21.1401 192.649 19.9548 193.378 18.9806C194.195 17.8955 195.239 17.0026 196.438 16.3646C197.886 15.5898 199.439 15.0308 201.048 14.7051C202.943 14.3099 204.874 14.1168 206.81 14.1288C209.103 14.0634 211.39 14.3968 213.569 15.1142C215.15 15.65 216.597 16.5207 217.81 17.6668C218.826 18.6645 219.571 19.9037 219.977 21.2682C220.368 22.616 220.562 24.0134 220.553 25.4169C220.594 27.377 220.144 29.3161 219.245 31.0581C218.373 32.6946 216.854 34.1927 214.687 35.5526C216.391 36.323 217.872 37.5124 218.991 39.0099C219.992 40.5177 220.493 42.3013 220.426 44.1094C220.396 46.0086 220.029 47.8873 219.343 49.6584C218.573 51.6868 217.376 53.5261 215.834 55.0518C214.015 56.8222 211.86 58.2095 209.495 59.1314C206.447 60.2838 203.205 60.8318 199.947 60.7448C198.081 60.789 196.216 60.5954 194.398 60.1686C193.067 59.8543 191.802 59.304 190.664 58.5437C189.768 57.9371 189.053 57.0987 188.596 56.1178C188.168 55.1771 187.95 54.1548 187.956 53.1215C187.956 51.0817 188.648 49.572 190.031 48.5924C191.414 47.6128 193.294 47.123 195.672 47.123C196.248 47.123 196.599 47.1691 196.663 47.2556C196.77 47.4533 196.844 47.6675 196.882 47.8894C197.019 48.4644 197.305 48.9931 197.712 49.4222C198.088 49.7984 198.532 50.1013 199.02 50.3153C199.497 50.5247 200.001 50.6644 200.518 50.7302C200.984 50.7914 201.454 50.8241 201.924 50.8281C203.08 50.8714 204.23 50.63 205.272 50.1251C206.062 49.7239 206.758 49.158 207.311 48.4656C207.782 47.8591 208.128 47.166 208.331 46.4258C208.504 45.8237 208.601 45.2023 208.619 44.5762C208.662 44.003 208.565 43.428 208.337 42.9003C208.109 42.3726 207.757 41.9077 207.311 41.5453C206.516 40.9168 205.546 40.5504 204.534 40.4965L195.418 40.1105C194.738 40.1105 194.398 39.8108 194.398 39.2173L194.589 37.4311C194.639 36.3149 195.043 35.2436 195.741 34.3714C196.381 33.6511 197.631 33.2189 199.504 33.1613L205.266 32.902C206.526 32.8831 207.728 32.3699 208.614 31.473C209.503 30.4403 209.95 29.0989 209.858 27.7391C209.82 24.9579 208.42 23.5673 205.658 23.5673Z" fill="white"/>
</g>
<g clip-path="url(#clip3_465_468)">
<path opacity="0.5" d="M8.55106 155.139C6.8179 155.164 5.14385 154.509 3.88787 153.314C2.63189 152.12 1.89398 150.481 1.83237 148.748L0 86.4361C0.0055177 85.5774 0.180386 84.7283 0.514589 83.9373C0.848793 83.1462 1.33576 82.4289 1.94761 81.8264C2.99633 80.7719 5.76217 79.8615 7.89994 79.8615H74.6374C76.4355 79.8609 78.161 80.5714 79.4373 81.8379C80.0628 82.4635 80.5553 83.2093 80.885 84.0302C81.2148 84.8511 81.375 85.7303 81.3561 86.6148L79.6678 148.737C79.6121 150.471 78.8771 152.114 77.6214 153.311C76.3657 154.509 74.6898 155.165 72.9548 155.139H8.55106Z" fill="#4B3457"/>
<path d="M10.3718 152.067C8.98566 152.089 7.64587 151.568 6.63902 150.615C5.63217 149.662 5.03822 148.353 4.98421 146.968L3.25555 88.1475C3.2569 87.4636 3.39353 86.7866 3.65758 86.1557C3.92162 85.5248 4.30786 84.9523 4.79405 84.4712C5.52585 83.751 7.848 82.9097 9.738 82.9097H72.7301C74.1754 82.9087 75.5628 83.4781 76.5907 84.4943C77.0892 84.9917 77.4812 85.5854 77.7427 86.2393C78.0042 86.8931 78.1299 87.5934 78.1119 88.2973L76.5216 146.956C76.4749 148.343 75.8852 149.656 74.8795 150.612C73.8739 151.568 72.5328 152.091 71.1455 152.067H10.3718Z" fill="#EBEDED"/>
<g style="mix-blend-mode:screen" opacity="0.93">
<path d="M4.79404 86.1192C5.52584 85.3989 7.84799 84.5634 9.73799 84.5634C30.7008 83.6108 51.6981 83.6108 72.73 84.5634C74.1754 84.5624 75.5628 85.1318 76.5907 86.148C77.4855 87.0524 78.0166 88.2542 78.0831 89.5247L78.1119 88.3204C78.1298 87.6164 78.0042 86.9161 77.7427 86.2623C77.4811 85.6085 77.0892 85.0147 76.5907 84.5173C75.5628 83.5011 74.1754 82.9317 72.73 82.9327C51.7482 81.7918 30.7198 81.7918 9.73799 82.9327C7.84799 82.9327 5.52584 83.774 4.79404 84.4712C3.81345 85.4353 3.25591 86.7494 3.24402 88.1245L3.27859 89.3748C3.38286 88.1446 3.9198 86.9911 4.79404 86.1192Z" fill="white"/>
</g>
<path d="M71.4509 139.327L71.3818 141.309C71.316 142.76 70.6878 144.128 69.6303 145.123C68.5729 146.118 67.1694 146.662 65.7175 146.639H15.7192C14.272 146.659 12.8734 146.117 11.8172 145.128C10.761 144.138 10.1294 142.778 10.055 141.332C9.6228 130.62 9.61127 131.468 10.055 142.421C10.1294 143.866 10.7612 145.226 11.8176 146.215C12.8739 147.203 14.2725 147.744 15.7192 147.723H65.6887C67.1406 147.745 68.5441 147.201 69.6015 146.206C70.659 145.211 71.2872 143.843 71.3529 142.393L71.4221 140.416C71.8888 127.941 71.8773 127.14 71.4509 139.327Z" fill="url(#paint3_radial_465_468)"/>
<g style="mix-blend-mode:screen" opacity="0.82">
<path d="M13.7715 90.3659C13.7254 89.9798 13.3509 89.6514 12.4405 89.5246C10.9135 89.3114 8.29748 89.2826 7.09895 90.4178C5.76789 91.6797 6.33258 92.6304 8.25138 92.7687C9.61151 92.9103 10.9855 92.7123 12.2503 92.1925C13.0686 91.7488 13.8292 90.9825 13.7715 90.3659Z" fill="white"/>
</g>
<g style="mix-blend-mode:screen" opacity="0.82">
<path d="M18.4389 89.5938C19.1188 88.9542 19.3781 88.015 18.4389 87.4676C16.9984 86.6436 14.5898 88.136 15.7076 89.6745C16.3933 90.6598 17.6725 90.3141 18.4389 89.5938Z" fill="white"/>
</g>
<g style="mix-blend-mode:screen" opacity="0.82">
<path d="M68.8061 90.6368C68.8522 90.2449 69.2267 89.9223 70.1371 89.7955C71.6641 89.5823 74.2801 89.5477 75.4729 90.6886C76.8097 91.9448 76.2393 92.8955 74.3205 93.0396C72.958 93.1692 71.5846 92.9614 70.3215 92.4346C69.5033 92.0197 68.7427 91.2476 68.8061 90.6368Z" fill="white"/>
</g>
<g style="mix-blend-mode:screen" opacity="0.82">
<path d="M64.1503 89.8646C63.4703 89.2193 63.211 88.28 64.1503 87.7326C65.5908 86.9144 67.9936 88.401 66.8815 89.9453C66.1843 90.9249 64.9051 90.5791 64.1503 89.8646Z" fill="white"/>
</g>
<path d="M50.4248 145.55C46.7197 145.55 43.7983 144.605 41.7412 142.756C40.2142 141.384 38.3818 138.878 38.3818 134.689C38.3818 134.412 38.3818 133.945 38.4222 133.277H29.2545C26.9305 133.353 24.6273 132.817 22.5762 131.721C21.2538 130.954 20.1636 129.844 19.421 128.508C18.6784 127.172 18.3112 125.66 18.3583 124.132C18.368 123.139 18.4878 122.149 18.7155 121.182C18.8769 120.479 19.1016 119.557 19.4012 118.433C19.7009 117.31 20.0581 116.031 20.5191 114.452C20.9801 112.873 21.5044 111.052 22.1383 108.816C22.5531 107.359 22.9161 106.045 23.2273 104.864C23.5385 103.682 23.7632 102.72 23.9591 101.787C24.155 100.853 24.276 100.116 24.3624 99.401C24.442 98.7606 24.4824 98.116 24.4835 97.4707C24.4883 96.5898 24.5673 95.7108 24.7197 94.8431C24.9312 93.3481 25.6733 91.979 26.8105 90.9857C27.9477 89.9924 29.4041 89.4411 30.914 89.4325H33.7951C37.529 89.4325 40.3064 90.2565 42.2655 91.9563C42.6417 91.4264 43.1055 90.9646 43.6369 90.5907C44.7714 89.8072 46.1251 89.4037 47.5033 89.4382H51.0125C52.7041 89.3984 54.3911 89.6319 56.0083 90.1297C57.6192 90.6386 59.0731 91.551 60.232 92.7803C61.3456 94.0154 62.1146 95.5217 62.4619 97.148C62.7319 98.3935 62.8633 99.6651 62.8538 100.94C62.8538 102.017 62.8019 103.654 62.6867 105.953C62.5829 108.165 62.4274 110.695 62.2372 113.443C62.0471 116.192 61.8511 119.004 61.661 121.931C61.4708 124.858 61.2749 127.624 61.0848 130.154C60.8946 132.683 60.7333 134.763 60.6065 136.492C60.4221 139.062 60.3587 139.609 60.3126 139.949C60.1636 141.223 59.6447 142.425 58.8202 143.407C58.2146 144.103 57.4623 144.656 56.6175 145.026C55.7726 145.397 54.8561 145.576 53.9339 145.55H50.4248Z" fill="#602968"/>
<path d="M29.2546 127.895C27.8729 127.958 26.4987 127.66 25.2672 127.031C24.7732 126.738 24.371 126.314 24.1062 125.804C23.8413 125.295 23.7245 124.722 23.769 124.15C23.7812 123.567 23.8566 122.987 23.9937 122.421C24.1435 121.764 24.3567 120.911 24.6333 119.874C24.9099 118.837 25.2672 117.569 25.7166 116.013C26.1661 114.458 26.7019 112.591 27.3415 110.338C27.7679 108.851 28.1367 107.497 28.4594 106.304C28.7821 105.111 29.0356 103.999 29.2546 102.956C29.4735 101.913 29.6291 100.991 29.7328 100.121C29.8375 99.2628 29.8914 98.3989 29.8942 97.5341C29.8987 96.9677 29.9527 96.4027 30.0555 95.8457C30.1592 95.2292 30.4473 94.9238 30.9141 94.9238H33.7952C36.221 94.9238 37.8863 95.3444 38.8025 96.1972C39.7187 97.05 40.1739 98.5021 40.1739 100.536C40.1669 101.41 40.1014 102.282 39.978 103.146C39.8512 104.126 39.6322 105.336 39.3096 106.782C38.9869 108.229 38.5893 109.952 38.0995 111.968C37.6097 113.985 36.9932 116.284 36.3017 119.09H44.8182C44.945 117.604 45.0813 115.956 45.2273 114.146C45.3733 112.337 45.5116 110.583 45.6422 108.886C45.7766 107.188 45.8938 105.651 45.9937 104.276C46.1032 102.893 46.1781 101.884 46.2184 101.245C46.3068 99.7583 46.349 98.5905 46.3452 97.7415C46.3339 97.1023 46.3667 96.4631 46.4431 95.8285C46.4491 95.5321 46.5616 95.2477 46.7601 95.0275C46.9807 94.8958 47.2351 94.8317 47.4919 94.8431H51.001C52.1108 94.8093 53.219 94.9493 54.2855 95.258C55.021 95.4728 55.6908 95.8691 56.2331 96.4104C56.7099 96.945 57.0395 97.5943 57.1896 98.2947C57.3685 99.1433 57.4535 100.009 57.4431 100.876C57.4431 101.856 57.3893 103.438 57.2818 105.624C57.1781 107.82 57.0282 110.28 56.8381 113.023C56.6479 115.766 56.452 118.606 56.2619 121.539C56.0717 124.472 55.8816 127.192 55.6857 129.704C55.4897 132.217 55.3342 134.314 55.2016 136.077C55.0691 137.84 54.9942 138.843 54.9481 139.143C54.9347 139.406 54.8468 139.66 54.6946 139.874C54.5896 139.963 54.4672 140.029 54.3352 140.068C54.2032 140.107 54.0645 140.117 53.9282 140.099H50.4248C48.0911 140.099 46.3913 139.627 45.3598 138.693C44.8198 138.176 44.3996 137.547 44.1288 136.85C43.858 136.153 43.7432 135.406 43.7925 134.66C43.7925 134.318 43.8156 133.638 43.8617 132.62C43.9078 131.602 43.9923 130.008 44.1152 127.837L29.2546 127.895Z" fill="white"/>
</g>
<g clip-path="url(#clip4_465_468)">
<path opacity="0.5" d="M90.3739 155.139C88.6408 155.164 86.9667 154.509 85.7107 153.314C84.4548 152.12 83.7169 150.481 83.6552 148.748L81.8229 86.4361C81.8284 85.5774 82.0033 84.7283 82.3375 83.9373C82.6717 83.1462 83.1586 82.4289 83.7705 81.8264C84.8192 80.7719 87.585 79.8615 89.7228 79.8615H156.46C158.258 79.8609 159.984 80.5714 161.26 81.8379C161.886 82.4635 162.378 83.2093 162.708 84.0302C163.038 84.8511 163.198 85.7303 163.179 86.6148L161.491 148.737C161.435 150.471 160.7 152.114 159.444 153.311C158.189 154.509 156.513 155.165 154.778 155.139H90.3739Z" fill="#4B3457"/>
<path d="M92.1948 152.067C90.8086 152.089 89.4688 151.568 88.462 150.615C87.4551 149.662 86.8612 148.353 86.8071 146.968L85.0785 88.1475C85.0798 87.4636 85.2165 86.7866 85.4805 86.1557C85.7446 85.5248 86.1308 84.9523 86.617 84.4712C87.3488 83.751 89.6709 82.9097 91.5609 82.9097H154.553C155.998 82.9087 157.386 83.4781 158.414 84.4943C158.912 84.9917 159.304 85.5854 159.566 86.2393C159.827 86.8931 159.953 87.5934 159.935 88.2973L158.344 146.956C158.298 148.343 157.708 149.656 156.702 150.612C155.697 151.568 154.356 152.091 152.968 152.067H92.1948Z" fill="#EBEDED"/>
<g style="mix-blend-mode:screen" opacity="0.93">
<path d="M86.6169 86.1192C87.3487 85.3989 89.6709 84.5634 91.5609 84.5634C112.524 83.6108 133.521 83.6108 154.553 84.5634C155.998 84.5624 157.386 85.1318 158.414 86.148C159.308 87.0524 159.84 88.2542 159.906 89.5247L159.935 88.3204C159.953 87.6164 159.827 86.9161 159.566 86.2623C159.304 85.6085 158.912 85.0147 158.414 84.5173C157.386 83.5011 155.998 82.9317 154.553 82.9327C133.571 81.7918 112.543 81.7918 91.5609 82.9327C89.6709 82.9327 87.3487 83.774 86.6169 84.4712C85.6363 85.4353 85.0788 86.7494 85.0669 88.1245L85.1015 89.3748C85.2057 88.1446 85.7427 86.9911 86.6169 86.1192Z" fill="white"/>
</g>
<path d="M153.274 139.327L153.205 141.309C153.139 142.76 152.511 144.128 151.453 145.123C150.396 146.118 148.992 146.662 147.54 146.639H97.5421C96.0948 146.659 94.6963 146.117 93.6401 145.128C92.5839 144.138 91.9522 142.778 91.8778 141.332C91.4457 130.62 91.4341 131.468 91.8778 142.421C91.9523 143.866 92.5841 145.226 93.6404 146.215C94.6968 147.203 96.0954 147.744 97.5421 147.723H147.512C148.963 147.745 150.367 147.201 151.424 146.206C152.482 145.211 153.11 143.843 153.176 142.393L153.245 140.416C153.712 127.941 153.7 127.14 153.274 139.327Z" fill="url(#paint4_radial_465_468)"/>
<g style="mix-blend-mode:screen" opacity="0.82">
<path d="M95.5944 90.3659C95.5483 89.9798 95.1737 89.6514 94.2633 89.5246C92.7363 89.3114 90.1203 89.2826 88.9218 90.4178C87.5907 91.6797 88.1554 92.6304 90.0742 92.7687C91.4343 92.9103 92.8083 92.7123 94.0731 92.1925C94.8914 91.7488 95.652 90.9825 95.5944 90.3659Z" fill="white"/>
</g>
<g style="mix-blend-mode:screen" opacity="0.82">
<path d="M100.262 89.5938C100.942 88.9542 101.201 88.015 100.262 87.4676C98.8211 86.6436 96.4125 88.136 97.5304 89.6745C98.2161 90.6598 99.4953 90.3141 100.262 89.5938Z" fill="white"/>
</g>
<g style="mix-blend-mode:screen" opacity="0.82">
<path d="M150.629 90.6368C150.675 90.2449 151.049 89.9223 151.96 89.7955C153.487 89.5823 156.103 89.5477 157.296 90.6886C158.632 91.9448 158.062 92.8955 156.143 93.0396C154.781 93.1692 153.407 92.9614 152.144 92.4346C151.326 92.0197 150.565 91.2476 150.629 90.6368Z" fill="white"/>
</g>
<g style="mix-blend-mode:screen" opacity="0.82">
<path d="M145.973 89.8646C145.293 89.2193 145.034 88.28 145.973 87.7326C147.414 86.9144 149.816 88.401 148.704 89.9453C148.007 90.9249 146.728 90.5791 145.973 89.8646Z" fill="white"/>
</g>
<path d="M120.458 145.867C118.353 145.87 116.253 145.663 114.189 145.251C112.157 144.859 110.186 144.198 108.329 143.286C106.39 142.346 104.686 140.986 103.339 139.304C101.807 137.328 100.994 134.889 101.034 132.39C101.006 130.75 101.372 129.127 102.1 127.658C102.827 126.188 103.896 124.914 105.217 123.942C105.517 123.717 105.834 123.504 106.156 123.308C105.406 122.394 104.853 121.335 104.531 120.197C104.221 119.034 104.07 117.834 104.082 116.63C104.082 115.426 104.18 113.783 104.393 111.611C104.589 109.56 104.831 107.416 105.113 105.227C105.396 103.037 105.655 100.997 105.914 99.0553C106.174 97.1135 106.347 95.7997 106.491 94.8893C106.636 93.291 107.383 91.8073 108.579 90.7379C109.776 89.6684 111.334 89.0928 112.939 89.1271H137.295C138.513 89.1313 139.707 89.4638 140.752 90.0894C141.67 90.6413 142.427 91.4235 142.949 92.3586C143.47 93.2936 143.738 94.3488 143.726 95.4194V95.6038L143.478 99.5624C143.379 101.758 142.616 103.872 141.288 105.624C140.013 107.191 138.214 108.245 136.223 108.592C137.368 109.305 138.416 110.163 139.341 111.144C140.89 112.807 142.084 114.767 142.85 116.907C143.627 119.116 144.017 121.444 144.002 123.787C143.997 126.415 143.555 129.024 142.694 131.508C141.748 134.215 140.249 136.695 138.292 138.791C136.194 141.035 133.64 142.803 130.801 143.977C127.516 145.296 123.998 145.939 120.458 145.867Z" fill="#602968"/>
<path d="M120.458 140.457C118.717 140.458 116.979 140.287 115.272 139.944C113.714 139.646 112.203 139.142 110.778 138.445C109.554 137.862 108.475 137.014 107.62 135.962C106.84 134.948 106.434 133.697 106.468 132.418C106.438 131.621 106.605 130.829 106.955 130.113C107.305 129.396 107.826 128.777 108.473 128.31C109.817 127.307 111.721 126.806 114.183 126.806C114.445 126.792 114.707 126.838 114.949 126.938C115.054 127.012 115.141 127.106 115.207 127.215C115.272 127.324 115.314 127.446 115.33 127.572C115.44 128.139 115.731 128.655 116.159 129.042C116.588 129.427 117.084 129.73 117.623 129.935C118.169 130.147 118.737 130.296 119.317 130.378C119.834 130.46 120.356 130.502 120.879 130.505C121.99 130.542 123.095 130.313 124.1 129.837C124.923 129.428 125.642 128.837 126.203 128.108C126.739 127.406 127.13 126.605 127.355 125.751C127.584 124.931 127.702 124.085 127.707 123.233C127.694 122.597 127.605 121.964 127.442 121.349C127.318 120.773 127.089 120.224 126.768 119.73C126.441 119.25 126.004 118.855 125.494 118.578C124.874 118.256 124.181 118.101 123.483 118.128C122.761 118.119 122.049 118.296 121.415 118.641C120.737 119.058 120.245 119.721 120.043 120.491C119.87 121.171 119.553 121.51 119.087 121.51H115.549C114.53 121.537 113.513 121.429 112.524 121.188C111.842 121.033 111.208 120.717 110.674 120.266C110.221 119.857 109.898 119.324 109.746 118.733C109.565 118.037 109.48 117.32 109.493 116.601C109.493 115.581 109.585 114.083 109.781 112.101C109.977 110.119 110.201 108.067 110.478 105.883C110.755 103.7 111.02 101.666 111.279 99.7295C111.538 97.7934 111.723 96.3816 111.855 95.4885C111.853 95.3514 111.88 95.2154 111.936 95.09C111.991 94.9646 112.074 94.8528 112.177 94.7623C112.28 94.6718 112.401 94.6049 112.533 94.5661C112.664 94.5273 112.803 94.5177 112.938 94.5378H137.295C137.543 94.535 137.787 94.603 137.998 94.7337C138.104 94.8115 138.186 94.9161 138.238 95.0366C138.29 95.1571 138.308 95.2893 138.292 95.4194L138.038 99.1821C138.01 100.297 137.642 101.376 136.984 102.276C136.369 103.064 135.106 103.448 133.192 103.429H121.668L120.331 113.161C121.079 112.527 121.965 112.079 122.919 111.853C124.133 111.523 125.388 111.362 126.647 111.375C128.349 111.352 130.039 111.667 131.619 112.303C133.051 112.87 134.344 113.738 135.411 114.849C136.459 115.981 137.264 117.317 137.773 118.773C138.336 120.392 138.615 122.096 138.597 123.81C138.592 125.84 138.247 127.856 137.577 129.773C136.89 131.765 135.792 133.59 134.356 135.132C132.774 136.806 130.85 138.121 128.715 138.987C126.091 140.03 123.282 140.53 120.458 140.457Z" fill="white"/>
</g>
<g clip-path="url(#clip5_465_468)">
<path opacity="0.5" d="M172.197 155.139C170.464 155.164 168.79 154.509 167.534 153.314C166.278 152.12 165.54 150.481 165.478 148.748L163.646 86.4361C163.651 85.5774 163.826 84.7283 164.16 83.9373C164.494 83.1462 164.981 82.4289 165.593 81.8264C166.642 80.7719 169.408 79.8615 171.546 79.8615H238.283C240.081 79.8609 241.807 80.5714 243.083 81.8379C243.709 82.4635 244.201 83.2093 244.531 84.0302C244.86 84.8511 245.021 85.7303 245.002 86.6148L243.313 148.737C243.258 150.471 242.523 152.114 241.267 153.311C240.011 154.509 238.335 155.165 236.601 155.139H172.197Z" fill="#4B3457"/>
<path d="M174.018 152.067C172.631 152.089 171.292 151.568 170.285 150.615C169.278 149.662 168.684 148.353 168.63 146.968L166.901 88.1475C166.903 87.4636 167.039 86.7866 167.303 86.1557C167.567 85.5248 167.954 84.9523 168.44 84.4712C169.172 83.751 171.494 82.9097 173.384 82.9097H236.376C237.821 82.9087 239.209 83.4781 240.236 84.4943C240.735 84.9917 241.127 85.5854 241.388 86.2393C241.65 86.8931 241.776 87.5934 241.758 88.2973L240.167 146.956C240.121 148.343 239.531 149.656 238.525 150.612C237.52 151.568 236.179 152.091 234.791 152.067H174.018Z" fill="#EBEDED"/>
<g style="mix-blend-mode:screen" opacity="0.93">
<path d="M168.44 86.1192C169.172 85.3989 171.494 84.5634 173.384 84.5634C194.347 83.6108 215.344 83.6108 236.376 84.5634C237.821 84.5624 239.209 85.1318 240.236 86.148C241.131 87.0524 241.662 88.2542 241.729 89.5247L241.758 88.3204C241.776 87.6164 241.65 86.9161 241.388 86.2623C241.127 85.6085 240.735 85.0147 240.236 84.5173C239.209 83.5011 237.821 82.9317 236.376 82.9327C215.394 81.7918 194.366 81.7918 173.384 82.9327C171.494 82.9327 169.172 83.774 168.44 84.4712C167.459 85.4353 166.902 86.7494 166.89 88.1245L166.924 89.3748C167.029 88.1446 167.566 86.9911 168.44 86.1192Z" fill="white"/>
</g>
<path d="M235.097 139.327L235.027 141.309C234.962 142.76 234.333 144.128 233.276 145.123C232.219 146.118 230.815 146.662 229.363 146.639H179.365C177.918 146.659 176.519 146.117 175.463 145.128C174.407 144.138 173.775 142.778 173.701 141.332C173.268 130.62 173.257 131.468 173.701 142.421C173.775 143.866 174.407 145.226 175.463 146.215C176.52 147.203 177.918 147.744 179.365 147.723H229.334C230.786 147.745 232.19 147.201 233.247 146.206C234.305 145.211 234.933 143.843 234.999 142.393L235.068 140.416C235.535 127.941 235.523 127.14 235.097 139.327Z" fill="url(#paint5_radial_465_468)"/>
<g style="mix-blend-mode:screen" opacity="0.82">
<path d="M177.417 90.3659C177.371 89.9798 176.997 89.6514 176.086 89.5246C174.559 89.3114 171.943 89.2826 170.745 90.4178C169.414 91.6797 169.978 92.6304 171.897 92.7687C173.257 92.9103 174.631 92.7123 175.896 92.1925C176.714 91.7488 177.475 90.9825 177.417 90.3659Z" fill="white"/>
</g>
<g style="mix-blend-mode:screen" opacity="0.82">
<path d="M182.085 89.5938C182.764 88.9542 183.024 88.015 182.085 87.4676C180.644 86.6436 178.235 88.136 179.353 89.6745C180.039 90.6598 181.318 90.3141 182.085 89.5938Z" fill="white"/>
</g>
<g style="mix-blend-mode:screen" opacity="0.82">
<path d="M232.452 90.6368C232.498 90.2449 232.872 89.9223 233.783 89.7955C235.31 89.5823 237.926 89.5477 239.119 90.6886C240.455 91.9448 239.885 92.8955 237.966 93.0396C236.604 93.1692 235.23 92.9614 233.967 92.4346C233.149 92.0197 232.388 91.2476 232.452 90.6368Z" fill="white"/>
</g>
<g style="mix-blend-mode:screen" opacity="0.82">
<path d="M227.796 89.8646C227.116 89.2193 226.857 88.28 227.796 87.7326C229.236 86.9144 231.639 88.401 230.527 89.9453C229.83 90.9249 228.551 90.5791 227.796 89.8646Z" fill="white"/>
</g>
<path d="M202.379 146.219C198.305 146.219 194.986 145.516 192.22 144.075C189.519 142.699 187.229 140.634 185.582 138.088C184.037 135.631 183.002 132.887 182.54 130.021C182.074 127.286 181.845 124.516 181.854 121.741C181.841 117.829 182.245 113.928 183.058 110.101C183.837 106.342 185.29 102.754 187.346 99.5105C189.45 96.2503 192.331 93.5636 195.729 91.6913C199.187 89.7609 203.422 88.7814 208.245 88.7814C213.955 88.7814 218.185 89.8128 221.193 91.939C225.612 95.0737 226.54 99.0553 226.54 101.844C226.54 105.549 225.036 108.684 222.316 110.672C223.564 112.046 224.573 113.62 225.301 115.328C226.334 117.845 226.836 120.548 226.776 123.268C226.793 126.255 226.262 129.22 225.209 132.015C224.153 134.828 222.506 137.382 220.38 139.506C218.141 141.701 215.465 143.401 212.526 144.496C209.277 145.685 205.838 146.269 202.379 146.219Z" fill="#602968"/>
<path d="M207.542 104.063C206.116 104.004 204.712 104.43 203.56 105.273C202.536 106.078 201.697 107.094 201.1 108.252C200.485 109.414 200.044 110.66 199.792 111.951C199.544 113.072 199.403 114.214 199.371 115.362C199.328 115.782 199.416 116.205 199.625 116.572C199.923 116.228 200.2 115.866 200.454 115.489C200.987 114.785 201.609 114.154 202.304 113.611C203.227 112.893 204.247 112.31 205.335 111.882C206.747 111.336 208.253 111.076 209.766 111.116C211.202 111.116 212.63 111.322 214.007 111.726C215.376 112.125 216.639 112.822 217.706 113.766C218.852 114.812 219.755 116.096 220.351 117.529C221.082 119.36 221.429 121.321 221.371 123.291C221.388 125.622 220.978 127.936 220.161 130.119C219.372 132.215 218.141 134.117 216.554 135.697C214.857 137.359 212.826 138.641 210.596 139.46C207.96 140.418 205.171 140.883 202.367 140.831C199.221 140.831 196.671 140.32 194.715 139.298C192.857 138.351 191.283 136.93 190.152 135.178C188.982 133.33 188.199 131.264 187.847 129.105C187.443 126.671 187.251 124.208 187.271 121.741C187.258 118.215 187.621 114.697 188.354 111.248C188.988 108.126 190.183 105.145 191.88 102.449C193.505 99.9313 195.733 97.8594 198.363 96.422C201.052 94.9353 204.346 94.192 208.245 94.192C212.751 94.192 216.016 94.9142 218.041 96.3586C220.065 97.803 221.085 99.6315 221.1 101.844C221.1 103.842 220.43 105.328 219.089 106.304C217.749 107.28 215.828 107.77 213.327 107.773C213.056 107.786 212.785 107.743 212.532 107.647C212.342 107.56 212.244 107.347 212.244 107.007C212.247 106.613 212.162 106.223 211.997 105.866C211.832 105.508 211.589 105.191 211.287 104.938C210.665 104.355 209.416 104.063 207.542 104.063ZM205.237 118.733C204.247 118.701 203.269 118.966 202.431 119.494C201.692 119.978 201.072 120.622 200.616 121.378C200.165 122.126 199.842 122.944 199.659 123.798C199.48 124.554 199.384 125.326 199.371 126.103C199.302 127.333 199.649 128.551 200.356 129.56C200.693 129.986 201.126 130.324 201.621 130.546C202.115 130.769 202.656 130.87 203.197 130.839C204.257 130.876 205.303 130.586 206.193 130.01C206.988 129.472 207.651 128.763 208.135 127.935C208.616 127.142 208.975 126.282 209.201 125.383C209.403 124.589 209.511 123.775 209.524 122.957C209.579 121.866 209.248 120.792 208.591 119.92C207.937 119.136 206.823 118.745 205.248 118.745L205.237 118.733Z" fill="white"/>
</g>
<g clip-path="url(#clip6_465_468)">
<path opacity="0.5" d="M8.55106 235C6.8179 235.025 5.14385 234.37 3.88787 233.176C2.63189 231.981 1.89398 230.342 1.83237 228.61L0 166.298C0.0055177 165.439 0.180386 164.59 0.514589 163.799C0.848793 163.008 1.33576 162.29 1.94761 161.688C2.99633 160.633 5.76217 159.723 7.89994 159.723H74.6374C76.4355 159.722 78.161 160.433 79.4373 161.699C80.0628 162.325 80.5553 163.071 80.885 163.892C81.2148 164.713 81.375 165.592 81.3561 166.476L79.6678 228.598C79.6121 230.332 78.8771 231.975 77.6214 233.173C76.3657 234.37 74.6898 235.027 72.9548 235H8.55106Z" fill="#4B3457"/>
<path d="M10.3718 231.929C8.98566 231.951 7.64587 231.43 6.63902 230.477C5.63217 229.524 5.03822 228.215 4.98421 226.829L3.25555 168.009C3.2569 167.325 3.39353 166.648 3.65758 166.017C3.92162 165.386 4.30786 164.814 4.79405 164.333C5.52585 163.612 7.848 162.771 9.738 162.771H72.7301C74.1754 162.77 75.5628 163.34 76.5907 164.356C77.0892 164.853 77.4812 165.447 77.7427 166.101C78.0042 166.755 78.1299 167.455 78.1119 168.159L76.5216 226.818C76.4749 228.205 75.8852 229.517 74.8795 230.474C73.8739 231.43 72.5328 231.952 71.1455 231.929H10.3718Z" fill="#EBEDED"/>
<g style="mix-blend-mode:screen" opacity="0.93">
<path d="M4.79404 165.981C5.52584 165.26 7.84799 164.425 9.73799 164.425C30.7008 163.472 51.6981 163.472 72.73 164.425C74.1754 164.424 75.5628 164.993 76.5907 166.01C77.4855 166.914 78.0166 168.116 78.0831 169.386L78.1119 168.182C78.1298 167.478 78.0042 166.778 77.7427 166.124C77.4811 165.47 77.0892 164.876 76.5907 164.379C75.5628 163.363 74.1754 162.793 72.73 162.794C51.7482 161.653 30.7198 161.653 9.73799 162.794C7.84799 162.794 5.52584 163.635 4.79404 164.333C3.81345 165.297 3.25591 166.611 3.24402 167.986L3.27859 169.236C3.38286 168.006 3.9198 166.853 4.79404 165.981Z" fill="white"/>
</g>
<path d="M71.451 219.189L71.3819 221.171C71.3161 222.621 70.6879 223.989 69.6304 224.984C68.573 225.979 67.1695 226.523 65.7177 226.501H15.7193C14.2721 226.521 12.8735 225.979 11.8173 224.989C10.7611 224 10.1295 222.639 10.0551 221.194C9.62292 210.482 9.61139 211.329 10.0551 222.283C10.1295 223.728 10.7613 225.088 11.8177 226.076C12.874 227.065 14.2726 227.605 15.7193 227.584H65.6889C67.1407 227.607 68.5442 227.063 69.6016 226.067C70.6591 225.072 71.2873 223.705 71.3531 222.254L71.4222 220.278C71.8889 207.803 71.8774 207.002 71.451 219.189Z" fill="url(#paint6_radial_465_468)"/>
<g style="mix-blend-mode:screen" opacity="0.82">
<path d="M13.7715 170.227C13.7254 169.841 13.3508 169.513 12.4404 169.386C10.9134 169.173 8.29742 169.144 7.09889 170.279C5.76783 171.541 6.33252 172.492 8.25132 172.63C9.61145 172.772 10.9854 172.574 12.2503 172.054C13.0685 171.61 13.8291 170.844 13.7715 170.227Z" fill="white"/>
</g>
<g style="mix-blend-mode:screen" opacity="0.82">
<path d="M18.439 169.455C19.1189 168.816 19.3782 167.876 18.439 167.329C16.9984 166.505 14.5898 167.997 15.7077 169.536C16.3934 170.521 17.6726 170.176 18.439 169.455Z" fill="white"/>
</g>
<g style="mix-blend-mode:screen" opacity="0.82">
<path d="M68.8061 170.498C68.8522 170.106 69.2267 169.784 70.1371 169.657C71.6641 169.444 74.2801 169.409 75.4729 170.55C76.8097 171.806 76.2393 172.757 74.3205 172.901C72.958 173.031 71.5846 172.823 70.3215 172.296C69.5033 171.881 68.7427 171.109 68.8061 170.498Z" fill="white"/>
</g>
<g style="mix-blend-mode:screen" opacity="0.82">
<path d="M64.1502 169.726C63.4702 169.081 63.2109 168.142 64.1502 167.594C65.5907 166.776 67.9935 168.263 66.8814 169.807C66.1842 170.786 64.905 170.441 64.1502 169.726Z" fill="white"/>
</g>
<path d="M32.9942 225.412C30.3563 225.484 27.7386 224.933 25.3535 223.804C23.8572 223.102 22.5935 221.986 21.7121 220.588C20.8307 219.19 20.3687 217.568 20.3808 215.916C20.397 214.822 20.5917 213.738 20.957 212.706C21.3021 211.722 21.7062 210.76 22.1671 209.825C22.6568 208.799 23.2849 207.566 24.0974 206.057L26.9785 200.721C28.5496 197.794 29.8941 195.297 31.012 193.23C31.8821 191.622 32.6312 190.216 33.242 189.035H26.7422C25.6329 189.072 24.5357 188.795 23.5766 188.237C22.6175 187.678 21.8353 186.86 21.32 185.877C20.8532 184.91 20.6184 183.846 20.6343 182.772V182.628L20.836 178.796C20.8945 178.022 21.0003 177.252 21.1529 176.491C21.4118 175.18 21.9633 173.945 22.7663 172.878C23.6911 171.66 24.9245 170.711 26.3389 170.129C27.7635 169.553 29.2912 169.274 30.8276 169.311H54.5505C55.7688 169.313 56.9638 169.645 58.0078 170.273C58.9231 170.829 59.677 171.614 60.1946 172.551C60.7122 173.488 60.9754 174.545 60.958 175.615V175.817L60.6757 179.574V179.695C60.5729 180.62 60.3799 181.533 60.0994 182.42C59.8911 183.03 59.6447 183.627 59.3619 184.206C57.3413 188.294 55.6088 191.795 54.1644 194.711C52.72 197.627 51.4523 200.189 50.3614 202.398C49.2934 204.53 48.383 206.383 47.6301 207.958C46.8772 209.533 46.1742 211.018 45.5211 212.412C44.8758 213.778 44.2592 215.138 43.66 216.498L41.5337 221.338C41.0027 222.552 40.1286 223.584 39.0189 224.307C37.9093 225.031 36.6123 225.415 35.2875 225.412H32.9942Z" fill="#602968"/>
<path d="M36.6301 219.073C36.5311 219.351 36.3493 219.592 36.1092 219.763C35.8691 219.934 35.5823 220.027 35.2875 220.03H32.9827C31.1982 220.098 29.4225 219.749 27.7967 219.01C27.1943 218.757 26.681 218.331 26.3227 217.785C25.9644 217.238 25.7774 216.598 25.7857 215.945C25.8033 215.433 25.9005 214.928 26.0738 214.446C26.3494 213.666 26.6687 212.903 27.0304 212.159C27.4798 211.225 28.0848 210.05 28.8512 208.621C29.6176 207.192 30.5799 205.423 31.7323 203.297C33.2996 200.362 34.6441 197.865 35.7658 195.806C36.8875 193.747 37.7902 192.035 38.474 190.672L40.1335 187.381C40.5599 186.552 40.8884 185.889 41.1246 185.405C41.3609 184.921 41.5165 184.552 41.6029 184.322C41.6875 184.088 41.7936 183.862 41.9198 183.648H26.7422C26.4042 183.648 26.2121 183.584 26.166 183.457C26.0805 183.239 26.0394 183.006 26.045 182.772L26.2352 179.205C26.2754 178.661 26.3505 178.12 26.4599 177.586C26.5524 177.057 26.7653 176.556 27.0822 176.122C27.4419 175.668 27.9149 175.316 28.4536 175.102C29.2108 174.814 30.0178 174.679 30.8276 174.705H54.5505C54.7959 174.703 55.0372 174.769 55.2477 174.895C55.3599 174.972 55.4491 175.078 55.5059 175.202C55.5627 175.326 55.585 175.462 55.5704 175.598L55.3111 179.055C55.261 179.617 55.1548 180.173 54.9942 180.715C54.8718 181.086 54.7236 181.448 54.5505 181.798C52.503 185.881 50.759 189.389 49.3184 192.32C47.8779 195.251 46.6121 197.801 45.5212 199.972C44.434 202.146 43.5082 204.028 42.7438 205.619C41.9774 207.215 41.2687 208.713 40.606 210.113C39.9434 211.513 39.3095 212.919 38.693 214.325C38.0764 215.731 37.3965 217.299 36.6301 219.073Z" fill="white"/>
</g>
<g clip-path="url(#clip7_465_468)">
<path opacity="0.5" d="M90.3738 235C88.6407 235.025 86.9666 234.37 85.7106 233.176C84.4546 231.981 83.7167 230.342 83.6551 228.61L81.8228 166.298C81.8283 165.439 82.0031 164.59 82.3373 163.799C82.6715 163.008 83.1585 162.29 83.7704 161.688C84.8191 160.633 87.5849 159.723 89.7227 159.723H156.46C158.258 159.722 159.984 160.433 161.26 161.699C161.886 162.325 162.378 163.071 162.708 163.892C163.038 164.713 163.198 165.592 163.179 166.476L161.491 228.598C161.435 230.332 160.7 231.975 159.444 233.173C158.188 234.37 156.513 235.027 154.778 235H90.3738Z" fill="#4B3457"/>
<path d="M92.1948 231.929C90.8086 231.951 89.4688 231.43 88.462 230.477C87.4551 229.524 86.8612 228.215 86.8071 226.829L85.0785 168.009C85.0798 167.325 85.2165 166.648 85.4805 166.017C85.7446 165.386 86.1308 164.814 86.617 164.333C87.3488 163.612 89.6709 162.771 91.5609 162.771H154.553C155.998 162.77 157.386 163.34 158.414 164.356C158.912 164.853 159.304 165.447 159.566 166.101C159.827 166.755 159.953 167.455 159.935 168.159L158.344 226.818C158.298 228.205 157.708 229.517 156.702 230.474C155.697 231.43 154.356 231.952 152.968 231.929H92.1948Z" fill="#EBEDED"/>
<g style="mix-blend-mode:screen" opacity="0.93">
<path d="M86.617 165.981C87.3488 165.26 89.6709 164.425 91.5609 164.425C112.524 163.472 133.521 163.472 154.553 164.425C155.998 164.424 157.386 164.993 158.414 166.01C159.308 166.914 159.84 168.116 159.906 169.386L159.935 168.182C159.953 167.478 159.827 166.778 159.566 166.124C159.304 165.47 158.912 164.876 158.414 164.379C157.386 163.363 155.998 162.793 154.553 162.794C133.571 161.653 112.543 161.653 91.5609 162.794C89.6709 162.794 87.3488 163.635 86.617 164.333C85.6364 165.297 85.0788 166.611 85.067 167.986L85.1015 169.236C85.2058 168.006 85.7427 166.853 86.617 165.981Z" fill="white"/>
</g>
<path d="M153.274 219.189L153.205 221.171C153.139 222.621 152.511 223.989 151.453 224.984C150.396 225.979 148.992 226.523 147.54 226.501H97.5421C96.0948 226.521 94.6963 225.979 93.6401 224.989C92.5839 224 91.9522 222.639 91.8778 221.194C91.4457 210.482 91.4341 211.329 91.8778 222.283C91.9523 223.728 92.5841 225.088 93.6404 226.076C94.6968 227.065 96.0954 227.605 97.5421 227.584H147.512C148.963 227.607 150.367 227.063 151.424 226.067C152.482 225.072 153.11 223.705 153.176 222.254L153.245 220.278C153.712 207.803 153.7 207.002 153.274 219.189Z" fill="url(#paint7_radial_465_468)"/>
<g style="mix-blend-mode:screen" opacity="0.82">
<path d="M95.5944 170.227C95.5483 169.841 95.1737 169.513 94.2633 169.386C92.7363 169.173 90.1203 169.144 88.9218 170.279C87.5907 171.541 88.1554 172.492 90.0742 172.63C91.4343 172.772 92.8083 172.574 94.0731 172.054C94.8914 171.61 95.652 170.844 95.5944 170.227Z" fill="white"/>
</g>
<g style="mix-blend-mode:screen" opacity="0.82">
<path d="M100.262 169.455C100.942 168.816 101.201 167.876 100.262 167.329C98.8212 166.505 96.4126 167.997 97.5305 169.536C98.2162 170.521 99.4954 170.176 100.262 169.455Z" fill="white"/>
</g>
<g style="mix-blend-mode:screen" opacity="0.82">
<path d="M150.629 170.498C150.675 170.106 151.05 169.784 151.96 169.657C153.487 169.444 156.103 169.409 157.296 170.55C158.633 171.806 158.062 172.757 156.143 172.901C154.781 173.031 153.408 172.823 152.144 172.296C151.326 171.881 150.566 171.109 150.629 170.498Z" fill="white"/>
</g>
<g style="mix-blend-mode:screen" opacity="0.82">
<path d="M145.973 169.726C145.293 169.081 145.034 168.142 145.973 167.594C147.414 166.776 149.816 168.263 148.704 169.807C148.007 170.786 146.728 170.441 145.973 169.726Z" fill="white"/>
</g>
<path d="M120.642 225.93C117.886 225.965 115.141 225.56 112.512 224.732C110.101 223.969 107.865 222.733 105.937 221.096C104.066 219.483 102.586 217.465 101.61 215.195C100.653 212.946 100.167 210.524 100.181 208.079C100.138 203.663 101.696 199.381 104.566 196.025C103.29 193.649 102.658 190.981 102.734 188.286C102.745 185.961 103.15 183.654 103.932 181.464C104.806 178.983 106.223 176.728 108.081 174.866C110.082 172.889 112.464 171.338 115.082 170.308C118.217 169.098 121.558 168.511 124.918 168.579C127.767 168.518 130.605 168.949 133.308 169.853C135.646 170.645 137.785 171.935 139.577 173.633C141.238 175.25 142.493 177.236 143.242 179.43C143.895 181.354 144.228 183.373 144.227 185.405C144.235 187.873 143.716 190.315 142.706 192.567C142.433 193.168 142.114 193.746 141.749 194.296C142.014 194.63 142.262 194.982 142.493 195.339C143.981 197.762 144.739 200.563 144.677 203.406C144.643 205.912 144.201 208.395 143.368 210.759C142.428 213.472 140.966 215.976 139.064 218.128C136.971 220.472 134.422 222.364 131.573 223.689C128.143 225.243 124.408 226.008 120.642 225.93Z" fill="#602968"/>
<path d="M139.266 203.429C139.236 205.341 138.891 207.235 138.246 209.036C137.537 211.082 136.431 212.968 134.99 214.585C133.382 216.38 131.42 217.823 129.228 218.826C126.531 220.024 123.599 220.603 120.648 220.52C118.465 220.554 116.291 220.241 114.206 219.592C112.476 219.053 110.869 218.176 109.481 217.01C108.233 215.929 107.248 214.577 106.6 213.058C105.93 211.484 105.593 209.789 105.609 208.079C105.586 205.789 106.17 203.535 107.303 201.545C108.57 199.426 110.332 197.647 112.437 196.359C111.16 195.774 110.1 194.803 109.406 193.582C108.509 191.978 108.078 190.156 108.162 188.321C108.173 186.604 108.475 184.901 109.055 183.285C109.66 181.553 110.645 179.978 111.936 178.675C113.422 177.221 115.186 176.083 117.122 175.327C119.608 174.392 122.252 173.948 124.907 174.019C127.135 173.965 129.355 174.289 131.476 174.975C133.077 175.507 134.545 176.378 135.78 177.528C136.825 178.552 137.614 179.808 138.085 181.193C138.547 182.559 138.783 183.992 138.782 185.434C138.783 187.128 138.426 188.803 137.733 190.349C137.03 191.924 135.686 193.368 133.7 194.682C135.397 195.474 136.85 196.708 137.906 198.255C138.85 199.812 139.322 201.609 139.266 203.429ZM123.385 198.704C122.435 198.638 121.485 198.854 120.657 199.325C119.828 199.797 119.158 200.503 118.73 201.355C118.357 202.079 118.098 202.856 117.963 203.66C117.848 204.334 117.785 205.016 117.773 205.699C117.773 208.934 119.091 210.549 121.726 210.545C122.704 210.599 123.671 210.314 124.463 209.739C125.148 209.2 125.703 208.515 126.088 207.733C126.46 206.944 126.72 206.106 126.86 205.244C126.998 204.497 127.073 203.739 127.085 202.98C127.085 201.32 126.745 200.196 126.065 199.597C125.313 198.978 124.358 198.659 123.385 198.704ZM124.538 182.956C123.717 182.919 122.907 183.154 122.233 183.624C121.657 184.051 121.178 184.595 120.827 185.221C120.488 185.837 120.252 186.504 120.13 187.197C120.009 187.795 119.944 188.402 119.934 189.012C119.934 190.378 120.222 191.352 120.798 191.945C121.123 192.257 121.508 192.497 121.931 192.651C122.354 192.805 122.804 192.869 123.253 192.838C124.101 192.878 124.94 192.644 125.644 192.17C126.245 191.74 126.747 191.186 127.114 190.545C127.47 189.92 127.719 189.241 127.851 188.534C127.971 187.882 128.035 187.22 128.041 186.557C128.074 185.635 127.78 184.731 127.212 184.005C126.658 183.306 125.765 182.956 124.532 182.956H124.538Z" fill="white"/>
</g>
<g clip-path="url(#clip8_465_468)">
<path opacity="0.5" d="M172.197 235C170.464 235.025 168.79 234.37 167.534 233.176C166.278 231.981 165.54 230.342 165.478 228.61L163.646 166.298C163.651 165.439 163.826 164.59 164.16 163.799C164.495 163.008 164.982 162.29 165.593 161.688C166.642 160.633 169.408 159.723 171.546 159.723H238.283C240.081 159.722 241.807 160.433 243.083 161.699C243.709 162.325 244.201 163.071 244.531 163.892C244.861 164.713 245.021 165.592 245.002 166.476L243.314 228.598C243.258 230.332 242.523 231.975 241.267 233.173C240.012 234.37 238.336 235.027 236.601 235H172.197Z" fill="#4B3457"/>
<path d="M174.018 231.929C172.631 231.951 171.292 231.43 170.285 230.477C169.278 229.524 168.684 228.215 168.63 226.829L166.901 168.009C166.903 167.325 167.039 166.648 167.303 166.017C167.567 165.386 167.954 164.814 168.44 164.333C169.172 163.612 171.494 162.771 173.384 162.771H236.376C237.821 162.77 239.209 163.34 240.236 164.356C240.735 164.853 241.127 165.447 241.388 166.101C241.65 166.755 241.776 167.455 241.758 168.159L240.167 226.818C240.121 228.205 239.531 229.517 238.525 230.474C237.52 231.43 236.179 231.952 234.791 231.929H174.018Z" fill="#EBEDED"/>
<g style="mix-blend-mode:screen" opacity="0.93">
<path d="M168.44 165.981C169.171 165.26 171.494 164.425 173.383 164.425C194.346 163.472 215.344 163.472 236.376 164.425C237.821 164.424 239.208 164.993 240.236 166.01C241.131 166.914 241.662 168.116 241.729 169.386L241.757 168.182C241.775 167.478 241.65 166.778 241.388 166.124C241.127 165.47 240.735 164.876 240.236 164.379C239.208 163.363 237.821 162.793 236.376 162.794C215.394 161.653 194.365 161.653 173.383 162.794C171.494 162.794 169.171 163.635 168.44 164.333C167.459 165.297 166.901 166.611 166.89 167.986L166.924 169.236C167.028 168.006 167.565 166.853 168.44 165.981Z" fill="white"/>
</g>
<path d="M235.097 219.189L235.027 221.171C234.962 222.621 234.333 223.989 233.276 224.984C232.219 225.979 230.815 226.523 229.363 226.501H179.365C177.918 226.521 176.519 225.979 175.463 224.989C174.407 224 173.775 222.639 173.701 221.194C173.268 210.482 173.257 211.329 173.701 222.283C173.775 223.728 174.407 225.088 175.463 226.076C176.52 227.065 177.918 227.605 179.365 227.584H229.334C230.786 227.607 232.19 227.063 233.247 226.067C234.305 225.072 234.933 223.705 234.999 222.254L235.068 220.278C235.535 207.803 235.523 207.002 235.097 219.189Z" fill="url(#paint8_radial_465_468)"/>
<g style="mix-blend-mode:screen" opacity="0.82">
<path d="M177.417 170.227C177.371 169.841 176.997 169.513 176.086 169.386C174.559 169.173 171.943 169.144 170.745 170.279C169.414 171.541 169.978 172.492 171.897 172.63C173.257 172.772 174.631 172.574 175.896 172.054C176.714 171.61 177.475 170.844 177.417 170.227Z" fill="white"/>
</g>
<g style="mix-blend-mode:screen" opacity="0.82">
<path d="M182.085 169.455C182.764 168.816 183.024 167.876 182.085 167.329C180.644 166.505 178.235 167.997 179.353 169.536C180.039 170.521 181.318 170.176 182.085 169.455Z" fill="white"/>
</g>
<g style="mix-blend-mode:screen" opacity="0.82">
<path d="M232.452 170.498C232.498 170.106 232.872 169.784 233.783 169.657C235.31 169.444 237.926 169.409 239.119 170.55C240.455 171.806 239.885 172.757 237.966 172.901C236.604 173.031 235.23 172.823 233.967 172.296C233.149 171.881 232.388 171.109 232.452 170.498Z" fill="white"/>
</g>
<g style="mix-blend-mode:screen" opacity="0.82">
<path d="M227.796 169.726C227.116 169.081 226.857 168.142 227.796 167.594C229.237 166.776 231.639 168.263 230.527 169.807C229.83 170.786 228.551 170.441 227.796 169.726Z" fill="white"/>
</g>
<path d="M198.743 225.988C196.515 226.024 194.291 225.77 192.128 225.233C190.193 224.755 188.366 223.912 186.746 222.75C185.139 221.581 183.864 220.014 183.047 218.203C182.333 216.556 181.969 214.778 181.981 212.983C181.981 208.189 184.286 205.492 186.21 204.092C186.452 203.913 186.706 203.74 186.965 203.585C185.644 202.186 184.577 200.568 183.813 198.802C182.786 196.276 182.292 193.565 182.361 190.839C182.347 187.95 182.854 185.082 183.859 182.374C184.862 179.68 186.416 177.224 188.423 175.166C190.544 173.022 193.098 171.354 195.914 170.274C199.041 169.084 202.364 168.498 205.71 168.545C209.743 168.545 213.2 169.277 216.001 170.706C218.732 172.079 221.065 174.131 222.777 176.664C224.377 179.107 225.457 181.853 225.952 184.731C226.443 187.411 226.688 190.131 226.684 192.855C226.685 196.833 226.221 200.798 225.301 204.668C224.413 208.499 222.812 212.129 220.582 215.368C218.292 218.633 215.245 221.294 211.702 223.124C208.095 225.031 203.733 225.988 198.743 225.988Z" fill="#602968"/>
<path d="M199.371 210.695C201.126 210.758 202.862 210.316 204.373 209.422C205.654 208.627 206.745 207.558 207.565 206.293C208.336 205.097 208.906 203.783 209.253 202.403C209.571 201.217 209.743 199.996 209.766 198.767C209.809 198.347 209.718 197.924 209.507 197.557C209.34 197.771 209.034 198.174 208.585 198.767C208.052 199.464 207.435 200.091 206.747 200.634C205.827 201.348 204.805 201.919 203.716 202.329C202.31 202.847 200.818 203.096 199.319 203.06C197.905 203.059 196.498 202.855 195.142 202.455C193.772 202.059 192.508 201.362 191.442 200.415C190.296 199.37 189.394 198.085 188.798 196.653C188.065 194.822 187.716 192.861 187.772 190.891C187.755 188.649 188.146 186.424 188.924 184.322C189.664 182.321 190.814 180.498 192.301 178.969C193.886 177.351 195.8 176.094 197.913 175.281C200.405 174.351 203.051 173.903 205.71 173.961C208.902 173.961 211.506 174.482 213.523 175.523C215.438 176.474 217.075 177.903 218.277 179.672C219.465 181.499 220.267 183.55 220.634 185.699C221.064 188.054 221.276 190.444 221.267 192.838C221.283 196.402 220.877 199.955 220.057 203.423C219.327 206.598 218.006 209.606 216.162 212.291C214.373 214.845 211.987 216.924 209.213 218.347C206.366 219.842 202.88 220.587 198.755 220.583C196.995 220.613 195.239 220.42 193.528 220.007C192.256 219.704 191.054 219.163 189.985 218.411C189.128 217.8 188.447 216.975 188.008 216.019C187.605 215.061 187.409 214.028 187.432 212.989C187.432 210.949 188.1 209.445 189.443 208.465C190.785 207.486 192.664 206.973 195.17 206.973C195.453 206.939 195.74 206.982 196 207.1C196.133 207.291 196.219 207.509 196.254 207.739C196.347 208.567 196.644 209.359 197.118 210.044C197.475 210.493 198.219 210.695 199.371 210.695ZM203.652 195.391C204.595 195.423 205.526 195.178 206.332 194.688C207.022 194.251 207.6 193.659 208.02 192.959C208.421 192.287 208.712 191.556 208.884 190.793C209.053 190.105 209.147 189.402 209.167 188.695C209.239 187.422 208.827 186.169 208.014 185.186C207.624 184.763 207.146 184.43 206.613 184.212C206.081 183.994 205.507 183.896 204.932 183.924C204.019 183.889 203.121 184.158 202.379 184.69C201.706 185.19 201.152 185.831 200.754 186.569C200.352 187.31 200.061 188.106 199.89 188.931C199.736 189.632 199.651 190.346 199.636 191.063C199.586 192.185 199.923 193.29 200.593 194.192C201.234 194.991 202.254 195.391 203.652 195.391Z" fill="white"/>
</g>
<defs>
<radialGradient id="paint0_radial_465_468" cx="0" cy="0" r="1" gradientUnits="userSpaceOnUse" gradientTransform="translate(40.2373 71.0095) scale(37.8978 37.1398)">
<stop stop-color="white"/>
<stop offset="0.14" stop-color="white" stop-opacity="0.95"/>
<stop offset="0.39" stop-color="white" stop-opacity="0.82"/>
<stop offset="0.72" stop-color="white" stop-opacity="0.6"/>
<stop offset="1" stop-color="white" stop-opacity="0.4"/>
</radialGradient>
<radialGradient id="paint1_radial_465_468" cx="0" cy="0" r="1" gradientUnits="userSpaceOnUse" gradientTransform="translate(122.06 71.0095) scale(37.8978 37.1398)">
<stop stop-color="white"/>
<stop offset="0.14" stop-color="white" stop-opacity="0.95"/>
<stop offset="0.39" stop-color="white" stop-opacity="0.82"/>
<stop offset="0.72" stop-color="white" stop-opacity="0.6"/>
<stop offset="1" stop-color="white" stop-opacity="0.4"/>
</radialGradient>
<radialGradient id="paint2_radial_465_468" cx="0" cy="0" r="1" gradientUnits="userSpaceOnUse" gradientTransform="translate(203.883 71.0095) scale(37.8978 37.1398)">
<stop stop-color="white"/>
<stop offset="0.14" stop-color="white" stop-opacity="0.95"/>
<stop offset="0.39" stop-color="white" stop-opacity="0.82"/>
<stop offset="0.72" stop-color="white" stop-opacity="0.6"/>
<stop offset="1" stop-color="white" stop-opacity="0.4"/>
</radialGradient>
<radialGradient id="paint3_radial_465_468" cx="0" cy="0" r="1" gradientUnits="userSpaceOnUse" gradientTransform="translate(40.2372 150.88) scale(37.8978 37.1398)">
<stop stop-color="white"/>
<stop offset="0.14" stop-color="white" stop-opacity="0.95"/>
<stop offset="0.39" stop-color="white" stop-opacity="0.82"/>
<stop offset="0.72" stop-color="white" stop-opacity="0.6"/>
<stop offset="1" stop-color="white" stop-opacity="0.4"/>
</radialGradient>
<radialGradient id="paint4_radial_465_468" cx="0" cy="0" r="1" gradientUnits="userSpaceOnUse" gradientTransform="translate(122.06 150.88) scale(37.8978 37.1398)">
<stop stop-color="white"/>
<stop offset="0.14" stop-color="white" stop-opacity="0.95"/>
<stop offset="0.39" stop-color="white" stop-opacity="0.82"/>
<stop offset="0.72" stop-color="white" stop-opacity="0.6"/>
<stop offset="1" stop-color="white" stop-opacity="0.4"/>
</radialGradient>
<radialGradient id="paint5_radial_465_468" cx="0" cy="0" r="1" gradientUnits="userSpaceOnUse" gradientTransform="translate(203.883 150.88) scale(37.8978 37.1398)">
<stop stop-color="white"/>
<stop offset="0.14" stop-color="white" stop-opacity="0.95"/>
<stop offset="0.39" stop-color="white" stop-opacity="0.82"/>
<stop offset="0.72" stop-color="white" stop-opacity="0.6"/>
<stop offset="1" stop-color="white" stop-opacity="0.4"/>
</radialGradient>
<radialGradient id="paint6_radial_465_468" cx="0" cy="0" r="1" gradientUnits="userSpaceOnUse" gradientTransform="translate(40.2373 230.751) scale(37.8978 37.1398)">
<stop stop-color="white"/>
<stop offset="0.14" stop-color="white" stop-opacity="0.95"/>
<stop offset="0.39" stop-color="white" stop-opacity="0.82"/>
<stop offset="0.72" stop-color="white" stop-opacity="0.6"/>
<stop offset="1" stop-color="white" stop-opacity="0.4"/>
</radialGradient>
<radialGradient id="paint7_radial_465_468" cx="0" cy="0" r="1" gradientUnits="userSpaceOnUse" gradientTransform="translate(122.06 230.751) scale(37.8978 37.1398)">
<stop stop-color="white"/>
<stop offset="0.14" stop-color="white" stop-opacity="0.95"/>
<stop offset="0.39" stop-color="white" stop-opacity="0.82"/>
<stop offset="0.72" stop-color="white" stop-opacity="0.6"/>
<stop offset="1" stop-color="white" stop-opacity="0.4"/>
</radialGradient>
<radialGradient id="paint8_radial_465_468" cx="0" cy="0" r="1" gradientUnits="userSpaceOnUse" gradientTransform="translate(203.883 230.751) scale(37.8978 37.1398)">
<stop stop-color="white"/>
<stop offset="0.14" stop-color="white" stop-opacity="0.95"/>
<stop offset="0.39" stop-color="white" stop-opacity="0.82"/>
<stop offset="0.72" stop-color="white" stop-opacity="0.6"/>
<stop offset="1" stop-color="white" stop-opacity="0.4"/>
</radialGradient>
<clipPath id="clip0_465_468">
<rect width="81.3561" height="75.277" fill="white"/>
</clipPath>
<clipPath id="clip1_465_468">
<rect width="81.3561" height="75.277" fill="white" transform="translate(81.8228)"/>
</clipPath>
<clipPath id="clip2_465_468">
<rect width="81.3561" height="75.277" fill="white" transform="translate(163.646)"/>
</clipPath>
<clipPath id="clip3_465_468">
<rect width="81.3561" height="75.277" fill="white" transform="translate(0 79.8615)"/>
</clipPath>
<clipPath id="clip4_465_468">
<rect width="81.3561" height="75.277" fill="white" transform="translate(81.8229 79.8615)"/>
</clipPath>
<clipPath id="clip5_465_468">
<rect width="81.3561" height="75.277" fill="white" transform="translate(163.646 79.8615)"/>
</clipPath>
<clipPath id="clip6_465_468">
<rect width="81.3561" height="75.277" fill="white" transform="translate(0 159.723)"/>
</clipPath>
<clipPath id="clip7_465_468">
<rect width="81.3561" height="75.277" fill="white" transform="translate(81.8228 159.723)"/>
</clipPath>
<clipPath id="clip8_465_468">
<rect width="81.3561" height="75.277" fill="white" transform="translate(163.646 159.723)"/>
</clipPath>
</defs>
</svg>
